RobotoCondensed-Italic.ufo
<glyph name="exclam" format="1">
  <advance width="488.88"/>
  <unicode hex="0021"/>
  <outline>
    <contour>
      <point x="485.29030125396207" y="1455.923718643179" type="line"/>
      <point x="303.54567009225065" y="1455.9497370295574" type="line"/>
      <point x="135.5034798385858" y="411.05866513290175" type="line"/>
      <point x="291.05074750451115" y="411.06949433446027" type="line"/>
    </contour>
    <contour>
      <point x="64.370477875157761" y="91.454035818920303" type="curve" smooth="yes"/>
      <point x="62.342664197072907" y="33.593301098653313"/>
      <point x="99.535770314898173" y="-14.743796727081431"/>
      <point x="160.12666613651709" y="-13.131376531012426" type="curve" smooth="yes"/>
      <point x="220.13947932043851" y="-11.534340034216731"/>
      <point x="257.94198152592901" y="37.116599796901575"/>
      <point x="260.15611197421492" y="94.504434450008787" type="curve" smooth="yes"/>
      <point x="262.42644012373722" y="153.34885192954127"/>
      <point x="225.7285235011349" y="202.91683636100973"/>
      <point x="163.69048589145143" y="201.14216595850553" type="curve" smooth="yes"/>
      <point x="103.1853853000222" y="199.41134700682116"/>
      <point x="66.381881187055299" y="148.84652444000761"/>
    </contour>
  </outline>
</glyph>
<glyph name="quotedbl" format="1">
  <advance width="636.3199999999999"/>
  <unicode hex="0022"/>
  <outline>
    <contour>
      <point x="417.02816574797521" y="1535.9194877406474" type="line"/>
      <point x="278.96010459586853" y="1535.9412683911632" type="line"/>
      <point x="255.88196065862144" y="1391.0115324063588" type="line"/>
      <point x="201.17096676340924" y="1043.06481045441" type="line"/>
      <point x="311.041245146042" y="1043.1134618446733" type="line"/>
      <point x="393.86850575851179" y="1390.0468839190503" type="line"/>
    </contour>
    <contour>
      <point x="678.92097876887294" y="1535.9283111033637" type="line"/>
      <point x="540.84124767762592" y="1535.9517497006007" type="line"/>
      <point x="518.86659387623104" y="1398.0136952890334" type="line"/>
      <point x="463.09104829109049" y="1043.0525635595045" type="line"/>
      <point x="572.94431784354788" y="1043.1035006140046" type="line"/>
      <point x="655.80102363061917" y="1390.1778776248807" type="line"/>
    </contour>
  </outline>
</glyph>
<glyph name="numbersign" format="1">
  <advance width="1088.34"/>
  <unicode hex="0023"/>
  <outline>
    <contour>
      <point x="144.60850544330447" y="0.0" type="line"/>
      <point x="279.84057813600703" y="0.0" type="line"/>
      <point x="767.37898039583933" y="1455.823186905988" type="line"/>
      <point x="631.46775242040837" y="1455.8509278563927" type="line"/>
    </contour>
    <contour>
      <point x="474.40229360684839" y="0.0" type="line"/>
      <point x="610.58006805730872" y="0.0" type="line"/>
      <point x="1097.1851774720542" y="1455.8264162923106" type="line"/>
      <point x="962.22816119078129" y="1455.8508888232973" type="line"/>
    </contour>
    <contour>
      <point x="1089.6757974045386" y="901.08279837204611" type="line"/>
      <point x="1114.4587632874041" y="1039.9066660887727" type="line"/>
      <point x="265.34543864389815" y="1039.9147778556251" type="line"/>
      <point x="240.56247276101624" y="901.09091013881869" type="line"/>
    </contour>
    <contour>
      <point x="943.50177263078467" y="410.08244060128317" type="line"/>
      <point x="968.10644290654682" y="547.90824920384387" type="line"/>
      <point x="118.02319581287004" y="547.91636312158175" type="line"/>
      <point x="93.41852553710315" y="410.09055451898428" type="line"/>
    </contour>
  </outline>
</glyph>
<glyph name="dollar" format="1">
  <advance width="980.67"/>
  <unicode hex="0024"/>
  <outline>
    <contour>
      <point x="749.90275114665599" y="1691.928745152698" type="line"/>
      <point x="612.77386536459619" y="1691.9325829840477" type="line"/>
      <point x="564.34405029696779" y="1387.068082516575" type="line"/>
      <point x="701.4729947144707" y="1387.0641302972313" type="line"/>
    </contour>
    <contour>
      <point x="476.55313892045774" y="58.925133297879583" type="line"/>
      <point x="339.41819794704611" y="58.927487024052873" type="line"/>
      <point x="296.80086293817806" y="-207.92486010842558" type="line"/>
      <point x="433.93577358822677" y="-207.92741848781179" type="line"/>
    </contour>
    <contour>
      <point x="668.82721451744635" y="382.5225378425809" type="curve" smooth="yes"/>
      <point x="653.79690494910426" y="245.6208886483366"/>
      <point x="560.72998714825826" y="137.42482979766922"/>
      <point x="416.42298637701816" y="140.91568435379068" type="curve" smooth="yes"/>
      <point x="262.17226737504734" y="144.6470821538644"/>
      <point x="244.89140734561599" y="308.03479374927781"/>
      <point x="253.69859157265415" y="428.95588967138616" type="curve"/>
      <point x="80.453886263924687" y="429.33281747635255" type="line"/>
      <point x="65.984303442006109" y="204.5279522968595"/>
      <point x="150.56092619076793" y="-16.075098934824624"/>
      <point x="405.43629978281621" y="-21.325418463205185" type="curve" smooth="yes"/>
      <point x="652.31431188000613" y="-26.410995895712727"/>
      <point x="821.24313651999898" y="141.56113611311241"/>
      <point x="839.23828508011911" y="384.1674693411203" type="curve" smooth="yes"/>
      <point x="855.1509353635463" y="598.69805375415058"/>
      <point x="753.82177924737016" y="717.71067752764543"/>
      <point x="570.7323510423962" y="808.94180693801991" type="curve" smooth="yes"/>
      <point x="456.82049404138007" y="865.70263397933479"/>
      <point x="387.51296631721419" y="943.49128919961822"/>
      <point x="401.11148744604463" y="1075.6638327621049" type="curve" smooth="yes"/>
      <point x="413.47705501046642" y="1195.8525284371303"/>
      <point x="478.80879040486127" y="1319.2604001969833"/>
      <point x="615.73103952389374" y="1315.2367680498362" type="curve" smooth="yes"/>
      <point x="763.73946238612336" y="1310.8873547725295"/>
      <point x="764.68824921981889" y="1113.1509747077876"/>
      <point x="756.92468472522398" y="1007.9847981233406" type="curve"/>
      <point x="928.9303272128559" y="1007.8207930792877" type="line"/>
      <point x="944.58241719561613" y="1224.8518463569123"/>
      <point x="887.92404307418997" y="1470.89944727587"/>
      <point x="627.94822112364261" y="1477.1574381579101" type="curve" smooth="yes"/>
      <point x="391.51932804747793" y="1482.8486206918108"/>
      <point x="246.48737250335853" y="1294.2037711097896"/>
      <point x="229.69310393135873" y="1072.2760923029882" type="curve" smooth="yes"/>
      <point x="213.50577589096707" y="858.36882252895236"/>
      <point x="319.95958963816088" y="733.72791381161392"/>
      <point x="503.35520426350445" y="644.97022030391361" type="curve" smooth="yes"/>
      <point x="612.80271172343646" y="592.00107847271101"/>
      <point x="682.67144185136738" y="508.62090895170581"/>
    </contour>
  </outline>
</glyph>
<glyph name="percent" format="1">
  <advance width="1257.12"/>
  <unicode hex="0025"/>
  <outline>
    <contour>
      <point x="193.21080724739602" y="1099.1293496728174" type="line" smooth="yes"/>
      <point x="184.07978298974578" y="956.88673997642184"/>
      <point x="250.1434433146153" y="802.94530122437448"/>
      <point x="411.73217111164649" y="799.3167413998226" type="curve" smooth="yes"/>
      <point x="579.91766812123456" y="795.54004765489856"/>
      <point x="673.81352941984994" y="948.6453916521408"/>
      <point x="689.2497060906619" y="1099.0499713166723" type="curve" smooth="yes"/>
      <point x="695.86940471381888" y="1175.906504832097" type="line" smooth="yes"/>
      <point x="705.25962956376759" y="1319.3344814427053"/>
      <point x="641.5596065051293" y="1474.4434718760481"/>
      <point x="477.88448812453953" y="1478.1275458561788" type="curve" smooth="yes"/>
      <point x="309.19253859196846" y="1481.9245409528028"/>
      <point x="214.93218772504173" y="1325.9627702226485"/>
      <point x="199.70319172584703" y="1175.49223876823" type="curve" smooth="yes"/>
    </contour>
    <contour>
      <point x="328.45694059274638" y="1176.4830738112266" type="line" smooth="yes"/>
      <point x="337.85161688129421" y="1254.0034980763867"/>
      <point x="378.09288206471683" y="1360.5743949060122"/>
      <point x="472.93089678768081" y="1358.4010358752146" type="curve" smooth="yes"/>
      <point x="564.45256343523101" y="1356.3036760632958"/>
      <point x="573.62470865343994" y="1245.4584604007848"/>
      <point x="568.48857127881797" y="1176.7621064292539" type="curve" smooth="yes"/>
      <point x="560.85344591901003" y="1098.4464381731029" type="line" smooth="yes"/>
      <point x="551.18825478520364" y="1021.3153902362337"/>
      <point x="510.73223041224776" y="916.69530969592824"/>
      <point x="416.70840380230732" y="918.75224293385907" type="curve" smooth="yes"/>
      <point x="325.89607663159626" y="920.73891908719418"/>
      <point x="316.40562227985902" y="1028.8639901098172"/>
      <point x="321.19459450956293" y="1097.4356829815911" type="curve" smooth="yes"/>
    </contour>
    <contour>
      <point x="621.35826240499716" y="279.12645124501898" type="line" smooth="yes"/>
      <point x="612.62027127088004" y="136.61666607614276"/>
      <point x="677.86240092432035" y="-18.382251746752143"/>
      <point x="840.18591315640458" y="-22.111587106841593" type="curve" smooth="yes"/>
      <point x="1008.6858897618132" y="-25.982824934854715"/>
      <point x="1102.3133546492545" y="128.73624419820587"/>
      <point x="1117.6546622920082" y="279.0436715841833" type="curve" smooth="yes"/>
      <point x="1124.3299507190827" y="356.88600252909362" type="line" smooth="yes"/>
      <point x="1133.5207335241105" y="499.20948679953852"/>
      <point x="1068.6372639935853" y="653.74549197395459"/>
      <point x="906.51308300818334" y="657.33809172973088" type="curve" smooth="yes"/>
      <point x="737.79179051642393" y="661.07688054282437"/>
      <point x="642.59959084478703" y="506.60424725908695"/>
      <point x="627.57566240565575" y="355.53264574195424" type="curve" smooth="yes"/>
    </contour>
    <contour>
      <point x="756.95052431724503" y="357.50704100894421" type="line" smooth="yes"/>
      <point x="766.38568590105649" y="435.29117524867996"/>
      <point x="807.38818278835015" y="540.93894060737796"/>
      <point x="902.20689005260215" y="538.66995126929226" type="curve" smooth="yes"/>
      <point x="993.10980735383919" y="536.49466586297922"/>
      <point x="1002.008405050944" y="426.01503210384402"/>
      <point x="996.95518101126095" y="357.85401666327181" type="curve" smooth="yes"/>
      <point x="989.27695428975017" y="278.4086668307977" type="line" smooth="yes"/>
      <point x="979.70615970947483" y="201.11848718244303"/>
      <point x="939.85857997502274" y="95.059792718077361"/>
      <point x="845.23678846058499" y="97.16870217911584" type="curve" smooth="yes"/>
      <point x="754.35351798425279" y="99.194288314085725"/>
      <point x="744.9037378896079" y="208.84502423826365"/>
      <point x="749.61517762924768" y="277.22397568883065" type="curve" smooth="yes"/>
    </contour>
    <contour>
      <point x="1081.0458030565112" y="1241.138928788454" type="line"/>
      <point x="990.36796760742732" y="1312.8304558893151" type="line"/>
      <point x="218.67439008278018" y="184.80951122625623" type="line"/>
      <point x="310.34817591078047" y="113.18461767089664" type="line"/>
    </contour>
  </outline>
</glyph>
<glyph name="ampersand" format="1">
  <advance width="1080.58"/>
  <unicode hex="0026"/>
  <outline>
    <contour>
      <point x="382.86443976946913" y="808.37398251904585" type="line" smooth="yes"/>
      <point x="235.60261199942403" y="697.83216851014231"/>
      <point x="83.660682521493158" y="582.63384579016031"/>
      <point x="67.63846629761133" y="384.45929075602612" type="curve" smooth="yes"/>
      <point x="49.819732832497664" y="164.06408909489167"/>
      <point x="179.35772469929879" y="-14.791525660672924"/>
      <point x="408.35406522049294" y="-20.009502402769716" type="curve" smooth="yes"/>
      <point x="536.5424329904597" y="-22.930439567567461"/>
      <point x="674.67256301493603" y="38.243213462504372"/>
      <point x="754.23895706555948" y="140.06257943789342" type="curve" smooth="yes"/>
      <point x="764.6941051193603" y="153.44180264787724"/>
      <point x="772.42590511848812" y="168.98865783889326"/>
      <point x="783.07346441599714" y="182.23346063021762" type="curve" smooth="yes"/>
      <point x="904.09473909579151" y="332.77527701282986"/>
      <point x="974.4004357331072" y="477.47181349383845"/>
      <point x="995.68674225487064" y="672.36482559287833" type="curve"/>
      <point x="843.84598372039397" y="671.54559122944556" type="line"/>
      <point x="814.48606626457354" y="462.71407898282303"/>
      <point x="680.26230712082736" y="121.3686453040533"/>
      <point x="416.84252195422346" y="130.94776000084477" type="curve" smooth="yes"/>
      <point x="276.13979248224729" y="136.0643368855736"/>
      <point x="228.54036359685566" y="259.16510633124358"/>
      <point x="244.63567808429997" y="383.91518183828759" type="curve" smooth="yes"/>
      <point x="257.61215396963428" y="484.49205144674443"/>
      <point x="326.39601855268893" y="572.31406867179146"/>
      <point x="401.38912635111899" y="635.99350056806452" type="curve" smooth="yes"/>
      <point x="678.81789485551701" y="851.54863941565998" type="line" smooth="yes"/>
      <point x="786.74321671689074" y="935.37100266232312"/>
      <point x="870.31714358471731" y="1034.7795545198385"/>
      <point x="878.91863922386597" y="1176.7010347274108" type="curve" smooth="yes"/>
      <point x="888.66995032227101" y="1337.5940425377532"/>
      <point x="782.79600333089752" y="1472.7155648592484"/>
      <point x="617.27931695897257" y="1476.740910857704" type="curve" smooth="yes"/>
      <point x="406.04867606097338" y="1481.8780147577866"/>
      <point x="288.40145100731883" y="1309.8441430685589"/>
      <point x="273.71449490977517" y="1114.9074618057316" type="curve" smooth="yes"/>
      <point x="261.4923875933045" y="952.68616676765487"/>
      <point x="354.78590885729471" y="813.37100164901892"/>
      <point x="426.96890103102612" y="676.15576917555222" type="curve" smooth="yes"/>
      <point x="770.35575026779554" y="0.0" type="line"/>
      <point x="964.32276597151179" y="0.0" type="line"/>
      <point x="537.51404614598471" y="826.16848718246717" type="line" smooth="yes"/>
      <point x="489.53582312506455" y="916.31234869197772"/>
      <point x="430.65322837066407" y="1015.5806902170535"/>
      <point x="442.57922184467918" y="1122.0928688180668" type="curve" smooth="yes"/>
      <point x="452.33653544503835" y="1209.2363618219799"/>
      <point x="500.98574428745974" y="1327.3331854292344"/>
      <point x="605.25269111599619" y="1326.8314496505559" type="curve" smooth="yes"/>
      <point x="686.958305890053" y="1326.4382797007493"/>
      <point x="722.48315047661526" y="1250.1624603305777"/>
      <point x="715.91512841534291" y="1177.6957699772147" type="curve" smooth="yes"/>
      <point x="707.20838231379923" y="1081.6319827609318"/>
      <point x="654.37682688400548" y="1019.8134484870501"/>
      <point x="581.13932964828189" y="962.85448686437462" type="curve" smooth="yes"/>
    </contour>
  </outline>
</glyph>
<glyph name="parenleft" format="1">
  <advance width="623.71"/>
  <unicode hex="0028"/>
  <outline>
    <contour>
      <point x="123.38861156458648" y="577.16362833528785" type="line" smooth="yes"/>
      <point x="77.088842735608353" y="244.79835954505404"/>
      <point x="103.06091510975864" y="-226.9421577148897"/>
      <point x="376.9345105897774" y="-469.24777084972038" type="curve"/>
      <point x="422.76122214007887" y="-359.24350554695587" type="line"/>
      <point x="222.94194999894705" y="-126.16794310636979"/>
      <point x="256.65878121193407" y="301.94265254811"/>
      <point x="297.19109250467824" y="578.5132726767481" type="curve" smooth="yes"/>
      <point x="299.3499020914436" y="592.84056793525133" type="line" smooth="yes"/>
      <point x="350.85090762125947" y="929.01604568123412"/>
      <point x="457.39471749542571" y="1284.0252822433299"/>
      <point x="716.29662509544175" y="1520.1668203500224" type="curve"/>
      <point x="691.05794435173698" y="1643.9947308899114" type="line"/>
      <point x="346.48587389297933" y="1428.9240423822393"/>
      <point x="181.57791825232238" y="968.40332722460562"/>
      <point x="125.01442239608915" y="588.50901786600787" type="curve" smooth="yes"/>
    </contour>
  </outline>
</glyph>
<glyph name="parenright" format="1">
  <advance width="633.41"/>
  <unicode hex="0029"/>
  <outline>
    <contour>
      <point x="496.74913668091676" y="597.20149698920557" type="line" smooth="yes"/>
      <point x="542.4392100414907" y="928.94382330167491"/>
      <point x="515.93024463349639" y="1400.1749645592565"/>
      <point x="242.97658182017221" y="1642.2357540700041" type="curve"/>
      <point x="196.92266941950368" y="1531.2461190685365" type="line"/>
      <point x="391.39317070649065" y="1298.1371686612297"/>
      <point x="364.28100740643737" y="870.01612500598492"/>
      <point x="323.9928697515187" y="595.4136175551705" type="curve" smooth="yes"/>
      <point x="321.82160043451978" y="581.07679556220501" type="line" smooth="yes"/>
      <point x="269.66170767866737" y="241.65454148382048"/>
      <point x="161.42250811258009" y="-116.94175686389156"/>
      <point x="-97.688092165758334" y="-357.26545696058054" type="curve"/>
      <point x="-72.776992665450436" y="-470.86756515387918" type="line"/>
      <point x="274.80943369021549" y="-262.17855889583757"/>
      <point x="439.61977585877929" y="208.89818506574301"/>
      <point x="495.14598411385691" y="585.84289932534716" type="curve" smooth="yes"/>
    </contour>
  </outline>
</glyph>
<glyph name="plus" format="1">
  <advance width="987.4599999999999"/>
  <unicode hex="002B"/>
  <outline>
    <contour>
      <point x="929.93088715896852" y="780.90525999781016" type="line"/>
      <point x="115.72151241149272" y="780.91390858868726" type="line"/>
      <point x="84.843227807492852" y="607.09316363114351" type="line"/>
      <point x="899.05260255496216" y="607.08451504026561" type="line"/>
    </contour>
    <contour>
      <point x="684.33146581914377" y="1205.9386325539126" type="line"/>
      <point x="511.30715468833148" y="1205.9477729072682" type="line"/>
      <point x="327.11557948399673" y="146.05983196076977" type="line"/>
      <point x="500.13989061481243" y="146.05069160743111" type="line"/>
    </contour>
  </outline>
</glyph>
<glyph name="hyphen" format="1">
  <advance width="492.76"/>
  <unicode hex="002D"/>
  <outline>
    <contour>
      <point x="464.9050293738411" y="694.91367712280169" type="line"/>
      <point x="62.961754540102149" y="694.92204984816885" type="line"/>
      <point x="35.972021772187659" y="543.08628544181056" type="line"/>
      <point x="437.91529660593255" y="543.07791271644544" type="line"/>
    </contour>
  </outline>
</glyph>
<glyph name="period" format="1">
  <advance width="523.8"/>
  <unicode hex="002E"/>
  <outline>
    <contour>
      <point x="52.74102611740524" y="95.16234278522697" type="curve" smooth="yes"/>
      <point x="51.88287171707862" y="30.056449289002956"/>
      <point x="99.46212058092304" y="-14.668517055715169"/>
      <point x="164.04245703655488" y="-13.040811193794813" type="curve" smooth="yes"/>
      <point x="229.1321731295496" y="-11.400266745592885"/>
      <point x="275.49374482499763" y="35.79713887805093"/>
      <point x="276.4729354875661" y="100.80554721838934" type="curve" smooth="yes"/>
      <point x="277.45718940295296" y="166.15010460439828"/>
      <point x="230.80198088667507" y="212.71195907549424"/>
      <point x="165.32740429049608" y="211.04845754585813" type="curve" smooth="yes"/>
      <point x="99.58293947850044" y="209.3780990118215"/>
      <point x="53.60097300551213" y="160.40422756515346"/>
    </contour>
  </outline>
</glyph>
<glyph name="slash" format="1">
  <advance width="737.1999999999999"/>
  <unicode hex="002F"/>
  <outline>
    <contour>
      <point x="823.4612341973666" y="1455.7484284313243" type="line"/>
      <point x="671.5464677470102" y="1455.7723531201518" type="line"/>
      <point x="-98.89454603969469" y="-124.74401131527668" type="line"/>
      <point x="53.98812598844937" y="-124.76813222879822" type="line"/>
    </contour>
  </outline>
</glyph>
<glyph name="zero" format="1">
  <advance width="980.67"/>
  <unicode hex="0030"/>
  <outline>
    <contour>
      <point x="907.8896130272575" y="844.39216020797824" type="line" smooth="yes"/>
      <point x="938.66228362459469" y="1085.9527111773459"/>
      <point x="953.83491705175879" y="1466.8557844091911"/>
      <point x="624.67010203077223" y="1476.3963171649493" type="curve" smooth="yes"/>
      <point x="281.92050911038609" y="1486.3305919387317"/>
      <point x="190.16199490571026" y="1116.3659853436689"/>
      <point x="151.15114669416096" y="843.70022534041573" type="curve" smooth="yes"/>
      <point x="118.20873017932716" y="621.62367398734045" type="line" smooth="yes"/>
      <point x="87.370326552438343" y="383.2877260440664"/>
      <point x="70.897232953777291" y="-10.688910880556286"/>
      <point x="400.3234651062815" y="-20.447684432719047" type="curve" smooth="yes"/>
      <point x="745.27558821023717" y="-30.666389949014665"/>
      <point x="834.7363419710083" y="351.255376193936"/>
      <point x="874.79366268970784" y="622.60186826444237" type="curve" smooth="yes"/>
    </contour>
    <contour>
      <point x="698.92851685287792" y="591.56895722588774" type="line" smooth="yes"/>
      <point x="677.06288939575506" y="435.22866870274436"/>
      <point x="632.55052974071236" y="118.91716610194393"/>
      <point x="411.67100874080995" y="130.64107050436755" type="curve" smooth="yes"/>
      <point x="217.75685674717263" y="140.9336995808832"/>
      <point x="271.30413781141311" y="473.78558669894062"/>
      <point x="286.2887729124983" y="591.06202111342691" type="curve" smooth="yes"/>
      <point x="328.10548147778786" y="875.48940141383514" type="line" smooth="yes"/>
      <point x="349.62599840381296" y="1032.5561809230587"/>
      <point x="393.99136218164699" y="1337.7853009272369"/>
      <point x="613.40233143577132" y="1326.4443624726837" type="curve" smooth="yes"/>
      <point x="809.57205022520486" y="1316.3047203435735"/>
      <point x="756.47742875893323" y="997.64795189965992"/>
      <point x="741.03430886449735" y="876.32393038833402" type="curve" smooth="yes"/>
    </contour>
  </outline>
</glyph>
<glyph name="one" format="1">
  <advance width="980.67"/>
  <unicode hex="0031"/>
  <outline>
    <contour>
      <point x="769.95778910811373" y="1463.8408659292995" type="line"/>
      <point x="739.663572005829" y="1463.5207302793488" type="line"/>
      <point x="271.76521130379422" y="1268.6588401568392" type="line"/>
      <point x="240.46376786456062" y="1092.3318957137647" type="line"/>
      <point x="561.71639680223541" y="1227.4067685453006" type="line"/>
      <point x="348.38445205086447" y="0.0" type="line"/>
      <point x="521.40461894592681" y="0.0" type="line"/>
    </contour>
  </outline>
</glyph>
<glyph name="two" format="1">
  <advance width="980.67"/>
  <unicode hex="0032"/>
  <outline>
    <contour>
      <point x="834.28214451324482" y="151.92898498306806" type="line"/>
      <point x="256.00980399063047" y="152.32455183620846" type="line"/>
      <point x="635.7694669045967" y="574.88105444377084" type="line" smooth="yes"/>
      <point x="764.83498485299879" y="718.74095854116422"/>
      <point x="907.09378488955235" y="893.83571229719348"/>
      <point x="925.10923318346681" y="1094.2735242794561" type="curve" smooth="yes"/>
      <point x="943.90568814207245" y="1303.4007268591845"/>
      <point x="827.49607311127477" y="1471.6844385063835"/>
      <point x="608.95889202155911" y="1476.464853888903" type="curve" smooth="yes"/>
      <point x="345.21768682441717" y="1482.2340896228034"/>
      <point x="186.77728112506486" y="1272.9865277357376"/>
      <point x="163.2889581756167" y="1027.7972260958777" type="curve"/>
      <point x="334.1774510724224" y="1028.532577038379" type="line"/>
      <point x="353.86920451989982" y="1176.3280364471436"/>
      <point x="425.6474667511809" y="1332.3481890323465"/>
      <point x="599.37252544562693" y="1325.4231498932959" type="curve" smooth="yes"/>
      <point x="730.1530090456713" y="1320.2099700886072"/>
      <point x="759.9967794886195" y="1179.7691812480698"/>
      <point x="747.48668572407144" y="1072.7262312315759" type="curve" smooth="yes"/>
      <point x="728.93044329744998" y="913.94924938386657"/>
      <point x="605.51724345318144" y="780.14440759946456"/>
      <point x="505.57986611298566" y="664.84062808368049" type="curve" smooth="yes"/>
      <point x="41.347668310383852" y="141.3647948709154" type="line"/>
      <point x="19.208247289078457" y="0.0" type="line"/>
      <point x="809.9610702682246" y="0.0" type="line"/>
    </contour>
  </outline>
</glyph>
<glyph name="three" format="1">
  <advance width="980.67"/>
  <unicode hex="0033"/>
  <outline>
    <contour>
      <point x="367.71684037244762" y="818.49504344976867" type="line"/>
      <point x="349.66153547969463" y="706.63688372242927" type="line"/>
      <point x="496.9724257655696" y="705.67597264996243" type="line" smooth="yes"/>
      <point x="709.60568122152677" y="707.43971723332209"/>
      <point x="892.27932991619571" y="851.87234346638888"/>
      <point x="908.98384965552702" y="1070.9232601728274" type="curve" smooth="yes"/>
      <point x="925.30272346698541" y="1284.9170967989703"/>
      <point x="823.42846329530391" y="1472.1054557546158"/>
      <point x="591.94529394017695" y="1476.7270145245022" type="curve" smooth="yes"/>
      <point x="358.89915625497702" y="1481.3797779388258"/>
      <point x="201.9797586488929" y="1294.8240854739652"/>
      <point x="180.74474236545802" y="1074.945429397399" type="curve"/>
      <point x="350.76189276033341" y="1075.8597207111254" type="line"/>
      <point x="369.57896775214726" y="1200.5823665241053"/>
      <point x="437.00588169997354" y="1329.4034422408606"/>
      <point x="581.1838533781048" y="1326.4346699265923" type="curve" smooth="yes"/>
      <point x="720.94832141529344" y="1323.5567761790401"/>
      <point x="745.01684718195281" y="1191.041803953332"/>
      <point x="733.81003644615146" y="1075.5956757314243" type="curve" smooth="yes"/>
      <point x="719.44538274613672" y="927.61926281517515"/>
      <point x="623.54110752957126" y="819.12389979852696"/>
      <point x="470.51252450471054" y="817.27444782233295" type="curve" smooth="yes"/>
    </contour>
    <contour>
      <point x="343.2620243101378" y="667.11903192153977" type="line"/>
      <point x="464.7592266763063" y="665.93897272670085" type="line" smooth="yes"/>
      <point x="614.08227468188932" y="660.23937838113829"/>
      <point x="661.00700704513213" y="546.20185329759511"/>
      <point x="648.12635403130002" y="409.65953143818115" type="curve" smooth="yes"/>
      <point x="634.87824912818735" y="269.22200845192015"/>
      <point x="559.39088023718955" y="126.81902837288308"/>
      <point x="400.14704192622321" y="131.88096980260556" type="curve" smooth="yes"/>
      <point x="259.09877268717986" y="136.36452210343325"/>
      <point x="225.3140237931043" y="266.10965240717837"/>
      <point x="232.77554039317369" y="385.10698061192954" type="curve"/>
      <point x="60.228086986173452" y="385.43665082572238" type="line"/>
      <point x="48.747662453494776" y="170.38377692012472"/>
      <point x="158.49670794586598" y="-14.957813247461337"/>
      <point x="390.09703075655091" y="-20.243188214686171" type="curve" smooth="yes"/>
      <point x="641.47124185350015" y="-25.979825135627504"/>
      <point x="799.8467113442174" y="176.71597945232674"/>
      <point x="818.94924064662302" y="412.76730879321525" type="curve" smooth="yes"/>
      <point x="837.27199221052899" y="639.18286850122661"/>
      <point x="713.23348267012454" y="770.35297103442929"/>
      <point x="486.08372122876642" y="776.74212255041186" type="curve" smooth="yes"/>
      <point x="361.32097854268096" y="777.8016885431955" type="line"/>
    </contour>
  </outline>
</glyph>
<glyph name="four" format="1">
  <advance width="980.67"/>
  <unicode hex="0034"/>
  <outline>
    <contour>
      <point x="903.7117248363608" y="489.91750228578024" type="line"/>
      <point x="236.1035944871636" y="490.2911436554069" type="line"/>
      <point x="683.1591394634697" y="1158.8072400312617" type="line"/>
      <point x="875.3802480405175" y="1455.6566245611368" type="line"/>
      <point x="725.9636429334241" y="1455.6754389525593" type="line"/>
      <point x="33.03929723839856" y="457.2565709929858" type="line"/>
      <point x="12.268479217235068" y="338.1810015855165" type="line"/>
      <point x="876.7343130743994" y="338.07771475362426" type="line"/>
    </contour>
    <contour>
      <point x="913.8817889349823" y="1455.936761588818" type="line"/>
      <point x="740.8598881125223" y="1455.9448109222137" type="line"/>
      <point x="488.06487355025035" y="0.0" type="line"/>
      <point x="661.0867743727113" y="0.0" type="line"/>
    </contour>
  </outline>
</glyph>
<glyph name="five" format="1">
  <advance width="980.67"/>
  <unicode hex="0035"/>
  <outline>
    <contour>
      <point x="344.67584688436716" y="694.73737132774352" type="line"/>
      <point x="400.65526298893292" y="748.24266524749487"/>
      <point x="452.60042098505471" y="787.53081044986561"/>
      <point x="533.91059145755582" y="785.37078079902551" type="curve" smooth="yes"/>
      <point x="693.28565676645792" y="781.13693324131782"/>
      <point x="715.75642154204149" y="593.12853252831951"/>
      <point x="704.13450641566703" y="469.80852940507577" type="curve" smooth="yes"/>
      <point x="690.50026116758102" y="325.13571530394904"/>
      <point x="621.22169946801546" y="127.38225409838968"/>
      <point x="444.31115186161298" y="132.21157750489343" type="curve" smooth="yes"/>
      <point x="306.25629430228042" y="135.98021405038733"/>
      <point x="272.20105135757001" y="268.39739012634448"/>
      <point x="268.27784186142941" y="383.71631553913727" type="curve"/>
      <point x="106.29956194267223" y="383.97252912479109" type="line"/>
      <point x="109.85094504383569" y="178.87072487522991"/>
      <point x="205.67730036362906" y="-15.630841502138036"/>
      <point x="433.64136718371924" y="-21.355324139767568" type="curve" smooth="yes"/>
      <point x="711.83515688612295" y="-28.341142305156716"/>
      <point x="856.23301806578581" y="222.16911226767701"/>
      <point x="877.96667218640562" y="470.74901644615653" type="curve" smooth="yes"/>
      <point x="895.83533390871514" y="675.12285041249459"/>
      <point x="839.69493440569977" y="949.25140190389288"/>
      <point x="585.2179073718022" y="951.00256213615262" type="curve" smooth="yes"/>
      <point x="515.42765858999962" y="951.48281730767314"/>
      <point x="452.36315199836019" y="926.98592142746622"/>
      <point x="395.27298713829083" y="888.43584653438984" type="curve"/>
      <point x="498.13754007212447" y="1284.878211302165" type="line"/>
      <point x="966.92169891874676" y="1285.0679130347596" type="line"/>
      <point x="994.2718619647834" y="1455.9299650087992" type="line"/>
      <point x="376.94170468925392" y="1455.9038726540375" type="line"/>
      <point x="203.30568747047386" y="734.11631263913648" type="line"/>
    </contour>
  </outline>
</glyph>
<glyph name="six" format="1">
  <advance width="980.67"/>
  <unicode hex="0036"/>
  <outline>
    <contour>
      <point x="823.49288431557068" y="1459.1907245956172" type="line" smooth="yes"/>
      <point x="343.53392893155592" y="1458.4047356085994"/>
      <point x="189.25038666287557" y="1033.7933360078675"/>
      <point x="131.61441571099672" y="625.75585262594484" type="curve" smooth="yes"/>
      <point x="119.83206898085186" y="538.78113745778239" type="line" smooth="yes"/>
      <point x="93.093885380925258" y="316.96558589572987"/>
      <point x="148.09824796581364" y="-12.716681889220979"/>
      <point x="429.71761947776326" y="-20.471250326226489" type="curve" smooth="yes"/>
      <point x="705.65928127139182" y="-28.069479416475435"/>
      <point x="841.60353188582894" y="241.59663637921895"/>
      <point x="864.18027888657082" y="481.45948994940943" type="curve" smooth="yes"/>
      <point x="883.18632726792407" y="683.3860562388179"/>
      <point x="827.79053697014865" y="946.94759933367868"/>
      <point x="580.71685690496793" y="955.27523570694393" type="curve" smooth="yes"/>
      <point x="343.34615638136484" y="963.27583244839502"/>
      <point x="235.97283098057267" y="734.72296543524658"/>
      <point x="190.14617263147818" y="536.8506616250221" type="curve"/>
      <point x="278.35848606387884" y="536.25236107506066" type="line"/>
      <point x="309.54224351882522" y="656.47925845851819"/>
      <point x="400.65624206824936" y="808.28687490298955"/>
      <point x="544.02069229167932" y="803.45368576574845" type="curve" smooth="yes"/>
      <point x="698.20136640460885" y="798.25585354071802"/>
      <point x="702.76897608687682" y="583.36592758471329"/>
      <point x="692.13672667165974" y="473.1288259888799" type="curve" smooth="yes"/>
      <point x="678.93706025246297" y="336.27227651765139"/>
      <point x="613.45321908617029" y="124.64513362126648"/>
      <point x="439.92933981955923" y="132.36037286021775" type="curve" smooth="yes"/>
      <point x="271.82808375726609" y="139.83451078503967"/>
      <point x="282.19601007657485" y="424.61339746520156"/>
      <point x="294.18948291799035" y="532.02495437196194" type="curve" smooth="yes"/>
      <point x="323.92701981507986" y="747.0500810567396" type="line" smooth="yes"/>
      <point x="364.84991243897662" y="1024.712498188557"/>
      <point x="493.11562407534615" y="1306.0550108588357"/>
      <point x="815.5970542530855" y="1302.252801767808" type="curve" smooth="yes"/>
      <point x="825.67315731006249" y="1301.8576783002309" type="line"/>
      <point x="841.06670145500459" y="1459.0175559319182" type="line"/>
    </contour>
  </outline>
</glyph>
<glyph name="seven" format="1">
  <advance width="980.67"/>
  <unicode hex="0037"/>
  <outline>
    <contour>
      <point x="1028.0267909750492" y="1455.8642783610676" type="line"/>
      <point x="216.91316631325509" y="1455.9368504651709" type="line"/>
      <point x="192.59004278208852" y="1304.068272722614" type="line"/>
      <point x="818.95997815524277" y="1303.7664687678846" type="line"/>
      <point x="128.82028439912932" y="0.0" type="line"/>
      <point x="317.80472651910452" y="0.0" type="line"/>
      <point x="1010.200622458695" y="1342.1821696415052" type="line"/>
    </contour>
  </outline>
</glyph>
<glyph name="eight" format="1">
  <advance width="980.67"/>
  <unicode hex="0038"/>
  <outline>
    <contour>
      <point x="830.32256157812208" y="402.71574102481833" type="curve" smooth="yes"/>
      <point x="845.85887895185601" y="609.55993101971762"/>
      <point x="720.92632332744824" y="788.21186113729334"/>
      <point x="504.18069779751352" y="793.57701201990847" type="curve" smooth="yes"/>
      <point x="269.96905563599364" y="799.37450295237511"/>
      <point x="95.27843053529881" y="612.20862458331339"/>
      <point x="77.535867792559046" y="385.72032270691352" type="curve" smooth="yes"/>
      <point x="60.748745108924496" y="171.42845488962257"/>
      <point x="172.11118888010043" y="-14.748877593689999"/>
      <point x="401.06340172120497" y="-20.603884569761924" type="curve" smooth="yes"/>
      <point x="648.05156744389694" y="-26.920125917108901"/>
      <point x="812.63187690506652" y="167.18918388588432"/>
    </contour>
    <contour>
      <point x="660.6466911620704" y="406.52493424115897" type="curve" smooth="yes"/>
      <point x="647.35227145498948" y="267.6729051442245"/>
      <point x="569.05876169899273" y="126.63693845138853"/>
      <point x="412.49154331859222" y="130.66366265116133" type="curve" smooth="yes"/>
      <point x="269.99905337493033" y="134.32840143541921"/>
      <point x="239.4354712791918" y="270.32250068417028"/>
      <point x="251.20612241920702" y="389.52964781940591" type="curve" smooth="yes"/>
      <point x="264.4095947076313" y="523.2476762495786"/>
      <point x="342.84856430989623" y="679.57442785650028"/>
      <point x="497.77188944421539" y="675.34457358284044" type="curve" smooth="yes"/>
      <point x="637.9862677594972" y="671.51631604427268"/>
      <point x="671.62661848501853" y="521.20351530898688"/>
    </contour>
    <contour>
      <point x="924.95401506754365" y="1085.3365514322693" type="curve" smooth="yes"/>
      <point x="940.33468635873805" y="1287.2189455151606"/>
      <point x="843.333165387127" y="1471.0970459546159"/>
      <point x="623.74012600827564" y="1476.6908868687813" type="curve" smooth="yes"/>
      <point x="387.340436000414" y="1482.7128548774328"/>
      <point x="239.85969960428844" y="1290.2316355302103"/>
      <point x="224.39217546276808" y="1068.2032545071313" type="curve" smooth="yes"/>
      <point x="210.99775295652088" y="875.93318487019246"/>
      <point x="326.28256714366557" y="707.14742883468557"/>
      <point x="528.73381067894911" y="702.27382611271673" type="curve" smooth="yes"/>
      <point x="745.41274375264561" y="697.05772064662597"/>
      <point x="909.0694826518594" y="876.84061700569134"/>
    </contour>
    <contour>
      <point x="750.41739776210295" y="1082.3095102089526" type="curve" smooth="yes"/>
      <point x="739.29467526058147" y="964.83010852800271"/>
      <point x="672.87352116101238" y="820.11002012376184"/>
      <point x="534.80769562388048" y="823.56919333080577" type="curve" smooth="yes"/>
      <point x="408.914210929631" y="826.72339436137599"/>
      <point x="385.57544544273651" y="965.16103231437262"/>
      <point x="395.11058747361801" y="1065.7017500666122" type="curve" smooth="yes"/>
      <point x="406.28908281995268" y="1183.5703609242794"/>
      <point x="472.7969742762217" y="1329.3176404823855"/>
      <point x="611.69320994884083" y="1325.3496673200891" type="curve" smooth="yes"/>
      <point x="735.47393735944559" y="1321.8135124200205"/>
      <point x="759.73180093776068" y="1180.6892469992688"/>
    </contour>
  </outline>
</glyph>
<glyph name="nine" format="1">
  <advance width="980.67"/>
  <unicode hex="0039"/>
  <outline>
    <contour>
      <point x="194.56287855505025" y="154.14732988401835" type="line"/>
      <point x="181.83803103166861" y="-3.8191530670662441" type="line"/>
      <point x="199.20331576116712" y="-3.8784981115411226" type="line" smooth="yes"/>
      <point x="682.43062134228876" y="-0.51628648041433678"/>
      <point x="829.6921838695074" y="407.52625413636633"/>
      <point x="886.85835564894808" y="820.22268606432306" type="curve" smooth="yes"/>
      <point x="895.77946933079568" y="887.21780456081444" type="line" smooth="yes"/>
      <point x="923.86458743321271" y="1115.8421532120294"/>
      <point x="892.20223535047467" y="1468.6666548903229"/>
      <point x="592.04022431996407" y="1476.2868115528063" type="curve" smooth="yes"/>
      <point x="314.4519773318392" y="1483.3338923024705"/>
      <point x="182.34915295626232" y="1205.5854247395982"/>
      <point x="159.49272840052026" y="966.46240764394054" type="curve" smooth="yes"/>
      <point x="140.55328106121715" y="768.31865253239414"/>
      <point x="191.49215572434824" y="491.82887347171828"/>
      <point x="439.57266187893379" y="486.09971364077671" type="curve" smooth="yes"/>
      <point x="671.71902194799895" y="480.73853624871583"/>
      <point x="810.45333344089624" y="743.29329012811127"/>
      <point x="834.13013537573272" y="942.04343404378108" type="curve"/>
      <point x="754.94429902201932" y="941.04237689875924" type="line"/>
      <point x="724.9663344422338" y="817.51561477877794"/>
      <point x="629.34262730446881" y="634.25874410942492"/>
      <point x="477.70781632468959" y="639.70201433406999" type="curve" smooth="yes"/>
      <point x="322.94965385485796" y="645.25740423662444"/>
      <point x="319.35778948237794" y="865.92318742561463"/>
      <point x="329.94911411829696" y="975.79243853350533" type="curve" smooth="yes"/>
      <point x="343.00961126342366" y="1111.275684469088"/>
      <point x="408.0618854229557" y="1331.6743282908208"/>
      <point x="581.89947720369878" y="1323.9528427466194" type="curve" smooth="yes"/>
      <point x="751.30671589762494" y="1316.4281437948066"/>
      <point x="737.88288352171037" y="1019.0835103354408"/>
      <point x="725.99197530028187" y="912.81810229892892" type="curve" smooth="yes"/>
      <point x="695.16149857514336" y="688.91763580577572" type="line" smooth="yes"/>
      <point x="653.99263052699177" y="403.80742632215203"/>
      <point x="533.40839712310992" y="149.00326034366438"/>
      <point x="205.87073127866404" y="153.68606690592642" type="curve" smooth="yes"/>
    </contour>
  </outline>
</glyph>
<glyph name="less" format="1">
  <advance width="885.61"/>
  <unicode hex="003C"/>
  <outline>
    <contour>
      <point x="197.32848474820474" y="671.61787809824216" type="line"/>
      <point x="91.848878084766298" y="688.17821162387804" type="line"/>
      <point x="72.451326398598823" y="580.73487034917014" type="line"/>
      <point x="671.71932223944657" y="201.3199071860295" type="line"/>
      <point x="704.53788292977765" y="386.71353473045087" type="line"/>
    </contour>
    <contour>
      <point x="792.21943756360997" y="896.79486944536052" type="line"/>
      <point x="828.93162641613446" y="1103.5259756498151" type="line"/>
      <point x="98.087669028846236" y="725.74851673627552" type="line"/>
      <point x="76.364260216498266" y="602.83194246934431" type="line"/>
      <point x="208.37074274830962" y="618.0665390382394" type="line"/>
    </contour>
  </outline>
</glyph>
<glyph name="equal" format="1">
  <advance width="951.5699999999999"/>
  <unicode hex="003D"/>
  <outline>
    <contour>
      <point x="889.79479302645268" y="974.90772247509483" type="line"/>
      <point x="209.44775875630029" y="974.91643772050975" type="line"/>
      <point x="180.87198739463378" y="814.09224832770042" type="line"/>
      <point x="861.21902166478571" y="814.08353308228345" type="line"/>
    </contour>
    <contour>
      <point x="817.89544938055997" y="559.90772924808016" type="line"/>
      <point x="137.54841511039092" y="559.91644449349224" type="line"/>
      <point x="108.97264374871718" y="399.09225510067154" type="line"/>
      <point x="789.31967801888197" y="399.08353985523047" type="line"/>
    </contour>
  </outline>
</glyph>
<glyph name="greater" format="1">
  <advance width="914.7099999999999"/>
  <unicode hex="003E"/>
  <outline>
    <contour>
      <point x="713.43468646358178" y="632.49267305303499" type="line"/>
      <point x="833.17659489247217" y="607.33270590085704" type="line"/>
      <point x="852.88218676205372" y="716.51479643796972" type="line"/>
      <point x="217.53724771503153" y="1094.8804106744326" type="line"/>
      <point x="185.54068081501521" y="914.11889976597365" type="line"/>
    </contour>
    <contour>
      <point x="95.922906001759728" y="393.01972731393107" type="line"/>
      <point x="60.070104659539751" y="191.4481829310715" type="line"/>
      <point x="826.9338246161999" y="570.6260112603884" type="line"/>
      <point x="848.87545633439777" y="693.63479611714138" type="line"/>
      <point x="701.95375222209498" y="671.06650588187676" type="line"/>
    </contour>
  </outline>
</glyph>
<glyph name="question" format="1">
  <advance width="839.05"/>
  <unicode hex="003F"/>
  <outline>
    <contour>
      <point x="448.21284664033101" y="410.01382267668299" type="line"/>
      <point x="463.15170102575303" y="505.92637564545583"/>
      <point x="492.65869898246689" y="593.00657220868288"/>
      <point x="563.01743236047082" y="662.80005768133378" type="curve" smooth="yes"/>
      <point x="688.9490964724904" y="787.72001214567513"/>
      <point x="822.79983605279722" y="917.14483635459146"/>
      <point x="839.8422691125013" y="1104.4461286108756" type="curve" smooth="yes"/>
      <point x="857.68317183149577" y="1300.5228344767431"/>
      <point x="765.90373885110387" y="1471.7426164436631"/>
      <point x="553.72274552506587" y="1476.8278110542312" type="curve" smooth="yes"/>
      <point x="336.51945723269944" y="1482.0333715227168"/>
      <point x="194.12647019071466" y="1320.6511746095671"/>
      <point x="170.20077645474419" y="1115.1711252816967" type="curve"/>
      <point x="341.82622511270091" y="1116.2537800011644" type="line"/>
      <point x="361.54497421052571" y="1218.7913460205914"/>
      <point x="423.6563414132338" y="1320.0806069579826"/>
      <point x="541.39872741877537" y="1316.8086654323577" type="curve" smooth="yes"/>
      <point x="657.27357029966947" y="1313.5886210366255"/>
      <point x="674.47578587194175" y="1193.2739398961073"/>
      <point x="663.0561606567785" y="1100.3680950644828" type="curve" smooth="yes"/>
      <point x="647.23893856726488" y="971.68502942722728"/>
      <point x="559.01475399397407" y="885.34337812184526"/>
      <point x="473.72790693716092" y="795.98082889480588" type="curve" smooth="yes"/>
      <point x="359.60855097524893" y="676.40791798497855"/>
      <point x="298.01340199625508" y="575.65232448847496"/>
      <point x="279.39099931296795" y="409.12138624731006" type="curve"/>
    </contour>
    <contour>
      <point x="212.54399369491949" y="91.279149834722972" type="curve" smooth="yes"/>
      <point x="210.51871452796968" y="33.424603127519411"/>
      <point x="247.70838392834114" y="-14.934927524170138"/>
      <point x="308.29864583840026" y="-13.32284565074263" type="curve" smooth="yes"/>
      <point x="368.32117223337781" y="-11.725869111141252"/>
      <point x="406.12891008094687" y="36.931634698891152"/>
      <point x="408.34212253616045" y="94.330057733457181" type="curve" smooth="yes"/>
      <point x="410.61164507292978" y="153.18885113356728"/>
      <point x="373.91704447913935" y="202.77728841740759"/>
      <point x="311.8581008262496" y="201.00097465537513" type="curve" smooth="yes"/>
      <point x="251.34552579380471" y="199.26892261776123"/>
      <point x="214.55304385183146" y="148.67009525941219"/>
    </contour>
  </outline>
</glyph>
<glyph name="at" format="1">
  <advance width="1527.75"/>
  <unicode hex="0040"/>
  <outline>
    <contour>
      <point x="1417.6243268812889" y="507.91070588364209" type="curve" smooth="yes"/>
      <point x="1480.9369182589758" y="890.00173933574774"/>
      <point x="1426.076264038333" y="1422.2996646815864"/>
      <point x="933.38670562265884" y="1431.2060817359006" type="curve" smooth="yes"/>
      <point x="436.3232451231197" y="1440.1915664210348"/>
      <point x="161.3144283013678" y="893.64681793632462"/>
      <point x="88.808542719626544" y="472.63655907858004" type="curve" smooth="yes"/>
      <point x="22.627694919039271" y="88.353053810053552"/>
      <point x="79.846105967445226" y="-446.0320534976932"/>
      <point x="576.11495710115719" y="-452.69412204397355" type="curve" smooth="yes"/>
      <point x="683.52271997368871" y="-454.13599750527794"/>
      <point x="799.67965541525029" y="-429.36233632648845"/>
      <point x="888.21412645017358" y="-366.41495385300084" type="curve"/>
      <point x="864.34532398713827" y="-250.3923261266479" type="line"/>
      <point x="776.74227186840471" y="-298.69898667755115"/>
      <point x="678.66754628549825" y="-328.3914887003944"/>
      <point x="577.94264768378241" y="-327.15903535766233" type="curve" smooth="yes"/>
      <point x="160.64465134868675" y="-322.05304550174571"/>
      <point x="170.25492050168259" y="174.33084376412904"/>
      <point x="223.38497945773486" y="472.41077770891235" type="curve" smooth="yes"/>
      <point x="286.81104317160083" y="828.25523287590829"/>
      <point x="500.36980119602322" y="1309.6515593676602"/>
      <point x="929.75818221199916" y="1300.4113860497755" type="curve" smooth="yes"/>
      <point x="1360.776052827699" y="1291.1361471199953"/>
      <point x="1351.8788985193494" y="828.03692399739612"/>
      <point x="1299.5327432391123" y="507.95872128221527" type="curve" smooth="yes"/>
      <point x="1278.1872131727389" y="377.43836380665721"/>
      <point x="1213.2025304042902" y="86.566088288129691"/>
      <point x="1030.709459235153" y="95.80648029399751" type="curve" smooth="yes"/>
      <point x="928.97501191301035" y="100.95772339454044"/>
      <point x="964.76969191369096" y="269.87463879069043"/>
      <point x="974.83694602230844" y="328.47316607258512" type="curve"/>
      <point x="1107.7465099680792" y="883.88830667817206" type="line"/>
      <point x="969.64116990014327" y="883.89711553198538" type="line"/>
      <point x="836.43310229740939" y="329.45004404106731" type="line"/>
      <point x="811.17114827261707" y="188.72038791551225"/>
      <point x="819.04458315963234" y="-16.695225685042328"/>
      <point x="1005.7828599022266" y="-22.095592677528725" type="curve" smooth="yes"/>
      <point x="1272.1444294650735" y="-29.798620966243583"/>
      <point x="1382.349447212649" y="295.02706087397962"/>
    </contour>
    <contour>
      <point x="584.8684120233562" y="409.88925925590399" type="curve" smooth="yes"/>
      <point x="609.10019756582392" y="555.41088104116398"/>
      <point x="676.55233213725637" y="870.78438833136147"/>
      <point x="880.36775148684944" y="862.56859854464528" type="curve" smooth="yes"/>
      <point x="940.92772098969749" y="860.12742907614734"/>
      <point x="985.13345478063877" y="830.03901641931839"/>
      <point x="1021.8640480332458" y="784.20293845698507" type="curve"/>
      <point x="1105.0646646760692" y="879.92737692271419" type="line"/>
      <point x="1034.4813995839231" y="945.72328886683567"/>
      <point x="965.44110577799086" y="988.48107674438643"/>
      <point x="865.86928687531281" y="990.8167672864771" type="curve" smooth="yes"/>
      <point x="598.87064781729464" y="997.07984656806013"/>
      <point x="468.64648802012891" y="616.54629682236703"/>
      <point x="433.62468214029855" y="410.72463173167665" type="curve" smooth="yes"/>
      <point x="409.36499994589298" y="268.15151026111369"/>
      <point x="390.95542916779601" y="-16.398526835677316"/>
      <point x="601.26777129120728" y="-22.736155976947888" type="curve" smooth="yes"/>
      <point x="769.57959123311673" y="-27.808126000743222"/>
      <point x="862.04411935776011" y="180.91498235828314"/>
      <point x="908.83418875493328" y="310.25709563642067" type="curve"/>
      <point x="857.66144062501337" y="382.09781827413838" type="line"/>
      <point x="829.13438748513977" y="302.30354444445163"/>
      <point x="770.42117052104356" y="114.57658013551821"/>
      <point x="655.77467939212102" y="119.67718014450864" type="curve" smooth="yes"/>
      <point x="534.41985023993539" y="125.07623280254951"/>
      <point x="573.1744716437438" y="339.66244224652718"/>
    </contour>
  </outline>
</glyph>
<glyph name="A" format="1">
  <advance width="1145.57"/>
  <unicode hex="0041"/>
  <outline>
    <contour>
      <point x="749.13484557988011" y="1601" type="move" name="top"/>
    </contour>
    <contour>
      <point x="482.21076189018174" y="0" type="move" name="bottom"/>
    </contour>
    <contour>
      <point x="998.25076189018182" y="0" type="move" name="right"/>
    </contour>
    <contour>
      <point x="473.47588224297465" y="1454" type="move" name="tonos"/>
    </contour>
    <contour>
      <point x="965.2707618901818" y="0" type="move" name="ogonek"/>
    </contour>
    <contour>
      <point x="1298.952063516364" y="1600" type="move" name="top_dd"/>
    </contour>
    <contour>
      <point x="952.17846203902172" y="-407" type="move" name="bottom_dd"/>
    </contour>
    <contour>
      <point x="1299.1248455798802" y="1601" type="move" name="top0315"/>
    </contour>
    <contour>
      <point x="735.4097708832802" y="1316.9095717327752" type="line"/>
      <point x="760.81951215903007" y="1455.899956697137" type="line"/>
      <point x="641.53007204756364" y="1455.7485666687289" type="line"/>
      <point x="-66.471158658260947" y="0.0" type="line"/>
      <point x="124.12617368813214" y="0.0" type="line"/>
    </contour>
    <contour>
      <point x="821.33743327335412" y="0.0" type="line"/>
      <point x="998.20665712358414" y="0.0" type="line"/>
      <point x="795.77111792303106" y="1456.0110680856926" type="line"/>
      <point x="682.90976118171523" y="1455.9347636254254" type="line"/>
      <point x="663.70546159189371" y="1338.3891075683473" type="line"/>
    </contour>
    <contour>
      <point x="913.18419875888299" y="538.90994713604994" type="line"/>
      <point x="230.91169465914925" y="538.91870614513834" type="line"/>
      <point x="202.86978981620638" y="381.09140890557484" type="line"/>
      <point x="885.14229391593244" y="381.08264989645755" type="line"/>
    </contour>
  </outline>
</glyph>
<glyph name="B" format="1">
  <advance width="1084.46"/>
  <unicode hex="0042"/>
  <outline>
    <contour>
      <point x="694.77544827856013" y="1612" type="move" name="top"/>
    </contour>
    <contour>
      <point x="425.73858252534535" y="10" type="move" name="bottom"/>
    </contour>
    <contour>
      <point x="1237.8420635163639" y="1600" type="move" name="top_dd"/>
    </contour>
    <contour>
      <point x="891.0684620390216" y="-407" type="move" name="bottom_dd"/>
    </contour>
    <contour>
      <point x="1239.91544827856" y="1612" type="move" name="top0315"/>
    </contour>
    <contour>
      <point x="605.33400088166297" y="680.87614344923156" type="line"/>
      <point x="666.96070490920374" y="726.69134393989646" type="line"/>
      <point x="853.22553332221037" y="756.11694425672943"/>
      <point x="1010.4645398793991" y="878.0383900933449"/>
      <point x="1026.1427187905465" y="1076.0373914382883" type="curve" smooth="yes"/>
      <point x="1044.4784372556937" y="1307.5983377456371"/>
      <point x="924.74192854104103" y="1448.8645646305606"/>
      <point x="692.37143868763667" y="1454.8806381177922" type="curve" smooth="yes"/>
      <point x="300.38939794590209" y="1455.983122022961" type="line"/>
      <point x="47.68469446199164" y="0.0" type="line"/>
      <point x="227.49359524665425" y="0.0" type="line"/>
      <point x="452.810782046643" y="1298.0998143834042" type="line"/>
      <point x="688.11650154876941" y="1297.0120862467732" type="line" smooth="yes"/>
      <point x="822.19652108870264" y="1292.0865663290422"/>
      <point x="859.69173289563491" y="1203.7851402467379"/>
      <point x="844.41246035577592" y="1078.7586114727337" type="curve" smooth="yes"/>
      <point x="827.50373125637429" y="940.3986404882977"/>
      <point x="731.82906634088386" y="836.1098312471587"/>
      <point x="588.63846482206259" y="834.34875008737038" type="curve" smooth="yes"/>
      <point x="331.78194264208463" y="835.96907913479163" type="line"/>
      <point x="306.47492093301764" y="681.08728232389763" type="line"/>
    </contour>
    <contour>
      <point x="481.30527020615602" y="0.0" type="line" smooth="yes"/>
      <point x="741.49252032030813" y="-3.3772138720509641"/>
      <point x="917.34801225601996" y="170.91529354097457"/>
      <point x="937.44923843982906" y="427.85655028634471" type="curve" smooth="yes"/>
      <point x="949.74544159334584" y="585.03113568580545"/>
      <point x="894.24874050643007" y="747.50410491936202"/>
      <point x="723.69883121763121" y="778.55512517370914" type="curve"/>
      <point x="692.96851306105373" y="835.16255369192572" type="line"/>
      <point x="392.79760223248155" y="836.03886246153024" type="line"/>
      <point x="363.42348800832639" y="681.29513756248514" type="line"/>
      <point x="605.29119325966462" y="679.70634112174116" type="line" smooth="yes"/>
      <point x="749.34394342176518" y="673.12957730415962"/>
      <point x="774.57801934948577" y="551.00273167063278"/>
      <point x="759.83433517629567" y="426.96708195680264" type="curve" smooth="yes"/>
      <point x="741.79542966717361" y="275.20939787544131"/>
      <point x="646.67949609264065" y="156.86197661994407"/>
      <point x="486.70248724548946" y="155.30128685213987" type="curve" smooth="yes"/>
      <point x="239.69989322611809" y="156.54682656856528" type="line"/>
      <point x="108.2464286269042" y="0.0" type="line"/>
    </contour>
  </outline>
</glyph>
<glyph name="C" format="1">
  <advance width="1126.17"/>
  <unicode hex="0043"/>
  <outline>
    <contour>
      <point x="751.75387161240383" y="1633" type="move" name="top"/>
    </contour>
    <contour>
      <point x="467.87294125501808" y="-10" type="move" name="bottom"/>
    </contour>
    <contour>
      <point x="1279.5520635163639" y="1600" type="move" name="top_dd"/>
    </contour>
    <contour>
      <point x="932.77846203902163" y="-407" type="move" name="bottom_dd"/>
    </contour>
    <contour>
      <point x="1285.2538716124038" y="1633" type="move" name="top0315"/>
    </contour>
    <contour>
      <point x="832.44708417135951" y="461.96450355984763" type="line"/>
      <point x="791.74552594384852" y="275.47796157238372"/>
      <point x="716.74304525675996" y="127.17367925304453"/>
      <point x="502.39656454184501" y="136.39121419606249" type="curve" smooth="yes"/>
      <point x="271.49464311449924" y="146.32068223336279"/>
      <point x="279.05824119155579" y="424.62324036579821"/>
      <point x="302.11856217655389" y="593.1711544965051" type="curve" smooth="yes"/>
      <point x="344.31844750791663" y="865.32573049479493" type="line" smooth="yes"/>
      <point x="375.98371023668943" y="1072.9594143840377"/>
      <point x="473.26483378735486" y="1327.0695069365247"/>
      <point x="724.33815880976863" y="1318.8598120847703" type="curve" smooth="yes"/>
      <point x="915.33883020367989" y="1312.614396613078"/>
      <point x="933.40273610856707" y="1147.1018540713767"/>
      <point x="927.66291059757918" y="988.7498470921754" type="curve"/>
      <point x="1107.6175792270899" y="988.49253889582201" type="line"/>
      <point x="1118.3057301942101" y="1246.3205842132654"/>
      <point x="1021.1772546816997" y="1469.6502388069907"/>
      <point x="734.85283285996184" y="1476.1913093091719" type="curve" smooth="yes"/>
      <point x="385.28591723634446" y="1484.1771521715305"/>
      <point x="210.97138559107597" y="1168.3144357604281"/>
      <point x="164.44291650828956" y="862.62035551169026" type="curve" smooth="yes"/>
      <point x="122.42210689889329" y="593.68461574976754" type="line" smooth="yes"/>
      <point x="86.492504758547611" y="322.71288057292827"/>
      <point x="163.5713321367125" y="-12.066541008498534"/>
      <point x="492.04801796851234" y="-20.442173831330035" type="curve" smooth="yes"/>
      <point x="793.51039649875952" y="-28.128984802625926"/>
      <point x="966.80997593355039" y="182.02999665212832"/>
      <point x="1007.4095007437484" y="463.64140940539028" type="curve"/>
    </contour>
  </outline>
</glyph>
<glyph name="D" format="1">
  <advance width="1133.93"/>
  <unicode hex="0044"/>
  <outline>
    <contour>
      <point x="692.83544827856008" y="1612" type="move" name="top"/>
    </contour>
    <contour>
      <point x="300.29392476525823" y="738" type="move" name="cross"/>
    </contour>
    <contour>
      <point x="419.91858252534541" y="10" type="move" name="bottom"/>
    </contour>
    <contour>
      <point x="1287.3120635163637" y="1600" type="move" name="top_dd"/>
    </contour>
    <contour>
      <point x="940.53846203902162" y="-407" type="move" name="bottom_dd"/>
    </contour>
    <contour>
      <point x="1289.38544827856" y="1612" type="move" name="top0315"/>
    </contour>
    <contour>
      <point x="380.32605687777192" y="0.0" type="line" smooth="yes"/>
      <point x="753.37371787515269" y="-2.5611589592127535"/>
      <point x="962.14730451382752" y="253.30453748825863"/>
      <point x="1014.6289530770018" y="604.14434544809671" type="curve" smooth="yes"/>
      <point x="1052.157278809306" y="851.34094012721334" type="line" smooth="yes"/>
      <point x="1091.9961321932542" y="1163.101708598083"/>
      <point x="971.64737204916833" y="1446.6887185790642"/>
      <point x="625.6762637969731" y="1455.0413069766953" type="curve" smooth="yes"/>
      <point x="375.24160448918724" y="1456.0771626602791" type="line"/>
      <point x="347.17642849864973" y="1298.3120208671237" type="line"/>
      <point x="621.30572725569368" y="1297.0539495451699" type="line" smooth="yes"/>
      <point x="877.05926748185016" y="1289.3150145859845"/>
      <point x="902.28673559866809" y="1065.652541121608"/>
      <point x="874.49741264006309" y="853.92657301085876" type="curve" smooth="yes"/>
      <point x="836.7264973606259" y="603.69736579934272" type="line" smooth="yes"/>
      <point x="797.47635471177182" y="345.50172951695924"/>
      <point x="664.85457346094063" y="154.4344381040093"/>
      <point x="385.28537832991964" y="155.54478330511347" type="curve" smooth="yes"/>
      <point x="156.59938222951473" y="157.09915746377987" type="line"/>
      <point x="127.10397759363995" y="0.0" type="line"/>
    </contour>
    <contour>
      <point x="480.29215358606473" y="1455.9346760883207" type="line"/>
      <point x="300.4797409430513" y="1455.9429040150083" type="line"/>
      <point x="47.684083169593137" y="0.0" type="line"/>
      <point x="227.49649581260331" y="0.0" type="line"/>
    </contour>
  </outline>
</glyph>
<glyph name="E" format="1">
  <advance width="987.4599999999999"/>
  <unicode hex="0045"/>
  <outline>
    <contour>
      <point x="836.3373526072047" y="156.91296970089476" type="line"/>
      <point x="221.94624596021794" y="156.92164536466439" type="line"/>
      <point x="194.08307072036558" y="0.0" type="line"/>
      <point x="808.4741773673503" y="0.0" type="line"/>
    </contour>
    <contour>
      <point x="480.29655168105285" y="1455.9444263879625" type="line"/>
      <point x="300.47850682754756" y="1455.9536287430305" type="line"/>
      <point x="47.6787663488286" y="0.0" type="line"/>
      <point x="227.49681120233606" y="0.0" type="line"/>
    </contour>
    <contour>
      <point x="870.4814344655285" y="829.9102325066949" type="line"/>
      <point x="338.54939398756886" y="829.9188613242615" type="line"/>
      <point x="310.6858525894091" y="673.0884933703146" type="line"/>
      <point x="842.6178930673741" y="673.0798645527461" type="line"/>
    </contour>
    <contour>
      <point x="1051.6915112421339" y="1455.9066573017194" type="line"/>
      <point x="447.00347825598703" y="1455.9153278614026" type="line"/>
      <point x="418.963523625967" y="1298.091008077747" type="line"/>
      <point x="1023.6515566121177" y="1298.0823375180667" type="line"/>
    </contour>
    <contour>
      <point x="698.65544827856" y="1612" type="move" name="top"/>
    </contour>
    <contour>
      <point x="421.85858252534535" y="10" type="move" name="bottom"/>
    </contour>
    <contour>
      <point x="1140.8420635163639" y="1600" type="move" name="top_dd"/>
    </contour>
    <contour>
      <point x="794.0684620390216" y="-407" type="move" name="bottom_dd"/>
    </contour>
    <contour>
      <point x="1142.91544827856" y="1612" type="move" name="top0315"/>
    </contour>
    <contour>
      <point x="698.65544827856" y="1612" type="move" name="parent_top"/>
    </contour>
  </outline>
</glyph>
<glyph name="F" format="1">
  <advance width="955.4499999999999"/>
  <unicode hex="0046"/>
  <outline>
    <contour>
      <point x="245.55831729519633" y="337" type="move" name="cross"/>
    </contour>
    <contour>
      <point x="698.65544827856002" y="1612" type="move" name="top"/>
    </contour>
    <contour>
      <point x="350.07858252534538" y="10" type="move" name="bottom"/>
    </contour>
    <contour>
      <point x="1108.8320635163636" y="1600" type="move" name="top_dd"/>
    </contour>
    <contour>
      <point x="762.05846203902161" y="-407" type="move" name="bottom_dd"/>
    </contour>
    <contour>
      <point x="1110.90544827856" y="1612" type="move" name="top0315"/>
    </contour>
    <contour>
      <point x="480.29663143169023" y="1455.9440974052743" type="line"/>
      <point x="300.47875182219747" y="1455.9532967308614" type="line"/>
      <point x="47.678778962340019" y="0.0" type="line"/>
      <point x="227.49665857183044" y="0.0" type="line"/>
    </contour>
    <contour>
      <point x="843.14980691292908" y="800.91093417526997" type="line"/>
      <point x="331.58699453508109" y="800.91955436568321" type="line"/>
      <point x="303.54581963140538" y="643.08798749148616" type="line"/>
      <point x="815.1086320092603" y="643.07936730107861" type="line"/>
    </contour>
    <contour>
      <point x="1037.1426618224227" y="1455.9085829379883" type="line"/>
      <point x="445.0627249353978" y="1455.91725062667" type="line"/>
      <point x="417.0225976107032" y="1298.0893604624914" type="line"/>
      <point x="1009.1025344977431" y="1298.0806927738226" type="line"/>
    </contour>
  </outline>
</glyph>
<glyph name="G" format="1">
  <advance width="1173.7"/>
  <unicode hex="0047"/>
  <outline>
    <contour>
      <point x="740.11387161240373" y="1633" type="move" name="top"/>
    </contour>
    <contour>
      <point x="508.78572331853445" y="-9" type="move" name="bottom"/>
    </contour>
    <contour>
      <point x="1327.0820635163636" y="1600" type="move" name="top_dd"/>
    </contour>
    <contour>
      <point x="980.30846203902161" y="-407" type="move" name="bottom_dd"/>
    </contour>
    <contour>
      <point x="1332.7838716124038" y="1633" type="move" name="top0315"/>
    </contour>
    <contour>
      <point x="1058.2657883837073" y="724.8460881098315" type="line"/>
      <point x="622.0216358773182" y="724.92762561972461" type="line"/>
      <point x="594.39499105012362" y="569.09729054082504" type="line"/>
      <point x="853.96229160530766" y="568.91747294868162" type="line"/>
      <point x="792.50348057478152" y="232.79215896826568" type="line"/>
      <point x="711.18142228731506" y="170.67966795699428"/>
      <point x="634.85231468753943" y="135.86081663478092"/>
      <point x="529.06130372644429" y="137.54670138810678" type="curve" smooth="yes"/>
      <point x="288.01468890497296" y="141.38801842512589"/>
      <point x="277.24036574313516" y="409.26515920811698"/>
      <point x="301.17317715448218" y="591.11883008732184" type="curve" smooth="yes"/>
      <point x="343.3108465913142" y="867.35295992109468" type="line" smooth="yes"/>
      <point x="375.17832296077722" y="1085.4447120830378"/>
      <point x="458.86433723182273" y="1328.2306312594812"/>
      <point x="721.23889492913372" y="1318.2920839986184" type="curve" smooth="yes"/>
      <point x="891.47559333468485" y="1311.8436482680904"/>
      <point x="936.40788649494596" y="1180.1607278452154"/>
      <point x="934.74174892457518" y="1029.547454544673" type="curve"/>
      <point x="1113.7453495647908" y="1029.2966418567294" type="line"/>
      <point x="1118.8481727969811" y="1281.3160563850292"/>
      <point x="998.45586260550954" y="1469.4357116915783"/>
      <point x="731.27043832677725" y="1475.9261528650254" type="curve" smooth="yes"/>
      <point x="364.89122221492062" y="1484.8261995489602"/>
      <point x="211.29973023198104" y="1186.7363915835795"/>
      <point x="163.55142992230037" y="864.8414527868747" type="curve" smooth="yes"/>
      <point x="121.52822704073172" y="591.66544701055739" type="line" smooth="yes"/>
      <point x="83.82806306131468" y="298.20715730724311"/>
      <point x="179.53998896456454" y="-15.176653003178945"/>
      <point x="521.99791439117871" y="-20.148667575484257" type="curve" smooth="yes"/>
      <point x="696.95384537577297" y="-22.68878527690114"/>
      <point x="867.37483517392479" y="40.159546292203629"/>
      <point x="974.27235189400335" y="182.74722312378705" type="curve"/>
    </contour>
  </outline>
</glyph>
<glyph name="H" format="1">
  <advance width="1231.8999999999999"/>
  <unicode hex="0048"/>
  <outline>
    <contour>
      <point x="959.7247444443801" y="829.909803305802" type="line"/>
      <point x="346.30641366016914" y="829.9184629519667" type="line"/>
      <point x="318.4438323459473" y="673.0883364588418" type="line"/>
      <point x="931.8621631301507" y="673.0796768126693" type="line"/>
    </contour>
    <contour>
      <point x="480.2954766241669" y="1455.940828610633" type="line"/>
      <point x="300.4802467770722" y="1455.949991467628" type="line"/>
      <point x="47.68068368768296" y="0.0" type="line"/>
      <point x="227.495913534774" y="0.0" type="line"/>
    </contour>
    <contour>
      <point x="1226.2250467730541" y="1455.9408286105843" type="line"/>
      <point x="1046.4098169259362" y="1455.949991467568" type="line"/>
      <point x="793.6102538366116" y="0.0" type="line"/>
      <point x="973.4254836837231" y="0.0" type="line"/>
    </contour>
    <contour>
      <point x="774.3154482785601" y="1612" type="move" name="top"/>
    </contour>
    <contour>
      <point x="499.4585825253454" y="10" type="move" name="bottom"/>
    </contour>
    <contour>
      <point x="1385.282063516364" y="1600" type="move" name="top_dd"/>
    </contour>
    <contour>
      <point x="1038.5084620390217" y="-407" type="move" name="bottom_dd"/>
    </contour>
    <contour>
      <point x="1387.35544827856" y="1612" type="move" name="top0315"/>
    </contour>
    <contour>
      <point x="774.3154482785601" y="1612" type="move" name="parent_top"/>
    </contour>
  </outline>
</glyph>
<glyph name="I" format="1">
  <advance width="496.64"/>
  <unicode hex="0049"/>
  <outline>
    <contour>
      <point x="488.05144439615333" y="1455.940367962018" type="line"/>
      <point x="308.23931517342254" y="1455.949070948605" type="line"/>
      <point x="55.44520204323142" y="0.0" type="line"/>
      <point x="235.2573312659615" y="0.0" type="line"/>
    </contour>
    <contour>
      <point x="423.1754482785601" y="1612" type="move" name="top"/>
    </contour>
    <contour>
      <point x="146.20580046182903" y="9" type="move" name="bottom"/>
    </contour>
    <contour>
      <point x="650.0220635163638" y="1600" type="move" name="top_dd"/>
    </contour>
    <contour>
      <point x="303.2484620390217" y="-407" type="move" name="bottom_dd"/>
    </contour>
    <contour>
      <point x="652.0954482785601" y="1612" type="move" name="top0315"/>
    </contour>
    <contour>
      <point x="423.1754482785601" y="1612" type="move" name="parent_top"/>
    </contour>
  </outline>
</glyph>
<glyph name="J" format="1">
  <advance width="960.3"/>
  <unicode hex="004A"/>
  <outline>
    <contour>
      <point x="877.79928145284737" y="1599" type="move" name="top"/>
    </contour>
    <contour>
      <point x="331.1029412550181" y="-10" type="move" name="bottom"/>
    </contour>
    <contour>
      <point x="1113.6820635163638" y="1600" type="move" name="top_dd"/>
    </contour>
    <contour>
      <point x="766.90846203902163" y="-407" type="move" name="bottom_dd"/>
    </contour>
    <contour>
      <point x="1113.5092814528475" y="1599" type="move" name="top0315"/>
    </contour>
    <contour>
      <point x="613.05707465047453" y="424.40526141455541" type="line" smooth="yes"/>
      <point x="593.34591358367891" y="290.15800399848763"/>
      <point x="520.60163669436088" y="130.15318160121313"/>
      <point x="361.02930450149302" y="136.1422446985016" type="curve" smooth="yes"/>
      <point x="214.74432590703475" y="141.632607313048"/>
      <point x="192.61052507769821" y="283.84260242124139"/>
      <point x="202.00898352475002" y="403.00369642620313" type="curve"/>
      <point x="21.750539615872256" y="403.39708838852482" type="line"/>
      <point x="5.6376074929081881" y="177.10899155859403"/>
      <point x="101.7400250542361" y="-14.452328020443849"/>
      <point x="348.5030817522732" y="-21.06731028648338" type="curve" smooth="yes"/>
      <point x="613.18901163234193" y="-28.162751377446188"/>
      <point x="757.98980335599686" y="185.21423879356274"/>
      <point x="791.49743081363226" y="425.27952163402932" type="curve" smooth="yes"/>
      <point x="967.3306696716113" y="1455.9465706849824" type="line"/>
      <point x="788.39649158273596" y="1455.9468466513244" type="line"/>
    </contour>
  </outline>
</glyph>
<glyph name="K" format="1">
  <advance width="1083.49"/>
  <unicode hex="004B"/>
  <outline>
    <contour>
      <point x="474.48114760665453" y="90" type="move" name="bottom"/>
    </contour>
    <contour>
      <point x="918.36519776314901" y="-2" type="move" name="right"/>
    </contour>
    <contour>
      <point x="353.11991795179279" y="1229" type="move" name="cross"/>
    </contour>
    <contour>
      <point x="684.07815319878193" y="1595" type="move" name="top"/>
    </contour>
    <contour>
      <point x="1236.8720635163636" y="1600" type="move" name="top_dd"/>
    </contour>
    <contour>
      <point x="890.09846203902157" y="-407" type="move" name="bottom_dd"/>
    </contour>
    <contour>
      <point x="1236.0081531987819" y="1595" type="move" name="top0315"/>
    </contour>
    <contour>
      <point x="480.29147159110119" y="1455.9348619485745" type="line"/>
      <point x="300.47969434664395" y="1455.9430321537832" type="line"/>
      <point x="47.684425904668942" y="0.0" type="line"/>
      <point x="227.49620314912261" y="0.0" type="line"/>
    </contour>
    <contour>
      <point x="1197.0600234251585" y="1455.6146156431053" type="line"/>
      <point x="968.99981909213193" y="1455.6651306937856" type="line"/>
      <point x="499.87529828573497" y="918.40723035979465" type="line"/>
      <point x="245.3967012583542" y="639.81494870093309" type="line"/>
      <point x="240.74303106739774" y="417.42969057723712" type="line"/>
      <point x="588.98833346301853" y="772.22949464916849" type="line"/>
    </contour>
    <contour>
      <point x="765.07903432367152" y="0.0" type="line"/>
      <point x="966.57018053672073" y="0.0" type="line"/>
      <point x="593.05546241372576" y="864.04618477309464" type="line"/>
      <point x="467.36040187554158" y="719.96550631387231" type="line"/>
    </contour>
  </outline>
</glyph>
<glyph name="L" format="1">
  <advance width="944.78"/>
  <unicode hex="004C"/>
  <outline>
    <contour>
      <point x="410.71093526229834" y="1596" type="move" name="top"/>
    </contour>
    <contour>
      <point x="421.85858252534535" y="10" type="move" name="bottom"/>
    </contour>
    <contour>
      <point x="664.73866430649105" y="1455" type="move" name="caron"/>
    </contour>
    <contour>
      <point x="541.2813741316254" y="791" type="move" name="dot"/>
    </contour>
    <contour>
      <point x="1098.1620635163638" y="1600" type="move" name="top_dd"/>
    </contour>
    <contour>
      <point x="751.38846203902165" y="-407" type="move" name="bottom_dd"/>
    </contour>
    <contour>
      <point x="1097.4709352622983" y="1596" type="move" name="top0315"/>
    </contour>
    <contour>
      <point x="809.16661088374769" y="156.91069932838161" type="line"/>
      <point x="221.95462634008982" y="156.91938075633422" type="line"/>
      <point x="194.09470049069859" y="0.0" type="line"/>
      <point x="781.30668503435174" y="0.0" type="line"/>
    </contour>
    <contour>
      <point x="480.29346247937326" y="1455.9413274247497" type="line"/>
      <point x="300.480624647745" y="1455.9500713404375" type="line"/>
      <point x="47.682760448533017" y="0.0" type="line"/>
      <point x="227.49559828016373" y="0.0" type="line"/>
    </contour>
  </outline>
</glyph>
<glyph name="M" format="1">
  <advance width="1500.59"/>
  <unicode hex="004D"/>
  <outline>
    <contour>
      <point x="360.26037290778584" y="1456.0218238352656" type="line"/>
      <point x="581.0488478575154" y="0.0" type="line"/>
      <point x="718.1691428828194" y="0.0" type="line"/>
      <point x="1445.178761164786" y="1455.7267917523427" type="line"/>
      <point x="1263.9826431475674" y="1455.7508034942932" type="line"/>
      <point x="689.9462138446319" y="270.6953699016536" type="line"/>
      <point x="526.9837378935757" y="1456.0262832473984" type="line"/>
    </contour>
    <contour>
      <point x="300.5077794872775" y="1455.9325454360253" type="line"/>
      <point x="47.684933508282214" y="0.0" type="line"/>
      <point x="226.50437753170917" y="0.0" type="line"/>
      <point x="324.17824634574316" y="562.3983558252111" type="line"/>
      <point x="452.6923538170132" y="1455.9731457764046" type="line"/>
    </contour>
    <contour>
      <point x="1343.907791145148" y="1455.9249803200992" type="line"/>
      <point x="1165.5904568358922" y="578.0628055384303" type="line"/>
      <point x="1065.193404405913" y="0.0" type="line"/>
      <point x="1244.0553787559782" y="0.0" type="line"/>
      <point x="1496.8853489347864" y="1455.9417483719267" type="line"/>
    </contour>
    <contour>
      <point x="917.9148455798802" y="1601" type="move" name="top"/>
    </contour>
    <contour>
      <point x="1231.0507618901818" y="0" type="move" name="right"/>
    </contour>
    <contour>
      <point x="647.8685825253453" y="10" type="move" name="bottom"/>
    </contour>
    <contour>
      <point x="1653.972063516364" y="1600" type="move" name="top_dd"/>
    </contour>
    <contour>
      <point x="1307.1984620390217" y="-407" type="move" name="bottom_dd"/>
    </contour>
    <contour>
      <point x="1654.1448455798802" y="1601" type="move" name="top0315"/>
    </contour>
  </outline>
</glyph>
<glyph name="N" format="1">
  <advance width="1230.93"/>
  <unicode hex="004E"/>
  <outline>
    <contour>
      <point x="784.05484557988018" y="1601" type="move" name="top"/>
    </contour>
    <contour>
      <point x="503.33858252534537" y="10" type="move" name="bottom"/>
    </contour>
    <contour>
      <point x="971.09076189018174" y="0" type="move" name="right"/>
    </contour>
    <contour>
      <point x="1384.3120635163637" y="1600" type="move" name="top_dd"/>
    </contour>
    <contour>
      <point x="1037.5384620390216" y="-407" type="move" name="bottom_dd"/>
    </contour>
    <contour>
      <point x="1384.4848455798801" y="1601" type="move" name="top0315"/>
    </contour>
    <contour>
      <point x="1225.2530270995735" y="1455.935236258581" type="line"/>
      <point x="1047.3695267267017" y="1455.94259317964" type="line"/>
      <point x="850.19439562634216" y="321.90860484996216" type="line"/>
      <point x="474.66754431106631" y="1456.0424539996327" type="line"/>
      <point x="300.40298580304733" y="1455.9373228915317" type="line"/>
      <point x="47.680517560622846" y="0.0" type="line"/>
      <point x="227.50008942290538" y="0.0" type="line"/>
      <point x="424.16858006855909" y="1131.0894688756212" type="line"/>
      <point x="797.29062393988693" y="0.0" type="line"/>
      <point x="972.53096878115753" y="0.0" type="line"/>
    </contour>
  </outline>
</glyph>
<glyph name="O" format="1">
  <advance width="1194.07"/>
  <unicode hex="004F"/>
  <outline>
    <contour>
      <point x="772.76040970691292" y="1603" type="move" name="top"/>
    </contour>
    <contour>
      <point x="495.79076189018178" y="0" type="move" name="bottom"/>
    </contour>
    <contour>
      <point x="290.14588224297466" y="1454" type="move" name="tonos"/>
    </contour>
    <contour>
      <point x="1347.452063516364" y="1600" type="move" name="top_dd"/>
    </contour>
    <contour>
      <point x="1000.6784620390217" y="-407" type="move" name="bottom_dd"/>
    </contour>
    <contour>
      <point x="1347.970409706913" y="1603" type="move" name="top0315"/>
    </contour>
    <contour>
      <point x="1112.974393122468" y="854.32317199721717" type="line" smooth="yes"/>
      <point x="1150.2050493249301" y="1142.2779144803692"/>
      <point x="1077.1831972768523" y="1468.1480889280331"/>
      <point x="732.62108232573325" y="1476.3281895750749" type="curve" smooth="yes"/>
      <point x="376.1049948979761" y="1484.7920843299071"/>
      <point x="210.20799619280046" y="1163.2305646128723"/>
      <point x="163.90387494201372" y="853.60685436672463" type="curve" smooth="yes"/>
      <point x="124.88296693509285" y="600.67366506147084" type="line" smooth="yes"/>
      <point x="88.157085528418037" y="315.76143263233769"/>
      <point x="165.30667811282353" y="-11.928520714259783"/>
      <point x="506.11509517345485" y="-20.330365389411728" type="curve" smooth="yes"/>
      <point x="866.89929773406379" y="-29.224666936616529"/>
      <point x="1026.0002749460914" y="289.03244933717411"/>
      <point x="1073.7236919438592" y="601.71747363293605" type="curve" smooth="yes"/>
    </contour>
    <contour>
      <point x="896.8478446049478" y="600.62478917912836" type="line" smooth="yes"/>
      <point x="865.34150370808811" y="385.1365082406794"/>
      <point x="776.54023903726204" y="132.32475006227759"/>
      <point x="516.04729932971213" y="142.22782770193001" type="curve" smooth="yes"/>
      <point x="277.36449488341202" y="151.30175633253074"/>
      <point x="280.1159470786169" y="421.68382560263717"/>
      <point x="303.0880979068433" y="600.14150545752591" type="curve" smooth="yes"/>
      <point x="341.1956272892869" y="856.40814403927664" type="line" smooth="yes"/>
      <point x="372.0477311298024" y="1067.6874241148073"/>
      <point x="466.83816410001555" y="1322.3476469266486"/>
      <point x="722.00303903228257" y="1313.0420499925506" type="curve" smooth="yes"/>
      <point x="963.92201233102151" y="1304.2195172798231"/>
      <point x="959.4361801831493" y="1040.791206765962"/>
      <point x="935.66069693031636" y="858.15010140371658" type="curve" smooth="yes"/>
    </contour>
  </outline>
</glyph>
<glyph name="P" format="1">
  <advance width="1100.95"/>
  <unicode hex="0050"/>
  <outline>
    <contour>
      <point x="189.26588224297467" y="1454" type="move" name="tonos"/>
    </contour>
    <contour>
      <point x="694.77544827856013" y="1612" type="move" name="top"/>
    </contour>
    <contour>
      <point x="349.10858252534541" y="10" type="move" name="bottom"/>
    </contour>
    <contour>
      <point x="1254.3320635163636" y="1600" type="move" name="top_dd"/>
    </contour>
    <contour>
      <point x="907.55846203902161" y="-407" type="move" name="bottom_dd"/>
    </contour>
    <contour>
      <point x="1256.40544827856" y="1612" type="move" name="top0315"/>
    </contour>
    <contour>
      <point x="609.34000382490331" y="569.69623759448586" type="line" smooth="yes"/>
      <point x="887.80988262621099" y="569.09813726591278"/>
      <point x="1072.2119852307951" y="743.00298230749831"/>
      <point x="1096.2053375839703" y="1019.9384239073036" type="curve" smooth="yes"/>
      <point x="1117.0389058840874" y="1260.4030889681299"/>
      <point x="989.79437995216608" y="1447.3092600630664"/>
      <point x="738.86863011182231" y="1454.8069551853937" type="curve" smooth="yes"/>
      <point x="300.39183605836689" y="1455.9725151047346" type="line"/>
      <point x="47.683551366987373" y="0.0" type="line"/>
      <point x="227.49301488134353" y="0.0" type="line"/>
      <point x="452.81715538410822" y="1298.0685356591443" type="line"/>
      <point x="734.57392513734192" y="1296.7664538908273" type="line" smooth="yes"/>
      <point x="889.85572010644864" y="1289.7324728067904"/>
      <point x="933.11737775374695" y="1154.7030313562427"/>
      <point x="916.89736564567932" y="1018.2594656047704" type="curve" smooth="yes"/>
      <point x="896.64072238557924" y="847.85955356100249"/>
      <point x="792.55729120490105" y="727.34971773977577"/>
      <point x="614.75444710408942" y="726.2934873280941" type="curve" smooth="yes"/>
      <point x="316.07012865428175" y="728.08414514142453" type="line"/>
      <point x="288.17172952413364" y="571.13099958078158" type="line"/>
    </contour>
  </outline>
</glyph>
<glyph name="Q" format="1">
  <advance width="1194.07"/>
  <unicode hex="0051"/>
  <outline>
    <contour>
      <point x="762.54206351636378" y="1600" type="move" name="top"/>
    </contour>
    <contour>
      <point x="482.42294125501803" y="-10" type="move" name="bottom"/>
    </contour>
    <contour>
      <point x="1347.452063516364" y="1600" type="move" name="top_dd"/>
    </contour>
    <contour>
      <point x="1000.6784620390217" y="-407" type="move" name="bottom_dd"/>
    </contour>
    <contour>
      <point x="1347.452063516364" y="1600" type="move" name="top0315"/>
    </contour>
    <contour>
      <point x="686.38673859659627" y="166.64933796730992" type="line"/>
      <point x="558.77381927829026" y="51.428438029843541" type="line"/>
      <point x="823.22483853125971" y="-245.8469576377301" type="line"/>
      <point x="956.59892844966566" y="-134.19785221533962" type="line"/>
    </contour>
    <contour>
      <point x="1105.1848267278201" y="854.31846524762568" type="line" smooth="yes"/>
      <point x="1142.6462520928997" y="1143.3138074171459"/>
      <point x="1069.1264287066622" y="1468.1503025782688"/>
      <point x="723.89216127389602" y="1476.3203671783497" type="curve" smooth="yes"/>
      <point x="367.02144914597017" y="1484.7658114664948"/>
      <point x="201.53731696722491" y="1163.5455538923611"/>
      <point x="155.18682653018624" y="853.5788495104174" type="curve" smooth="yes"/>
      <point x="116.33070377417293" y="601.6744894933654" type="line" smooth="yes"/>
      <point x="79.589390792836866" y="316.54374658745382"/>
      <point x="156.00817406653869" y="-11.869419388615702"/>
      <point x="497.39316358368524" y="-20.30568714232956" type="curve" smooth="yes"/>
      <point x="860.05410241584298" y="-29.267723780579757"/>
      <point x="1017.1457370165687" y="289.76623023462105"/>
      <point x="1065.5625087412086" y="603.3885418824724" type="curve" smooth="yes"/>
    </contour>
    <contour>
      <point x="889.2667219183935" y="601.62046311860638" type="line" smooth="yes"/>
      <point x="857.70500621015174" y="385.75314518235336"/>
      <point x="768.32010149870939" y="132.22257185326387"/>
      <point x="507.36699377832861" y="142.20646674264967" type="curve" smooth="yes"/>
      <point x="268.9513467368472" y="151.3280931560727"/>
      <point x="272.65143154963272" y="423.46534318529496"/>
      <point x="295.50380233214736" y="601.10795256530923" type="curve" smooth="yes"/>
      <point x="333.4816607395486" y="856.41621468055553" type="line" smooth="yes"/>
      <point x="364.38073412608969" y="1067.4581126522953"/>
      <point x="458.80829417077962" y="1322.2707366406969"/>
      <point x="713.78425787848835" y="1313.2581669381107" type="curve" smooth="yes"/>
      <point x="956.2492834044059" y="1304.687818144384"/>
      <point x="952.14052609538373" y="1041.2902690450071"/>
      <point x="928.03215991591037" y="858.22257565689517" type="curve" smooth="yes"/>
    </contour>
  </outline>
</glyph>
<glyph name="R" format="1">
  <advance width="1054.3899999999999"/>
  <unicode hex="0052"/>
  <outline>
    <contour>
      <point x="689.96484557988015" y="1601" type="move" name="top"/>
    </contour>
    <contour>
      <point x="416.03858252534542" y="10" type="move" name="bottom"/>
    </contour>
    <contour>
      <point x="1207.7720635163637" y="1600" type="move" name="top_dd"/>
    </contour>
    <contour>
      <point x="860.99846203902166" y="-407" type="move" name="bottom_dd"/>
    </contour>
    <contour>
      <point x="1207.9448455798802" y="1601" type="move" name="top0315"/>
    </contour>
    <contour>
      <point x="301.40881717662961" y="1456.1627294137345" type="line"/>
      <point x="48.654240715381363" y="0.0" type="line"/>
      <point x="228.46319711824395" y="0.0" type="line"/>
      <point x="453.76634411991427" y="1298.1238172480387" type="line"/>
      <point x="680.30058811538458" y="1296.9069991707374" type="line" smooth="yes"/>
      <point x="839.25638552509088" y="1290.704295612333"/>
      <point x="879.69635585732408" y="1170.3354464260437"/>
      <point x="862.38046521672129" y="1027.7999681408778" type="curve" smooth="yes"/>
      <point x="842.64762576011753" y="865.36941413424256"/>
      <point x="729.19349643902194" y="746.7548309010449"/>
      <point x="561.96185465903818" y="745.19624497019959" type="curve" smooth="yes"/>
      <point x="318.31807299137728" y="747.04371325072839" type="line"/>
      <point x="292.6678308615642" y="590.07085708880959" type="line"/>
      <point x="657.13946992234332" y="589.6669654117851" type="line"/>
      <point x="709.16440471489364" y="609.79138996913548" type="line" smooth="yes"/>
      <point x="901.47268114666281" y="677.26821783172181"/>
      <point x="1023.2203253605642" y="820.32870545826438"/>
      <point x="1042.0236264273433" y="1027.2661317748261" type="curve" smooth="yes"/>
      <point x="1064.8202338973545" y="1278.1514024961273"/>
      <point x="941.73142523269621" y="1447.2506631271528"/>
      <point x="683.80192645720786" y="1454.5350519682693" type="curve" smooth="yes"/>
    </contour>
    <contour>
      <point x="730.54841817407021" y="0.0" type="line"/>
      <point x="923.42776217037044" y="0.0" type="line"/>
      <point x="924.03541232530119" y="13.120873505761578" type="line"/>
      <point x="741.95797480526255" y="660.99764208859835" type="line"/>
      <point x="564.6940539129273" y="660.12528595327785" type="line"/>
    </contour>
  </outline>
</glyph>
<glyph name="T" format="1">
  <advance width="1034.02"/>
  <unicode hex="0054"/>
  <outline>
    <contour>
      <point x="690.76206351636381" y="1600" type="move" name="top"/>
    </contour>
    <contour>
      <point x="416.25076189018171" y="0" type="move" name="bottom"/>
    </contour>
    <contour>
      <point x="498.70076189018175" y="0" type="move" name="right"/>
    </contour>
    <contour>
      <point x="575.74070873732728" y="895" type="move" name="cross"/>
    </contour>
    <contour>
      <point x="1187.4020635163638" y="1600" type="move" name="top_dd"/>
    </contour>
    <contour>
      <point x="840.62846203902166" y="-407" type="move" name="bottom_dd"/>
    </contour>
    <contour>
      <point x="1187.4020635163638" y="1600" type="move" name="top0315"/>
    </contour>
    <contour>
      <point x="755.77304655113051" y="1455.9396881488931" type="line"/>
      <point x="577.89874974910299" y="1455.9488790203977" type="line"/>
      <point x="325.10222385190258" y="0.0" type="line"/>
      <point x="502.97652065392765" y="0.0" type="line"/>
    </contour>
    <contour>
      <point x="1127.3525144074561" y="1455.9110090718111" type="line"/>
      <point x="207.41320328119349" y="1455.9196980909296" type="line"/>
      <point x="179.37356152580685" y="1298.0874451201626" type="line"/>
      <point x="1099.312872652079" y="1298.0787561010391" type="line"/>
    </contour>
  </outline>
</glyph>
<glyph name="U" format="1">
  <advance width="1115.5"/>
  <unicode hex="0055"/>
  <outline>
    <contour>
      <point x="731.67484557988018" y="1601" type="move" name="top"/>
    </contour>
    <contour>
      <point x="456.02076189018169" y="0" type="move" name="bottom"/>
    </contour>
    <contour>
      <point x="600.55076189018178" y="0" type="move" name="right"/>
    </contour>
    <contour>
      <point x="690.60317268490166" y="44" type="move" name="ogonek"/>
    </contour>
    <contour>
      <point x="1268.8820635163638" y="1600" type="move" name="top_dd"/>
    </contour>
    <contour>
      <point x="922.10846203902156" y="-407" type="move" name="bottom_dd"/>
    </contour>
    <contour>
      <point x="1269.0548455798801" y="1601" type="move" name="top0315"/>
    </contour>
    <contour>
      <point x="964.91929269350635" y="1455.9459013877038" type="line"/>
      <point x="791.05989391806418" y="430.39412514786017" type="line" smooth="yes"/>
      <point x="765.48911677292267" y="251.86288910861123"/>
      <point x="670.95597036890081" y="130.17055127247096"/>
      <point x="480.63422047312292" y="136.56877832698078" type="curve" smooth="yes"/>
      <point x="301.23039690996211" y="142.59996708093507"/>
      <point x="261.01723897802276" y="268.10061510790831"/>
      <point x="279.50010549938941" y="430.04295255262724" type="curve"/>
      <point x="453.13277675592769" y="1455.9360674877444" type="line"/>
      <point x="274.3030033810449" y="1455.945346068512" type="line"/>
      <point x="100.3368928879177" y="430.72957977029637" type="line"/>
      <point x="71.166619336558696" y="169.30819615587905"/>
      <point x="198.48859462309366" y="-16.253611188901623"/>
      <point x="469.53382712485916" y="-21.76333786137095" type="curve" smooth="yes"/>
      <point x="752.78940313689031" y="-27.521272756126884"/>
      <point x="932.88441399994053" y="160.13493835000907"/>
      <point x="970.33653153691512" y="432.20447618819264" type="curve" smooth="yes"/>
      <point x="1144.9328573076484" y="1455.9559883262057" type="line"/>
    </contour>
  </outline>
</glyph>
<glyph name="V" format="1">
  <advance width="1113.56"/>
  <unicode hex="0056"/>
  <outline>
    <contour>
      <point x="717.35993317227837" y="1612" type="move" name="top"/>
    </contour>
    <contour>
      <point x="467.76780575924477" y="10" type="move" name="bottom"/>
    </contour>
    <contour>
      <point x="1249.9603292216188" y="1600" type="move" name="top_dd"/>
    </contour>
    <contour>
      <point x="937.26906847382986" y="-407" type="move" name="bottom_dd"/>
    </contour>
    <contour>
      <point x="1251.8299331722783" y="1612" type="move" name="top0315"/>
    </contour>
    <contour>
      <point x="481.89564947500833" y="230.04563768354407" type="line"/>
      <point x="402.06308269734518" y="0.0" type="line"/>
      <point x="545.18415096225556" y="0.0" type="line"/>
      <point x="1211.6744862183878" y="1455.7853542064777" type="line"/>
      <point x="1010.4990714120416" y="1455.8338027505997" type="line"/>
    </contour>
    <contour>
      <point x="367.53589927002588" y="1456.015424288373" type="line"/>
      <point x="178.04840385586323" y="1456.022841853073" type="line"/>
      <point x="389.03908928942928" y="0.0" type="line"/>
      <point x="521.80702691318231" y="0.0" type="line"/>
      <point x="512.40766933962254" y="210.97185548798956" type="line"/>
    </contour>
  </outline>
</glyph>
<glyph name="W" format="1">
  <advance width="1513.2"/>
  <unicode hex="0057"/>
  <outline>
    <contour>
      <point x="928.07612955084062" y="1601" type="move" name="top"/>
    </contour>
    <contour>
      <point x="678.25780575924477" y="10" type="move" name="bottom"/>
    </contour>
    <contour>
      <point x="1649.6003292216187" y="1600" type="move" name="top_dd"/>
    </contour>
    <contour>
      <point x="1336.9090684738298" y="-407" type="move" name="bottom_dd"/>
    </contour>
    <contour>
      <point x="1649.7561295508403" y="1601" type="move" name="top0315"/>
    </contour>
    <contour>
      <point x="444.79815896777541" y="447.98224678375664" type="line"/>
      <point x="286.53407314218441" y="0.0" type="line"/>
      <point x="419.37845359044729" y="0.0" type="line"/>
      <point x="827.30026088612044" y="1051.8658507874879" type="line"/>
      <point x="959.26898880740384" y="1455.8606615837207" type="line"/>
      <point x="826.79506778361542" y="1455.8324676872805" type="line"/>
    </contour>
    <contour>
      <point x="379.19549333117777" y="1456.0062587394107" type="line"/>
      <point x="204.25466245923957" y="1456.0111186924355" type="line"/>
      <point x="257.86630037229304" y="0.0" type="line"/>
      <point x="381.03685707392225" y="0.0" type="line"/>
      <point x="400.34478674982915" y="450.20969913059116" type="line"/>
    </contour>
    <contour>
      <point x="1089.8153751021532" y="470.49669096784788" type="line"/>
      <point x="959.54628774643595" y="0.0" type="line"/>
      <point x="1089.301164318972" y="0.0" type="line"/>
      <point x="1597.6727920117205" y="1455.8441689820049" type="line"/>
      <point x="1415.0190129693001" y="1455.8783924337201" type="line"/>
    </contour>
    <contour>
      <point x="975.37662017097944" y="1456.0142018387232" type="line"/>
      <point x="852.99179948021003" y="1456.0032952984891" type="line"/>
      <point x="857.93164604986566" y="1069.015338234957" type="line"/>
      <point x="927.52888309473167" y="0.0" type="line"/>
      <point x="1051.6222988016243" y="0.0" type="line"/>
      <point x="1036.1016031364693" y="436.03174538429141" type="line"/>
    </contour>
  </outline>
</glyph>
<glyph name="X" format="1">
  <advance width="1095.1299999999999"/>
  <unicode hex="0058"/>
  <outline>
    <contour>
      <point x="451.27780575924476" y="10" type="move" name="bottom"/>
    </contour>
    <contour>
      <point x="828.98980246702865" y="0" type="move" name="right"/>
    </contour>
    <contour>
      <point x="571.14364674946989" y="742" type="move" name="cross"/>
    </contour>
    <contour>
      <point x="707.65993317227833" y="1612" type="move" name="top"/>
    </contour>
    <contour>
      <point x="1231.530329221619" y="1600" type="move" name="top_dd"/>
    </contour>
    <contour>
      <point x="918.83906847382968" y="-407" type="move" name="bottom_dd"/>
    </contour>
    <contour>
      <point x="1233.3999331722785" y="1612" type="move" name="top0315"/>
    </contour>
    <contour>
      <point x="412.09173241959849" y="1456.0061305680113" type="line"/>
      <point x="212.79133497339382" y="1455.9934050172865" type="line"/>
      <point x="465.89500115096064" y="744.38114000685175" type="line"/>
      <point x="-32.294536722769898" y="0.0" type="line"/>
      <point x="188.8452648077639" y="0.0" type="line"/>
      <point x="550.13033548575402" y="567.58370542842351" type="line"/>
      <point x="732.18347707174962" y="0.0" type="line"/>
      <point x="933.39752031501246" y="0.0" type="line"/>
      <point x="675.68587346947572" y="725.61762494143068" type="line"/>
      <point x="1162.9452152220979" y="1455.6866908275792" type="line"/>
      <point x="944.75492456734366" y="1455.7323830507607" type="line"/>
      <point x="591.91690791770372" y="899.32462800643862" type="line"/>
    </contour>
  </outline>
</glyph>
<glyph name="Y" format="1">
  <advance width="1042.75"/>
  <unicode hex="0059"/>
  <outline>
    <contour>
      <point x="376.7177943446539" y="1456.0243082674922" type="line"/>
      <point x="181.88602748819903" y="1456.0144700979895" type="line"/>
      <point x="422.82448685910333" y="555.0700503855352" type="line"/>
      <point x="326.0508195997239" y="0.0" type="line"/>
      <point x="505.8662793589875" y="0.0" type="line"/>
      <point x="598.3665848317421" y="533.2501970216885" type="line"/>
      <point x="1165.030010042694" y="1455.7057130716248" type="line"/>
      <point x="952.7544065050715" y="1455.7428736382424" type="line"/>
      <point x="537.2564201206047" y="726.5311556718696" type="line"/>
    </contour>
    <contour>
      <point x="697.5520635163638" y="1600" type="move" name="top"/>
    </contour>
    <contour>
      <point x="417.3935439536981" y="1" type="move" name="bottom"/>
    </contour>
    <contour>
      <point x="518.7105255553854" y="593" type="move" name="cross"/>
    </contour>
    <contour>
      <point x="116.51588224297466" y="1454" type="move" name="tonos"/>
    </contour>
    <contour>
      <point x="1196.1320635163638" y="1600" type="move" name="top_dd"/>
    </contour>
    <contour>
      <point x="849.3584620390217" y="-407" type="move" name="bottom_dd"/>
    </contour>
    <contour>
      <point x="1196.1320635163638" y="1600" type="move" name="top0315"/>
    </contour>
  </outline>
</glyph>
<glyph name="Z" format="1">
  <advance width="1038.87"/>
  <unicode hex="005A"/>
  <outline>
    <contour>
      <point x="695.7848455798802" y="1601" type="move" name="top"/>
    </contour>
    <contour>
      <point x="412.15858252534542" y="10" type="move" name="bottom"/>
    </contour>
    <contour>
      <point x="1192.2520635163637" y="1600" type="move" name="top_dd"/>
    </contour>
    <contour>
      <point x="845.47846203902168" y="-407" type="move" name="bottom_dd"/>
    </contour>
    <contour>
      <point x="1192.4248455798802" y="1601" type="move" name="top0315"/>
    </contour>
    <contour>
      <point x="879.9787620387267" y="156.90845636228329" type="line"/>
      <point x="80.336810229809899" y="156.9172292035413" type="line"/>
      <point x="52.473664063226337" y="0.0" type="line"/>
      <point x="852.11561587214089" y="0.0" type="line"/>
    </contour>
    <contour>
      <point x="1053.5003409487999" y="1306.0235429207455" type="line"/>
      <point x="1079.8847550905609" y="1455.8871665097918" type="line"/>
      <point x="962.26844175801375" y="1455.6409487334615" type="line"/>
      <point x="11.563973707298061" y="153.85570263243756" type="line"/>
      <point x="-15.512789506190657" y="0.0" type="line"/>
      <point x="101.00639902429374" y="0.0" type="line"/>
    </contour>
    <contour>
      <point x="1004.1548520914653" y="1455.9104019503973" type="line"/>
      <point x="243.31384812503597" y="1455.919170572244" type="line"/>
      <point x="215.27259530135007" y="1298.0900648012712" type="line"/>
      <point x="976.11359926778573" y="1298.0812961794281" type="line"/>
    </contour>
  </outline>
</glyph>
<glyph name="bracketleft" format="1">
  <advance width="497.61"/>
  <unicode hex="005B"/>
  <outline>
    <contour>
      <point x="622.20544576684415" y="1663.9419908973675" type="line"/>
      <point x="299.71495184439169" y="1663.950875716693" type="line"/>
      <point x="-9.1800131573160968" y="-311.94554085044683" type="line"/>
      <point x="313.13372857648932" y="-311.95117608438966" type="line"/>
      <point x="337.34124862961073" y="-160.07367215452962" type="line"/>
      <point x="187.68931615730037" y="-159.95775931487236" type="line"/>
      <point x="448.88925095843706" y="1511.9466755004053" type="line"/>
      <point x="597.99961926435071" y="1512.066017621228" type="line"/>
    </contour>
  </outline>
</glyph>
<glyph name="backslash" format="1">
  <advance width="734.29"/>
  <unicode hex="005C"/>
  <outline>
    <contour>
      <point x="422.61287332409927" y="-125.02533076699203" type="line"/>
      <point x="578.78255572686612" y="-125.02244977766041" type="line"/>
      <point x="357.24140614570121" y="1456.0300605137179" type="line"/>
      <point x="202.03894584148179" y="1456.0208790960405" type="line"/>
    </contour>
  </outline>
</glyph>
<glyph name="asciicircum" format="1">
  <advance width="737.1999999999999"/>
  <unicode hex="005E"/>
  <outline>
    <contour>
      <point x="488.8069920308011" y="1231.7343744379261" type="line"/>
      <point x="563.85521501371306" y="1455.8233494214717" type="line"/>
      <point x="456.04340936626534" y="1455.7225883189972" type="line"/>
      <point x="84.774400850715281" y="729.264169483871" type="line"/>
      <point x="251.28918907227984" y="729.20335611106771" type="line"/>
    </contour>
    <contour>
      <point x="537.41607340809048" y="728.97425660787303" type="line"/>
      <point x="688.75134272679372" y="728.9687175352467" type="line"/>
      <point x="572.40561871873103" y="1456.0069236940672" type="line"/>
      <point x="475.00458274995162" y="1455.9964640421754" type="line"/>
      <point x="471.60314066760702" y="1252.7461423328309" type="line"/>
    </contour>
  </outline>
</glyph>
<glyph name="underscore" format="1">
  <advance width="804.13"/>
  <unicode hex="005F"/>
  <outline>
    <contour>
      <point x="322.12754586225088" y="157" type="move" name="_bottom"/>
    </contour>
    <contour>
      <point x="678.16790633707956" y="0.0" type="line"/>
      <point x="-79.765263273630595" y="0.0" type="line"/>
      <point x="-106.7409873046512" y="-151.91102330072286" type="line"/>
      <point x="651.19218230605361" y="-151.91979518244841" type="line"/>
    </contour>
  </outline>
</glyph>
<glyph name="grave" format="1">
  <advance width="614.01"/>
  <unicode hex="0060"/>
  <outline>
    <contour>
      <point x="413.6822388436431" y="1535.9767481877182" type="line"/>
      <point x="207.79587813973905" y="1535.914399605349" type="line"/>
      <point x="412.5091366400496" y="1242.1840336435775" type="line"/>
      <point x="555.2282945324781" y="1241.9978336850406" type="line"/>
    </contour>
    <contour>
      <point x="520.1181427197054" y="1641" type="move" name="mkmktop_acc"/>
    </contour>
  </outline>
</glyph>
<glyph name="a" format="1">
  <advance width="951.5699999999999"/>
  <unicode hex="0061"/>
  <outline>
    <contour>
      <point x="612.94962382629092" y="1290" type="move" name="top"/>
    </contour>
    <contour>
      <point x="323.13076189018176" y="0" type="move" name="bottom"/>
    </contour>
    <contour>
      <point x="712.10076189018173" y="0" type="move" name="ogonek"/>
    </contour>
    <contour>
      <point x="708.63405969925827" y="1288" type="move" name="rhalfring"/>
    </contour>
    <contour>
      <point x="1104.9520635163638" y="1600" type="move" name="top_dd"/>
    </contour>
    <contour>
      <point x="758.17846203902161" y="-407" type="move" name="bottom_dd"/>
    </contour>
    <contour>
      <point x="744.5902314298836" y="654" type="move" name="rhotichook"/>
    </contour>
    <contour>
      <point x="1051.389623826291" y="1290" type="move" name="top0315"/>
    </contour>
    <contour>
      <point x="572.97522919104495" y="184.88923894765165" type="line" smooth="yes"/>
      <point x="564.727432779217" y="123.66766371935239"/>
      <point x="561.14678461892754" y="59.967368276738924"/>
      <point x="574.79299848705853" y="-0.6495287327879502" type="curve"/>
      <point x="748.14263641276625" y="0.0" type="line"/>
      <point x="749.77287844963939" y="16.652882624127756" type="line"/>
      <point x="745.71143862442193" y="91.927370114861333"/>
      <point x="739.91898857138494" y="159.73771487237332"/>
      <point x="752.34680462892095" y="235.67157852175302" type="curve" smooth="yes"/>
      <point x="840.33745335455751" y="770.1432920922831" type="line"/>
      <point x="859.80010464088559" y="970.26295182706394"/>
      <point x="754.72045136625059" y="1099.9570166446249"/>
      <point x="551.39332018047526" y="1103.2483048083782" type="curve" smooth="yes"/>
      <point x="362.2973117879967" y="1106.3092315553677"/>
      <point x="183.02535467826254" y="976.03561772787327"/>
      <point x="163.8020730067675" y="781.78481173288458" type="curve"/>
      <point x="335.2951880472562" y="783.06922382325081" type="line"/>
      <point x="355.27337015032663" y="882.15680551019386"/>
      <point x="427.55571993005594" y="952.25029691749774"/>
      <point x="532.47147982286572" y="951.45696032416777" type="curve" smooth="yes"/>
      <point x="645.89607507651272" y="950.59928286855677"/>
      <point x="677.99577568144298" y="877.48511405456611"/>
      <point x="667.61183795105865" y="774.05312626703221" type="curve"/>
    </contour>
    <contour>
      <point x="681.01783628540682" y="656.12739264342724" type="line"/>
      <point x="523.07668991211438" y="657.15825810571005" type="line" smooth="yes"/>
      <point x="291.18625985134702" y="657.01193992423464"/>
      <point x="74.189475613435206" y="538.64156338781675"/>
      <point x="58.663264039600236" y="286.7562067001154" type="curve" smooth="yes"/>
      <point x="47.870636013764368" y="111.66488149451166"/>
      <point x="145.76389898142605" y="-21.33658003396658"/>
      <point x="328.45508014842289" y="-22.043782707731701" type="curve" smooth="yes"/>
      <point x="478.0565095437521" y="-22.622894026579385"/>
      <point x="605.00742486400941" y="105.01788935858627"/>
      <point x="637.46538487928694" y="245.36608469681732" type="curve"/>
      <point x="609.65019729174628" y="329.06996000154135" type="line"/>
      <point x="586.38229444617616" y="219.51260994681348"/>
      <point x="473.74751958529737" y="137.86814543343178"/>
      <point x="363.26688014047215" y="138.12209853539824" type="curve" smooth="yes"/>
      <point x="255.67082859280418" y="138.36942106346453"/>
      <point x="225.4412673661777" y="210.49722180424817"/>
      <point x="236.89363666849101" y="308.91505071102137" type="curve" smooth="yes"/>
      <point x="255.42134933019491" y="468.13601247350164"/>
      <point x="407.94791239205119" y="526.48838019765128"/>
      <point x="550.17574788405113" y="527.41622305970975" type="curve" smooth="yes"/>
      <point x="659.89403687003812" y="526.4288214196871" type="line"/>
    </contour>
  </outline>
</glyph>
<glyph name="b" format="1">
  <advance width="979.6999999999999"/>
  <unicode hex="0062"/>
  <outline>
    <contour>
      <point x="718.85266621504377" y="1611" type="move" name="top"/>
    </contour>
    <contour>
      <point x="403.8529412550181" y="-10" type="move" name="bottom"/>
    </contour>
    <contour>
      <point x="1133.0820635163636" y="1600" type="move" name="top_dd"/>
    </contour>
    <contour>
      <point x="786.30846203902161" y="-407" type="move" name="bottom_dd"/>
    </contour>
    <contour>
      <point x="1134.9826662150438" y="1611" type="move" name="top0315"/>
    </contour>
    <contour>
      <point x="291.05958366073281" y="1535.9471784542257" type="line"/>
      <point x="24.360772239705156" y="0.0" type="line"/>
      <point x="183.61536780089585" y="0.0" type="line"/>
      <point x="232.33697961914277" y="198.89795264123785" type="line"/>
      <point x="464.09812179951825" y="1535.9401303786399" type="line"/>
    </contour>
    <contour>
      <point x="885.2794789978982" y="590.32939438065785" type="line" smooth="yes"/>
      <point x="910.17905781560614" y="809.55961477134679"/>
      <point x="889.81777513882639" y="1095.3241835358153"/>
      <point x="610.95142669174834" y="1102.7054072050455" type="curve" smooth="yes"/>
      <point x="347.63280784611487" y="1109.6751030209653"/>
      <point x="245.11793382971345" y="822.83733029087682"/>
      <point x="208.76261227783408" y="606.72301036407339" type="curve" smooth="yes"/>
      <point x="190.85984040494378" y="471.81006749827202" type="line"/>
      <point x="174.93453984712681" y="275.57674873061251"/>
      <point x="206.86374993937733" y="-12.066129900232932"/>
      <point x="456.51134925526651" y="-20.37373293250695" type="curve" smooth="yes"/>
      <point x="742.8985866868469" y="-29.903932656481423"/>
      <point x="841.04920369301999" y="253.8872652252245"/>
      <point x="872.37354725157729" y="490.3748796811322" type="curve" smooth="yes"/>
    </contour>
    <contour>
      <point x="700.79235394124169" y="488.63718144234559" type="line" smooth="yes"/>
      <point x="680.47264666103081" y="325.55877975062924"/>
      <point x="623.11785762538818" y="126.8050216642508"/>
      <point x="422.09414995465818" y="136.35284071199226" type="curve" smooth="yes"/>
      <point x="292.12432637010124" y="142.52588553158552"/>
      <point x="228.39433884817186" y="277.69179937860173"/>
      <point x="233.24719376050302" y="396.0114324574858" type="curve"/>
      <point x="279.02232284840665" y="681.74972789124377" type="line"/>
      <point x="310.50392679135462" y="809.89189248657749"/>
      <point x="412.16397615725873" y="951.83989746180168"/>
      <point x="556.61688390192933" y="948.04530739075699" type="curve" smooth="yes"/>
      <point x="748.11810049594317" y="943.01481941771419"/>
      <point x="728.02813279259419" y="730.28942825474064"/>
      <point x="712.71436574770826" y="591.43486190428939" type="curve" smooth="yes"/>
    </contour>
  </outline>
</glyph>
<glyph name="c" format="2">
  <advance width="918"/>
  <unicode hex="0063"/>
  <anchor x="558.5522271629171" y="1290" name="top"/>
  <anchor x="356.01179917481244" y="-10" name="bottom"/>
  <anchor x="558.5522271629171" y="1290" name="marktop"/>
  <anchor x="1054.0203292216188" y="1600" name="top_dd"/>
  <anchor x="741.3290684738297" y="-407" name="bottom_dd"/>
  <anchor x="1005.7222271629172" y="1290" name="top0315"/>
  <anchor x="558.5522271629171" y="1290" name="parent_top"/>
  <outline>
    <contour>
      <point x="413.81461875475156" y="129.13018943784445" type="curve" smooth="yes"/>
      <point x="221.26898240685352" y="134.6445545428884"/>
      <point x="232.51033900583312" y="335.281328497211"/>
      <point x="249.25704873254995" y="479.13827263604315" type="curve" smooth="yes"/>
      <point x="264.81257386749587" y="602.3083285960078" type="line" smooth="yes"/>
      <point x="286.7722659879449" y="769.4026573889354"/>
      <point x="347.7121939808725" y="959.1429737031114"/>
      <point x="550.7458561344004" y="951.000283053571" type="curve" smooth="yes"/>
      <point x="685.719881203375" y="945.5871327404526"/>
      <point x="709.7728051217092" y="822.5599601638478"/>
      <point x="706.092705929636" y="709.6545892924637" type="curve"/>
      <point x="868.0828465515261" y="709.2283604872637" type="line"/>
      <point x="875.6276861678684" y="914.4243531404462"/>
      <point x="787.0289342046345" y="1095.7524522153635"/>
      <point x="561.3117140958518" y="1102.3015417758174" type="curve" smooth="yes"/>
      <point x="262.07903128056967" y="1110.9836513562373"/>
      <point x="126.92612105983201" y="866.8782020897539"/>
      <point x="91.67003439983289" y="601.8246479601264" type="curve" smooth="yes"/>
      <point x="75.97003946152459" y="479.7073214825712" type="line" smooth="yes"/>
      <point x="47.830399106413" y="232.97089207464617"/>
      <point x="116.42864095529586" y="-14.987720536484481"/>
      <point x="404.1124276360027" y="-21.051052836105736" type="curve" smooth="yes"/>
      <point x="617.8370107372859" y="-25.555592987266103"/>
      <point x="771.488638535116" y="139.2551993321624"/>
      <point x="800.7335605163316" y="341.58784492066917" type="curve"/>
      <point x="639.4427829170617" y="340.63099649235124" type="line"/>
      <point x="611.5694851299687" y="225.02623417140808"/>
      <point x="544.9110313070562" y="125.37568480981597"/>
    </contour>
  </outline>
</glyph>
<glyph name="d" format="1">
  <advance width="985.52"/>
  <unicode hex="0064"/>
  <outline>
    <contour>
      <point x="1090.9840114513165" y="1536" type="move" name="caron"/>
    </contour>
    <contour>
      <point x="863.06413684255278" y="1306" type="move" name="cross"/>
    </contour>
    <contour>
      <point x="421.10076189018173" y="0" type="move" name="bottom"/>
    </contour>
    <contour>
      <point x="643.36544827856005" y="1612" type="move" name="top"/>
    </contour>
    <contour>
      <point x="1138.9020635163638" y="1600" type="move" name="top_dd"/>
    </contour>
    <contour>
      <point x="792.12846203902166" y="-407" type="move" name="bottom_dd"/>
    </contour>
    <contour>
      <point x="1140.9754482785602" y="1612" type="move" name="top0315"/>
    </contour>
    <contour>
      <point x="613.06903473052796" y="221.01511734665658" type="line"/>
      <point x="589.76140376934825" y="0.0" type="line"/>
      <point x="746.42627113694437" y="0.0" type="line"/>
      <point x="1013.0987237136544" y="1535.9373544282064" type="line"/>
      <point x="841.06716455033177" y="1535.9475138899707" type="line"/>
    </contour>
    <contour>
      <point x="75.569634864685312" y="488.72380712245348" type="line" smooth="yes"/>
      <point x="52.420411877401634" y="278.21467724539207"/>
      <point x="86.83639867471561" y="-12.891873981599085"/>
      <point x="354.8809396408862" y="-21.047352529322676" type="curve" smooth="yes"/>
      <point x="616.26931340686497" y="-29.000311642718088"/>
      <point x="721.22015889760098" y="258.21864412595278"/>
      <point x="757.31080722790887" y="472.23900713605144" type="curve" smooth="yes"/>
      <point x="775.15303228277162" y="607.18409259274699" type="line" smooth="yes"/>
      <point x="791.53303538653358" y="802.8272542981216"/>
      <point x="762.59122830570323" y="1093.4547669724088"/>
      <point x="512.31958385313601" y="1102.2391708602595" type="curve" smooth="yes"/>
      <point x="225.54328595987039" y="1112.3048690006433"/>
      <point x="119.01911567917851" y="827.57050715708647"/>
      <point x="88.117313054205269" y="589.20415681672421" type="curve" smooth="yes"/>
    </contour>
    <contour>
      <point x="260.54187105593053" y="590.36657012943454" type="line" smooth="yes"/>
      <point x="281.40566012207842" y="756.23810639478233"/>
      <point x="344.20287519232562" y="956.39558234978188"/>
      <point x="547.37113295108179" y="946.6413648311551" type="curve" smooth="yes"/>
      <point x="678.27920087237248" y="940.35639795919599"/>
      <point x="738.53106758180002" y="799.34324110133912"/>
      <point x="733.58386831690814" y="682.04216014772703" type="curve"/>
      <point x="687.63752924483867" y="396.19590600587696" type="line"/>
      <point x="652.87507664790007" y="269.44315532139979"/>
      <point x="553.04360178785214" y="130.90871238904072"/>
      <point x="409.61919256118119" y="134.88073603663594" type="curve" smooth="yes"/>
      <point x="221.90460523867898" y="140.07934054101418"/>
      <point x="233.72067616808502" y="349.89405446411945"/>
      <point x="248.64533923670109" y="487.6740970198498" type="curve" smooth="yes"/>
    </contour>
  </outline>
</glyph>
<glyph name="e" format="1">
  <advance width="931.1999999999999"/>
  <unicode hex="0065"/>
  <outline>
    <contour>
      <point x="586.68222716291712" y="1290" type="move" name="top"/>
    </contour>
    <contour>
      <point x="388.6098024670286" y="0" type="move" name="bottom"/>
    </contour>
    <contour>
      <point x="588.60061102679072" y="26" type="move" name="ogonek"/>
    </contour>
    <contour>
      <point x="1068.570329221619" y="1600" type="move" name="top_dd"/>
    </contour>
    <contour>
      <point x="755.87906847382965" y="-407" type="move" name="bottom_dd"/>
    </contour>
    <contour>
      <point x="767.92321777796747" y="654" type="move" name="rhotichook"/>
    </contour>
    <contour>
      <point x="1020.2722271629171" y="1290" type="move" name="top0315"/>
    </contour>
    <contour>
      <point x="413.41466199156878" y="-20.065150185355108" type="curve" smooth="yes"/>
      <point x="551.84226261902495" y="-22.150322272875488"/>
      <point x="683.57089728511244" y="28.680028945675858"/>
      <point x="768.55464460483017" y="140.41984139475377" type="curve"/>
      <point x="684.62917984691728" y="252.77263850793875" type="line"/>
      <point x="615.48597356549681" y="178.96799100667664"/>
      <point x="533.91809110052463" y="128.67393621560987"/>
      <point x="429.64493680066641" y="131.10237554365196" type="curve" smooth="yes"/>
      <point x="244.44126065782649" y="135.41562274388417"/>
      <point x="232.0323228843281" y="314.86437255595536"/>
      <point x="248.09506239136209" y="462.05353778221678" type="curve" smooth="yes"/>
      <point x="262.79689391176709" y="585.44492550993004" type="line" smooth="yes"/>
      <point x="283.31413430430155" y="747.78058580422453"/>
      <point x="339.2258637614849" y="961.94121879543286"/>
      <point x="542.76972721993059" y="950.78378696087771" type="curve" smooth="yes"/>
      <point x="694.03889069909053" y="942.49183773916377"/>
      <point x="702.25519011686413" y="787.32948390057436"/>
      <point x="686.45549424826982" y="666.4823131939055" type="curve" smooth="yes"/>
      <point x="681.71242138492755" y="639.29615988322848" type="line"/>
      <point x="203.7709183054572" y="639.93041720096664" type="line"/>
      <point x="176.98183272447159" y="489.0875658710624" type="line"/>
      <point x="834.10086031241281" y="488.99792940177593" type="line"/>
      <point x="849.24570574603683" y="592.28234929753364" type="line" smooth="yes"/>
      <point x="878.84802039034821" y="829.55238622365368"/>
      <point x="843.22896791146081" y="1093.9980715560446"/>
      <point x="554.30515099457841" y="1102.3279016675756" type="curve" smooth="yes"/>
      <point x="260.2176159289279" y="1110.8066045698029"/>
      <point x="122.93078614197509" y="840.4523024835346"/>
      <point x="90.196487972633591" y="584.83219347181023" type="curve" smooth="yes"/>
      <point x="75.237137402649907" y="462.73716139923442" type="line" smooth="yes"/>
      <point x="48.612822283375735" y="214.52028803883408"/>
      <point x="132.6609047843134" y="-15.836081016045759"/>
    </contour>
  </outline>
</glyph>
<glyph name="f" format="1">
  <advance width="628.56"/>
  <unicode hex="0066"/>
  <outline>
    <contour>
      <point x="273.0687417170607" y="0.0" type="line"/>
      <point x="477.56019514205866" y="1196.3059133382494" type="line" smooth="yes"/>
      <point x="493.95207210798054" y="1299.8765802351577"/>
      <point x="546.5439240662005" y="1403.6717435318396"/>
      <point x="665.3320402688096" y="1402.724632879088" type="curve" smooth="yes"/>
      <point x="692.3513371711927" y="1402.5092050674164"/>
      <point x="718.9565772397691" y="1397.6266734807796"/>
      <point x="745.0256919359266" y="1391.054441030975" type="curve"/>
      <point x="768.8285879995185" y="1541.290839367796" type="line"/>
      <point x="731.9335778427075" y="1550.6152282949206"/>
      <point x="695.1494186938676" y="1558.1697613255456"/>
      <point x="656.9263200828286" y="1558.791751803131" type="curve" smooth="yes"/>
      <point x="438.26002586861716" y="1562.3500282828634"/>
      <point x="329.50310413630257" y="1394.7359293562395"/>
      <point x="303.4042881269262" y="1196.0610342602333" type="curve" smooth="yes"/>
      <point x="100.0540466304934" y="0.0" type="line"/>
    </contour>
    <contour>
      <point x="639.6532407755021" y="1081.905371118903" type="line"/>
      <point x="151.3811222504945" y="1081.9133252097638" type="line"/>
      <point x="126.062114695765" y="940.0938397308453" type="line"/>
      <point x="614.334233220773" y="940.0858856399839" type="line"/>
    </contour>
    <contour>
      <point x="625.2205012978839" y="1754" type="move" name="top"/>
    </contour>
    <contour>
      <point x="186.14858252534538" y="10" type="move" name="bottom"/>
    </contour>
    <contour>
      <point x="781.9420635163638" y="1600" type="move" name="top_dd"/>
    </contour>
    <contour>
      <point x="435.1684620390216" y="-407" type="move" name="bottom_dd"/>
    </contour>
    <contour>
      <point x="808.5505012978838" y="1754" type="move" name="top0315"/>
    </contour>
    <contour>
      <point x="625.2205012978839" y="1754" type="move" name="parent_top"/>
    </contour>
  </outline>
</glyph>
<glyph name="g" format="1">
  <advance width="979.6999999999999"/>
  <unicode hex="0067"/>
  <outline>
    <contour>
      <point x="589.66962382629094" y="1290" type="move" name="top"/>
    </contour>
    <contour>
      <point x="289.54717949836714" y="-447" type="move" name="bottom"/>
    </contour>
    <contour>
      <point x="1133.0820635163636" y="1600" type="move" name="top_dd"/>
    </contour>
    <contour>
      <point x="786.30846203902161" y="-407" type="move" name="bottom_dd"/>
    </contour>
    <contour>
      <point x="1079.5196238262911" y="1290" type="move" name="top0315"/>
    </contour>
    <contour>
      <point x="779.79144241248173" y="1081.886497576312" type="line"/>
      <point x="724.16775746765848" y="853.15438053928244" type="line"/>
      <point x="577.22570161141221" y="-18.541542918224962" type="line" smooth="yes"/>
      <point x="554.42149074093436" y="-170.38114825319875"/>
      <point x="468.91072923079719" y="-281.2848368656127"/>
      <point x="305.63787036186091" y="-276.30375857801783" type="curve" smooth="yes"/>
      <point x="217.23349545213424" y="-273.60674503001161"/>
      <point x="142.36598828874784" y="-231.6320952228572"/>
      <point x="85.38988495703687" y="-165.92144810279481" type="curve"/>
      <point x="3.509650141436893" y="-289.72130936345781" type="line"/>
      <point x="79.342638312793426" y="-373.09471903624427"/>
      <point x="199.57325709640128" y="-424.93775401453655"/>
      <point x="312.54977170510642" y="-428.44703881566909" type="curve" smooth="yes"/>
      <point x="572.82955392702297" y="-436.5318685429537"/>
      <point x="718.46984482296023" y="-250.38284967884357"/>
      <point x="750.91912021357928" y="-8.5082134788899708" type="curve" smooth="yes"/>
      <point x="936.47396806346842" y="1081.9440486927701" type="line"/>
    </contour>
    <contour>
      <point x="77.774091874489656" y="488.69235082218972" type="line" smooth="yes"/>
      <point x="53.91509425580864" y="276.45722685118585"/>
      <point x="85.825509081980499" y="-13.117815201691426"/>
      <point x="355.69718239707129" y="-20.927541997066601" type="curve" smooth="yes"/>
      <point x="617.47544786973947" y="-28.50305634874055"/>
      <point x="722.71148911058719" y="257.48118351578887"/>
      <point x="759.21502676191733" y="472.42910011287211" type="curve" smooth="yes"/>
      <point x="777.05602641151916" y="607.19058253582421" type="line" smooth="yes"/>
      <point x="793.19179111595884" y="803.04694807930139"/>
      <point x="763.57148197962431" y="1093.6233104603029"/>
      <point x="513.25563203576439" y="1102.1635360023859" type="curve" smooth="yes"/>
      <point x="224.10531973825618" y="1112.0287078767929"/>
      <point x="122.15030791824897" y="828.59583575310216"/>
      <point x="90.599283745019775" y="588.49764245599613" type="curve" smooth="yes"/>
    </contour>
    <contour>
      <point x="262.4674768296033" y="590.36874532351271" type="line" smooth="yes"/>
      <point x="283.2628816291475" y="755.79568934748249"/>
      <point x="345.03033844739616" y="956.72934794099069"/>
      <point x="548.208033349522" y="946.77934131609788" type="curve" smooth="yes"/>
      <point x="679.25774783408269" y="940.36158208352163"/>
      <point x="739.45044767477521" y="799.79040454507538"/>
      <point x="734.24228510657986" y="682.33769221305988" type="curve"/>
      <point x="688.64511497529418" y="396.18304772787741" type="line"/>
      <point x="653.88887519105947" y="269.24544877529735"/>
      <point x="554.07082030160814" y="131.12140821681174"/>
      <point x="410.55649867312002" y="135.07965233572293" type="curve" smooth="yes"/>
      <point x="222.70136439680428" y="140.26085287389205"/>
      <point x="235.49718062514836" y="349.89778014836554"/>
      <point x="250.51882725764358" y="487.60608693993925" type="curve" smooth="yes"/>
    </contour>
  </outline>
</glyph>
<glyph name="h" format="1">
  <advance width="959.3299999999999"/>
  <unicode hex="0068"/>
  <outline>
    <contour>
      <point x="606.33266621504379" y="1611" type="move" name="top"/>
    </contour>
    <contour>
      <point x="367.39413684255283" y="1306" type="move" name="cross"/>
    </contour>
    <contour>
      <point x="399.54858252534541" y="10" type="move" name="bottom"/>
    </contour>
    <contour>
      <point x="729.56076189018177" y="0" type="move" name="right"/>
    </contour>
    <contour>
      <point x="1112.7120635163637" y="1600" type="move" name="top_dd"/>
    </contour>
    <contour>
      <point x="765.9384620390216" y="-407" type="move" name="bottom_dd"/>
    </contour>
    <contour>
      <point x="1114.6126662150436" y="1611" type="move" name="top0315"/>
    </contour>
    <contour>
      <point x="464.08377154476148" y="1535.9359791828106" type="line"/>
      <point x="291.06150349264703" y="1535.9441083278625" type="line"/>
      <point x="24.403468148928525" y="0.0" type="line"/>
      <point x="197.42573620104571" y="0.0" type="line"/>
    </contour>
    <contour>
      <point x="262.54498281413765" y="578.37451513322151" type="line"/>
      <point x="284.39128039221004" y="725.63454951044207"/>
      <point x="368.97679437319948" y="953.98386349487816"/>
      <point x="553.94304632472881" y="948.31901318803193" type="curve" smooth="yes"/>
      <point x="685.81096375858817" y="944.28037368132811"/>
      <point x="687.0329816502408" y="814.95306394894862"/>
      <point x="675.65199223532602" y="712.08810746618587" type="curve"/>
      <point x="556.94817593211394" y="0.0" type="line"/>
      <point x="729.94129089753972" y="0.0" type="line"/>
      <point x="848.24687241058734" y="709.26739988488418" type="line"/>
      <point x="866.78579666078463" y="887.71023238649479"/>
      <point x="834.9226475103975" y="1095.2943827482547"/>
      <point x="617.8947810609053" y="1102.2897826641235" type="curve" smooth="yes"/>
      <point x="337.88759184677673" y="1111.3151778814101"/>
      <point x="228.96866785722636" y="808.7339967406856"/>
      <point x="200.01812583826774" y="580.82510556454588" type="curve"/>
    </contour>
  </outline>
</glyph>
<glyph name="i" format="1">
  <advance width="455.9"/>
  <unicode hex="0069"/>
  <outline>
    <contour>
      <point x="126.00858252534535" y="10" type="move" name="bottom"/>
    </contour>
    <contour>
      <point x="195.09076189018174" y="0" type="move" name="ogonek"/>
    </contour>
    <contour>
      <point x="401.70206351636375" y="1600" type="move" name="top"/>
    </contour>
    <contour>
      <point x="609.28206351636379" y="1600" type="move" name="top_dd"/>
    </contour>
    <contour>
      <point x="262.50846203902171" y="-407" type="move" name="bottom_dd"/>
    </contour>
    <contour>
      <point x="264.44023142988362" y="654" type="move" name="rhotichook"/>
    </contour>
    <contour>
      <point x="609.28206351636379" y="1600" type="move" name="top0315"/>
    </contour>
    <contour>
      <point x="398.03557007319932" y="1081.9352452079045" type="line"/>
      <point x="225.98357061325237" y="1081.9431612369815" type="line"/>
      <point x="37.984339350661926" y="0.0" type="line"/>
      <point x="210.03633881061143" y="0.0" type="line"/>
    </contour>
    <contour>
      <point x="266.06796207097887" y="1367.4601788516591" type="curve" smooth="yes"/>
      <point x="264.04144812700775" y="1309.2437458261827"/>
      <point x="301.18262102593519" y="1262.1771824480138"/>
      <point x="361.89615257469717" y="1263.8787553008456" type="curve" smooth="yes"/>
      <point x="421.31613614903915" y="1265.5440748496615"/>
      <point x="459.62158693704731" y="1313.3226652945561"/>
      <point x="461.85382219442693" y="1370.4697121560662" type="curve" smooth="yes"/>
      <point x="464.14277327229911" y="1429.0687303726386"/>
      <point x="427.04603713182462" y="1478.8021322700906"/>
      <point x="365.37793255367677" y="1477.1443795966206" type="curve" smooth="yes"/>
      <point x="304.4923420421913" y="1475.5076623481066"/>
      <point x="268.07574931614124" y="1425.1386429131269"/>
    </contour>
  </outline>
</glyph>
<glyph name="j" format="1">
  <advance width="445.22999999999996"/>
  <unicode hex="006A"/>
  <outline>
    <contour>
      <point x="373.57206351636376" y="1600" type="move" name="top"/>
    </contour>
    <contour>
      <point x="-8.3762052638292488" y="-459" type="move" name="bottom"/>
    </contour>
    <contour>
      <point x="598.61206351636383" y="1600" type="move" name="top_dd"/>
    </contour>
    <contour>
      <point x="251.83846203902169" y="-407" type="move" name="bottom_dd"/>
    </contour>
    <contour>
      <point x="598.61206351636383" y="1600" type="move" name="top0315"/>
    </contour>
    <contour>
      <point x="216.29827201121526" y="1081.9456670283" type="line"/>
      <point x="9.5540717866697804" y="-128.9132862759318" type="line" smooth="yes"/>
      <point x="-1.3645346909296485" y="-198.3350970591118"/>
      <point x="-24.949224271484638" y="-284.05389489191856"/>
      <point x="-110.22138310917047" y="-283.32434015167468" type="curve" smooth="yes"/>
      <point x="-133.47526815403441" y="-283.12538914240258"/>
      <point x="-156.18725799630857" y="-277.30130540630131"/>
      <point x="-178.67816219359679" y="-272.17589337723689" type="curve"/>
      <point x="-195.25276249427316" y="-420.7408972859198" type="line"/>
      <point x="-160.75590584311928" y="-431.21095596564942"/>
      <point x="-125.49607187880461" y="-439.42026465499976"/>
      <point x="-89.221992952286385" y="-440.02002554758297" type="curve" smooth="yes"/>
      <point x="96.0599415283463" y="-443.08350397879997"/>
      <point x="163.50600217356572" y="-288.53853494503744"/>
      <point x="183.30451718270996" y="-128.04668724597528" type="curve" smooth="yes"/>
      <point x="388.32344383025992" y="1081.935358248262" type="line"/>
    </contour>
    <contour>
      <point x="250.46644355569975" y="1367.4506682878739" type="curve" smooth="yes"/>
      <point x="248.44932640137151" y="1309.4436504547432"/>
      <point x="285.97150386906299" y="1262.1663999365228"/>
      <point x="346.37079503745406" y="1263.7548334345279" type="curve" smooth="yes"/>
      <point x="406.26549343017444" y="1265.3299967094522"/>
      <point x="444.18194349263922" y="1312.9746024070844"/>
      <point x="446.40959397085396" y="1370.488587784198" type="curve" smooth="yes"/>
      <point x="448.69143322104929" y="1429.4016311687387"/>
      <point x="411.98942738503581" y="1479.0227563679239"/>
      <point x="349.87379139379749" y="1477.2546446338092" type="curve" smooth="yes"/>
      <point x="289.30829719405006" y="1475.5306574401156"/>
      <point x="252.46431208477151" y="1424.9041459629027"/>
    </contour>
  </outline>
</glyph>
<glyph name="k" format="1">
  <advance width="895.31"/>
  <unicode hex="006B"/>
  <outline>
    <contour>
      <point x="360.61828839984355" y="71" type="move" name="bottom"/>
    </contour>
    <contour>
      <point x="327.5968417627746" y="1289" type="move" name="cross"/>
    </contour>
    <contour>
      <point x="642.22266621504377" y="1611" type="move" name="top"/>
    </contour>
    <contour>
      <point x="642.22266621504377" y="1611" type="move" name="marktop"/>
    </contour>
    <contour>
      <point x="1048.6920635163638" y="1600" type="move" name="top_dd"/>
    </contour>
    <contour>
      <point x="701.91846203902162" y="-407" type="move" name="bottom_dd"/>
    </contour>
    <contour>
      <point x="944.86266621504365" y="1611" type="move" name="top0315"/>
    </contour>
    <contour>
      <point x="465.05162237445472" y="1535.9363945374823" type="line"/>
      <point x="292.03112452221586" y="1535.9445451642107" type="line"/>
      <point x="25.373509480871078" y="0.0" type="line"/>
      <point x="198.39400733310868" y="0.0" type="line"/>
    </contour>
    <contour>
      <point x="925.78526281662425" y="1081.6173424790609" type="line"/>
      <point x="704.35938450766412" y="1081.6698575870637" type="line"/>
      <point x="392.16554881336083" y="725.97930835065245" type="line"/>
      <point x="202.39213573860917" y="509.71373286795114" type="line"/>
      <point x="176.88896839611158" y="294.64330206138737" type="line"/>
      <point x="460.46358510374228" y="572.37358387384927" type="line"/>
    </contour>
    <contour>
      <point x="578.8035132397963" y="0.0" type="line"/>
      <point x="767.79145970939089" y="0.0" type="line"/>
      <point x="479.51962736480164" y="681.33872726196546" type="line"/>
      <point x="368.52595393776949" y="526.42217023397643" type="line"/>
    </contour>
  </outline>
</glyph>
<glyph name="l" format="1">
  <advance width="455.9"/>
  <unicode hex="006C"/>
  <outline>
    <contour>
      <point x="417.49192367745104" y="1697" type="move" name="top"/>
    </contour>
    <contour>
      <point x="126.00858252534535" y="10" type="move" name="bottom"/>
    </contour>
    <contour>
      <point x="578.82401145131644" y="1536" type="move" name="caron"/>
    </contour>
    <contour>
      <point x="442.65964317888006" y="776" type="move" name="dot"/>
    </contour>
    <contour>
      <point x="654.20513970538195" y="1540" type="move" name="marktop"/>
    </contour>
    <contour>
      <point x="609.28206351636379" y="1600" type="move" name="top_dd"/>
    </contour>
    <contour>
      <point x="262.50846203902171" y="-407" type="move" name="bottom_dd"/>
    </contour>
    <contour>
      <point x="626.041923677451" y="1697" type="move" name="top0315"/>
    </contour>
    <contour>
      <point x="476.69274437729109" y="1535.9407463111365" type="line"/>
      <point x="304.64079690543213" y="1535.9494536339816" type="line"/>
      <point x="37.983593568915481" y="0.0" type="line"/>
      <point x="210.0355410407725" y="0.0" type="line"/>
    </contour>
  </outline>
</glyph>
<glyph name="m" format="1">
  <advance width="1495.74"/>
  <unicode hex="006D"/>
  <outline>
    <contour>
      <point x="879.69962382629103" y="1290" type="move" name="top"/>
    </contour>
    <contour>
      <point x="644.95858252534538" y="10" type="move" name="bottom"/>
    </contour>
    <contour>
      <point x="879.69962382629103" y="1290" type="move" name="marktop"/>
    </contour>
    <contour>
      <point x="1649.1220635163636" y="1600" type="move" name="top_dd"/>
    </contour>
    <contour>
      <point x="1302.3484620390216" y="-407" type="move" name="bottom_dd"/>
    </contour>
    <contour>
      <point x="1595.559623826291" y="1290" type="move" name="top0315"/>
    </contour>
    <contour>
      <point x="345.93244924468365" y="856.3838746122467" type="line"/>
      <point x="375.21798156742739" y="1081.9599712485285" type="line"/>
      <point x="213.39704070005968" y="1081.9392585524843" type="line"/>
      <point x="25.37331584521182" y="0.0" type="line"/>
      <point x="197.40504405900356" y="0.0" type="line"/>
    </contour>
    <contour>
      <point x="266.55098449782787" y="581.16841347982495" type="line"/>
      <point x="287.93708285048359" y="735.42309535396453"/>
      <point x="343.2534615647931" y="954.95859231006625"/>
      <point x="540.15724952831943" y="947.95053330911696" type="curve" smooth="yes"/>
      <point x="673.09653948130165" y="943.21905304065524"/>
      <point x="687.77059942272422" y="822.39099300102953"/>
      <point x="675.9636624818371" y="713.15453478028996" type="curve"/>
      <point x="556.94183225297047" y="0.0" type="line"/>
      <point x="729.94146330970136" y="0.0" type="line"/>
      <point x="850.28702507784874" y="721.20918803676648" type="line"/>
      <point x="868.01205866108955" y="895.11897468457187"/>
      <point x="822.68598509846947" y="1096.1405880826853"/>
      <point x="614.65765693436379" y="1102.3174393914906" type="curve" smooth="yes"/>
      <point x="326.96784199790909" y="1110.8596279751453"/>
      <point x="219.99076074767692" y="821.08530980639625"/>
      <point x="192.81244798011136" y="582.84081435324481" type="curve"/>
    </contour>
    <contour>
      <point x="847.21232248645765" y="684.42318216489252" type="line"/>
      <point x="866.98427378232441" y="802.7735927990077"/>
      <point x="927.91843371440245" y="949.51871618962286"/>
      <point x="1070.2719552756232" y="947.78265245764862" type="curve" smooth="yes"/>
      <point x="1207.5299127141998" y="946.10873136865405"/>
      <point x="1219.9035751707365" y="826.5650754586236"/>
      <point x="1208.0708530209715" y="714.30491354189871" type="curve"/>
      <point x="1089.634954928538" y="0.0" type="line"/>
      <point x="1262.4607936392756" y="0.0" type="line"/>
      <point x="1381.227269366324" y="711.2712045102611" type="line"/>
      <point x="1400.9660641214989" y="899.94641272207639"/>
      <point x="1357.5354783532596" y="1098.0085774808197"/>
      <point x="1134.2456539407572" y="1103.1545924394236" type="curve" smooth="yes"/>
      <point x="883.36403199397512" y="1108.9364975610465"/>
      <point x="752.22425005738239" y="865.62871984155788"/>
      <point x="726.83291749935677" y="646.68821774624678" type="curve"/>
    </contour>
  </outline>
</glyph>
<glyph name="n" format="1">
  <advance width="962.24"/>
  <unicode hex="006E"/>
  <outline>
    <contour>
      <point x="604.21962382629101" y="1290" type="move" name="top"/>
    </contour>
    <contour>
      <point x="373.35858252534541" y="10" type="move" name="bottom"/>
    </contour>
    <contour>
      <point x="154.48235764186558" y="1539" type="move" name="caron"/>
    </contour>
    <contour>
      <point x="728.59076189018174" y="0" type="move" name="right"/>
    </contour>
    <contour>
      <point x="604.21962382629101" y="1290" type="move" name="marktop"/>
    </contour>
    <contour>
      <point x="1115.6220635163636" y="1600" type="move" name="top_dd"/>
    </contour>
    <contour>
      <point x="768.84846203902157" y="-407" type="move" name="bottom_dd"/>
    </contour>
    <contour>
      <point x="1062.059623826291" y="1290" type="move" name="top0315"/>
    </contour>
    <contour>
      <point x="343.11823004699937" y="840.01524642425727" type="line"/>
      <point x="375.2548609576632" y="1081.9605837208928" type="line"/>
      <point x="212.42547069570486" y="1081.9388472330265" type="line"/>
      <point x="24.405791112478042" y="0.0" type="line"/>
      <point x="197.41152907212171" y="0.0" type="line"/>
    </contour>
    <contour>
      <point x="262.55735740277896" y="578.27174146093682" type="line"/>
      <point x="284.37814770745126" y="725.73099158577145"/>
      <point x="368.82527606339528" y="953.8146923569592"/>
      <point x="554.03963755154552" y="947.97769731480821" type="curve" smooth="yes"/>
      <point x="685.66669542827924" y="943.82949585750077"/>
      <point x="686.95940605300655" y="814.92711480348453"/>
      <point x="675.63102477472626" y="712.11882083513194" type="curve"/>
      <point x="556.94736963908167" y="0.0" type="line"/>
      <point x="729.93959469905735" y="0.0" type="line"/>
      <point x="848.25743592067522" y="709.2613479863677" type="line"/>
      <point x="866.78100236914759" y="887.21913385395646"/>
      <point x="835.02088317415644" y="1096.3863769026498"/>
      <point x="617.79863837488585" y="1102.6187538123543" type="curve" smooth="yes"/>
      <point x="337.7634791573015" y="1110.6533115153456"/>
      <point x="229.12827919644087" y="808.72373316853691"/>
      <point x="200.08264326231648" y="580.70649113439993" type="curve"/>
    </contour>
  </outline>
</glyph>
<glyph name="o" format="1">
  <advance width="997.16"/>
  <unicode hex="006F"/>
  <outline>
    <contour>
      <point x="596.38222716291705" y="1290" type="move" name="top"/>
    </contour>
    <contour>
      <point x="403.97400213780702" y="-1" type="move" name="bottom"/>
    </contour>
    <contour>
      <point x="1133.5603292216188" y="1600" type="move" name="top_dd"/>
    </contour>
    <contour>
      <point x="820.86906847382966" y="-407" type="move" name="bottom_dd"/>
    </contour>
    <contour>
      <point x="835.82321777796744" y="654" type="move" name="rhotichook"/>
    </contour>
    <contour>
      <point x="1085.262227162917" y="1290" type="move" name="top0315"/>
    </contour>
    <contour>
      <point x="76.496036176588902" y="488.75510600251556" type="line" smooth="yes"/>
      <point x="50.590723152662022" y="250.81169256556936"/>
      <point x="131.88233725686814" y="-12.557188235369367"/>
      <point x="409.63800345043956" y="-20.472505370609429" type="curve" smooth="yes"/>
      <point x="700.83363606357602" y="-28.770826741031126"/>
      <point x="854.87347525003975" y="231.54817205330977"/>
      <point x="888.73309714234938" y="489.40700755910041" type="curve" smooth="yes"/>
      <point x="901.55693179395246" y="592.24408276767167" type="line" smooth="yes"/>
      <point x="927.43067363936154" y="830.76330168925097"/>
      <point x="845.91203608266255" y="1094.5435639282948"/>
      <point x="567.50887529930651" y="1102.4705994109599" type="curve" smooth="yes"/>
      <point x="276.30873647023253" y="1110.7620061125215"/>
      <point x="123.34864725847682" y="848.28380138232637"/>
      <point x="89.337907160417032" y="591.18857076292056" type="curve" smooth="yes"/>
    </contour>
    <contour>
      <point x="262.34912947012805" y="592.35790055685311" type="line" smooth="yes"/>
      <point x="283.41814902863916" y="748.57353548206061"/>
      <point x="365.82669127885379" y="959.9286224886215"/>
      <point x="557.41140721667318" y="951.238493988453" type="curve" smooth="yes"/>
      <point x="736.39696074796689" y="943.11985335343718"/>
      <point x="743.63501911830394" y="726.07777227821316"/>
      <point x="728.81493939143922" y="592.87772922526233" type="curve" smooth="yes"/>
      <point x="715.95688028667587" y="488.63697474051645" type="line" smooth="yes"/>
      <point x="694.0037257430248" y="322.5988466979735"/>
      <point x="621.88257893840205" y="120.80188242917848"/>
      <point x="420.13739335691855" y="129.87118127502666" type="curve" smooth="yes"/>
      <point x="241.14367110220309" y="137.91770567648803"/>
      <point x="234.78200821931415" y="353.20374839003705"/>
      <point x="249.43975121092859" y="486.63269936870455" type="curve" smooth="yes"/>
    </contour>
  </outline>
</glyph>
<glyph name="p" format="1">
  <advance width="979.6999999999999"/>
  <unicode hex="0070"/>
  <outline>
    <contour>
      <point x="656.8118031911273" y="1280" type="move" name="top"/>
    </contour>
    <contour>
      <point x="39.408462039021671" y="-407" type="move" name="bottom"/>
    </contour>
    <contour>
      <point x="656.8118031911273" y="1280" type="move" name="marktop"/>
    </contour>
    <contour>
      <point x="1133.0820635163636" y="1600" type="move" name="top_dd"/>
    </contour>
    <contour>
      <point x="786.30846203902161" y="-407" type="move" name="bottom_dd"/>
    </contour>
    <contour>
      <point x="1077.7918031911272" y="1280" type="move" name="top0315"/>
    </contour>
    <contour>
      <point x="347.08137678253877" y="862.83773680637785" type="line"/>
      <point x="369.0206663749575" y="1081.9738444709649" type="line"/>
      <point x="212.4241144507514" y="1081.934957808144" type="line"/>
      <point x="-47.668415784072515" y="-415.93702759522336" type="line"/>
      <point x="125.33118771016557" y="-415.94645562791993" type="line"/>
    </contour>
    <contour>
      <point x="883.3020992731964" y="590.32784798032867" type="line" smooth="yes"/>
      <point x="908.21439951835259" y="809.78135355694212"/>
      <point x="888.30499895478647" y="1095.6105655275808"/>
      <point x="608.95070486046222" y="1102.9688343312559" type="curve" smooth="yes"/>
      <point x="344.44592188910622" y="1109.9359629349919"/>
      <point x="236.05478220075344" y="825.29325934083852"/>
      <point x="198.9798346980042" y="606.74987715337545" type="curve" smooth="yes"/>
      <point x="178.25196666994185" y="452.82664013162065" type="line"/>
      <point x="162.87360386515545" y="252.99492616353243"/>
      <point x="210.81052263718911" y="-12.431561182698136"/>
      <point x="455.70789981722248" y="-20.399724857662445" type="curve" smooth="yes"/>
      <point x="742.03373216405885" y="-29.715835641620625"/>
      <point x="839.09693004707708" y="254.31878503411539"/>
      <point x="870.4027377170305" y="490.4977953684384" type="curve" smooth="yes"/>
    </contour>
    <contour>
      <point x="698.5408606762104" y="488.6628972792339" type="line" smooth="yes"/>
      <point x="677.24954688600872" y="323.75536203828437"/>
      <point x="612.9988511528411" y="121.28269117136063"/>
      <point x="410.64027331007753" y="130.86236293242612" type="curve" smooth="yes"/>
      <point x="285.9291867940039" y="136.76619605146556"/>
      <point x="218.60571508127003" y="260.33477757014248"/>
      <point x="220.14092713384252" y="376.95815962258018" type="curve"/>
      <point x="269.44756516759799" y="681.71989326119717" type="line"/>
      <point x="301.02041297036521" y="809.46079030708847"/>
      <point x="402.84761874097057" y="951.76575669736758"/>
      <point x="546.94962593585149" y="948.12667296348263" type="curve" smooth="yes"/>
      <point x="737.00920542941935" y="943.32699849906874"/>
      <point x="726.66452218678012" y="730.82562833895167"/>
      <point x="710.94139946869223" y="591.37004303806248" type="curve" smooth="yes"/>
    </contour>
  </outline>
</glyph>
<glyph name="q" format="1">
  <advance width="994.25"/>
  <unicode hex="0071"/>
  <outline>
    <contour>
      <point x="576.08962382629102" y="1290" type="move" name="top"/>
    </contour>
    <contour>
      <point x="590.36846203902167" y="-407" type="move" name="bottom"/>
    </contour>
    <contour>
      <point x="576.08962382629102" y="1290" type="move" name="marktop"/>
    </contour>
    <contour>
      <point x="1147.6320635163638" y="1600" type="move" name="top_dd"/>
    </contour>
    <contour>
      <point x="800.85846203902167" y="-407" type="move" name="bottom_dd"/>
    </contour>
    <contour>
      <point x="1094.069623826291" y="1290" type="move" name="top0315"/>
    </contour>
    <contour>
      <point x="501.33165081154232" y="-415.93808782078952" type="line"/>
      <point x="674.37129562314442" y="-415.94470115361429" type="line"/>
      <point x="934.4891124183639" y="1081.941004971357" type="line"/>
      <point x="775.2238791222012" y="1081.8995954341244" type="line"/>
      <point x="726.87286493110446" y="885.15939576555297" type="line"/>
    </contour>
    <contour>
      <point x="75.325327731860185" y="488.72985700833846" type="line" smooth="yes"/>
      <point x="50.688099530879839" y="271.26353574585545"/>
      <point x="83.656243494466935" y="-13.512050268912709"/>
      <point x="357.91367590972277" y="-21.045846857029922" type="curve" smooth="yes"/>
      <point x="621.04383308542447" y="-28.273979429056347"/>
      <point x="729.3762198363288" y="254.79686591641919"/>
      <point x="766.04372486721195" y="472.25677464278846" type="curve" smooth="yes"/>
      <point x="783.82955475238589" y="607.18785796944053" type="line" smooth="yes"/>
      <point x="800.20500660993582" y="804.68135379619571"/>
      <point x="766.9417306215679" y="1093.6756964732936"/>
      <point x="516.03155240299839" y="1102.162843857044" type="curve" smooth="yes"/>
      <point x="223.63148242618905" y="1112.0534051189725"/>
      <point x="120.03470724527725" y="834.09588943866515"/>
      <point x="88.096294733982447" y="589.28852650509657" type="curve" smooth="yes"/>
    </contour>
    <contour>
      <point x="260.8863448868903" y="590.31536161537588" type="line" smooth="yes"/>
      <point x="282.29847120087283" y="756.11795960396739"/>
      <point x="349.04299373646722" y="960.63062891413858"/>
      <point x="552.57410226422849" y="950.22960123572909" type="curve" smooth="yes"/>
      <point x="683.33304472655118" y="943.54744149323119"/>
      <point x="747.00224083770433" y="799.93007331154115"/>
      <point x="742.16214794217262" y="682.34127221848587" type="curve"/>
      <point x="696.40021731922582" y="396.17228810668524" type="line"/>
      <point x="661.28816904113842" y="267.77544649720369"/>
      <point x="556.89845266375846" y="124.89524507570583"/>
      <point x="411.71134203319468" y="128.7839102116647" type="curve" smooth="yes"/>
      <point x="223.02109793694771" y="133.8377553534674"/>
      <point x="233.27290739741426" y="349.08700839442361"/>
      <point x="248.52207217275338" y="486.93402784090131" type="curve" smooth="yes"/>
    </contour>
  </outline>
</glyph>
<glyph name="r" format="1">
  <advance width="605.28"/>
  <unicode hex="0072"/>
  <outline>
    <contour>
      <point x="470.359623826291" y="1290" type="move" name="top"/>
    </contour>
    <contour>
      <point x="125.21136458886171" y="11" type="move" name="bottom"/>
    </contour>
    <contour>
      <point x="758.66206351636379" y="1600" type="move" name="top_dd"/>
    </contour>
    <contour>
      <point x="411.88846203902165" y="-407" type="move" name="bottom_dd"/>
    </contour>
    <contour>
      <point x="705.09962382629101" y="1290" type="move" name="top0315"/>
    </contour>
    <contour>
      <point x="354.26449147150936" y="905.01026263399024" type="line"/>
      <point x="379.10985539009079" y="1081.9544163556113" type="line"/>
      <point x="212.44491089056953" y="1081.9367977267364" type="line"/>
      <point x="24.405751594787162" y="0.0" type="line"/>
      <point x="197.40547411564484" y="0.0" type="line"/>
    </contour>
    <contour>
      <point x="642.56498512762653" y="1088.9691978739756" type="line"/>
      <point x="617.70244984369185" y="1096.4825661517696"/>
      <point x="593.491795007478" y="1103.5398869468338"/>
      <point x="567.28436111063866" y="1104.6717929487045" type="curve" smooth="yes"/>
      <point x="327.16350162439363" y="1115.0426763818816"/>
      <point x="259.27006557947311" y="805.60690243279294"/>
      <point x="234.55857155151489" y="625.16280170451751" type="curve"/>
      <point x="285.51358673341593" y="654.98284520873528" type="line"/>
      <point x="322.7158252698357" y="784.56364415388236"/>
      <point x="390.46692365282649" y="928.78149259878887"/>
      <point x="546.52508247365859" y="927.4847974838176" type="curve" smooth="yes"/>
      <point x="572.76467873574563" y="927.26677135465559"/>
      <point x="598.2153713848719" y="922.7880293711645"/>
      <point x="623.69879416864717" y="917.04731111241051" type="curve"/>
    </contour>
  </outline>
</glyph>
<glyph name="s" format="1">
  <advance width="905.98"/>
  <unicode hex="0073"/>
  <outline>
    <contour>
      <point x="592.50222716291705" y="1290" type="move" name="top"/>
    </contour>
    <contour>
      <point x="389.96179917481243" y="-10" type="move" name="bottom"/>
    </contour>
    <contour>
      <point x="1042.3803292216189" y="1600" type="move" name="top_dd"/>
    </contour>
    <contour>
      <point x="729.68906847382959" y="-407" type="move" name="bottom_dd"/>
    </contour>
    <contour>
      <point x="994.08222716291709" y="1290" type="move" name="top0315"/>
    </contour>
    <contour>
      <point x="584.47406492266396" y="284.92932406172878" type="curve" smooth="yes"/>
      <point x="570.15713717570304" y="182.03556064242514"/>
      <point x="480.33104624495792" y="132.16825514649355"/>
      <point x="382.78786450106907" y="133.13147052019056" type="curve" smooth="yes"/>
      <point x="264.85832865471161" y="134.29599621957172"/>
      <point x="217.62702419497379" y="214.57120779076257"/>
      <point x="220.61087683959749" y="324.38063416021498" type="curve"/>
      <point x="47.399628582938092" y="324.82871182626224" type="line"/>
      <point x="39.453795300076195" y="123.89378462253038"/>
      <point x="173.72613359362134" y="-15.763984836133695"/>
      <point x="375.32889500735627" y="-20.206695990251692" type="curve" smooth="yes"/>
      <point x="571.4049792706677" y="-24.527616003964592"/>
      <point x="743.69734262805309" y="93.994153797333155"/>
      <point x="755.65594140308974" y="299.19579162211255" type="curve" smooth="yes"/>
      <point x="766.33664445457714" y="482.46958485785967"/>
      <point x="620.26347193304605" y="556.52885724848443"/>
      <point x="476.48339932987801" y="626.51214535589838" type="curve" smooth="yes"/>
      <point x="404.12591097881403" y="661.73131629050658"/>
      <point x="319.10025190534196" y="699.61087766353558"/>
      <point x="331.92394241410307" y="792.96918961403526" type="curve" smooth="yes"/>
      <point x="345.15074438128863" y="889.26221098072881"/>
      <point x="421.95668392129625" y="949.78314042215516"/>
      <point x="518.30684077466299" y="948.61242199395144" type="curve" smooth="yes"/>
      <point x="620.59847028044703" y="947.36951072505065"/>
      <point x="663.95295883540518" y="865.83567318951953"/>
      <point x="660.19503977451143" y="773.5187868823557" type="curve"/>
      <point x="831.36362587429119" y="773.25349219901489" type="line"/>
      <point x="839.12709691055557" y="963.29301885979919"/>
      <point x="721.64351544844965" y="1098.3423702808414"/>
      <point x="527.81690635170798" y="1102.3301629982191" type="curve" smooth="yes"/>
      <point x="341.0970162168154" y="1106.1717419307477"/>
      <point x="173.10320748866897" y="980.10489792534952"/>
      <point x="162.01121491829855" y="786.83060625624626" type="curve" smooth="yes"/>
      <point x="151.97341063347341" y="611.92519582124066"/>
      <point x="287.18916499254863" y="539.72640097964188"/>
      <point x="424.87739654076404" y="471.33913559520221" type="curve" smooth="yes"/>
      <point x="501.43514940394954" y="433.31427825321782"/>
      <point x="598.46223701941153" y="385.46036646339053"/>
    </contour>
  </outline>
</glyph>
<glyph name="t" format="1">
  <advance width="587.8199999999999"/>
  <unicode hex="0074"/>
  <outline>
    <contour>
      <point x="291.12076189018171" y="0" type="move" name="bottom"/>
    </contour>
    <contour>
      <point x="650.96785907328012" y="1656" type="move" name="caron"/>
    </contour>
    <contour>
      <point x="273.88865476372729" y="675" type="move" name="cross"/>
    </contour>
    <contour>
      <point x="432.55099795791648" y="1481" type="move" name="top"/>
    </contour>
    <contour>
      <point x="623.72880414540373" y="1358" type="move" name="marktop"/>
    </contour>
    <contour>
      <point x="741.20206351636375" y="1600" type="move" name="top_dd"/>
    </contour>
    <contour>
      <point x="394.42846203902167" y="-407" type="move" name="bottom_dd"/>
    </contour>
    <contour>
      <point x="720.6409979579164" y="1481" type="move" name="top0315"/>
    </contour>
    <contour>
      <point x="596.97436011997866" y="1081.9058373410271" type="line"/>
      <point x="105.79472671379345" y="1081.9138136839483" type="line"/>
      <point x="80.473124357059717" y="940.0925439089508" type="line"/>
      <point x="571.65275776322972" y="940.08456756597957" type="line"/>
    </contour>
    <contour>
      <point x="311.33774876673823" y="1344.9469980870736" type="line"/>
      <point x="130.67846815546102" y="268.95087479875946" type="line"/>
      <point x="119.59982801910816" y="143.42119449047988"/>
      <point x="146.04243912147834" y="-17.171543740252119"/>
      <point x="302.02465094677626" y="-19.353151332177237" type="curve" smooth="yes"/>
      <point x="340.21961581662134" y="-19.887355997941906"/>
      <point x="378.96161221492878" y="-14.601008376208869"/>
      <point x="414.67310664714353" y="-0.86621787079772927" type="curve"/>
      <point x="429.88435569237072" y="151.37780479845077" type="line"/>
      <point x="406.82080188727195" y="146.61879169642845"/>
      <point x="383.2246697899152" y="141.05135254181073"/>
      <point x="359.49698246195271" y="141.26211123707324" type="curve" smooth="yes"/>
      <point x="291.41308078859993" y="141.86685935629453"/>
      <point x="295.49097517152074" y="214.71505044779877"/>
      <point x="300.66831800789646" y="265.55784803885888" type="curve"/>
      <point x="484.29137744998729" y="1344.9331392772649" type="line"/>
    </contour>
  </outline>
</glyph>
<glyph name="u" format="1">
  <advance width="960.3"/>
  <unicode hex="0075"/>
  <outline>
    <contour>
      <point x="599.36962382629099" y="1290" type="move" name="top"/>
    </contour>
    <contour>
      <point x="717.92076189018178" y="0" type="move" name="ogonek"/>
    </contour>
    <contour>
      <point x="328.95076189018175" y="0" type="move" name="bottomu"/>
    </contour>
    <contour>
      <point x="1113.6820635163638" y="1600" type="move" name="top_dd"/>
    </contour>
    <contour>
      <point x="766.90846203902163" y="-407" type="move" name="bottom_dd"/>
    </contour>
    <contour>
      <point x="778.54023142988353" y="654" type="move" name="rhotichook"/>
    </contour>
    <contour>
      <point x="1060.119623826291" y="1290" type="move" name="top0315"/>
    </contour>
    <contour>
      <point x="374.54076189018173" y="0" type="move" name="bottom"/>
    </contour>
    <contour>
      <point x="600.47635666909173" y="260.37309285394372" type="line"/>
      <point x="564.11829099022498" y="0.0" type="line"/>
      <point x="727.99359024008004" y="0.0" type="line"/>
      <point x="916.0145922043215" y="1081.9371067481898" type="line"/>
      <point x="743.01095628316943" y="1081.9469527657877" type="line"/>
    </contour>
    <contour>
      <point x="664.6343634998974" y="481.8652934889559" type="line"/>
      <point x="642.39595689516955" y="316.27960589598126"/>
      <point x="569.18650892024209" y="126.91005279606247"/>
      <point x="368.89099801490573" y="136.57771898354451" type="curve" smooth="yes"/>
      <point x="248.47140641561862" y="142.39001307217757"/>
      <point x="256.30966899405774" y="295.36812994475622"/>
      <point x="265.27164970206576" y="380.91867404350734" type="curve"/>
      <point x="381.5410036026671" y="1081.9411100735631" type="line"/>
      <point x="209.5097038701652" y="1081.9471762504238" type="line"/>
      <point x="92.636885904480991" y="383.71375645860576" type="line"/>
      <point x="72.857036450587742" y="202.71569445942666"/>
      <point x="106.73739447023939" y="-15.096176144255228"/>
      <point x="328.58050761744119" y="-21.083491564621603" type="curve" smooth="yes"/>
      <point x="618.8634141573641" y="-28.917925989647046"/>
      <point x="694.72796655475736" y="248.29787497057535"/>
      <point x="725.12672493564389" y="483.8693783807368" type="curve"/>
    </contour>
  </outline>
</glyph>
<glyph name="v" format="1">
  <advance width="849.72"/>
  <unicode hex="0076"/>
  <outline>
    <contour>
      <point x="538.56422387070086" y="1280" type="move" name="top"/>
    </contour>
    <contour>
      <point x="340.69780575924483" y="10" type="move" name="bottom"/>
    </contour>
    <contour>
      <point x="986.12032922161882" y="1600" type="move" name="top_dd"/>
    </contour>
    <contour>
      <point x="673.4290684738296" y="-407" type="move" name="bottom_dd"/>
    </contour>
    <contour>
      <point x="936.2642238707009" y="1280" type="move" name="top0315"/>
    </contour>
    <contour>
      <point x="333.24486646694851" y="174.17120802850565" type="line"/>
      <point x="279.38634641664601" y="0.0" type="line"/>
      <point x="398.51753234673009" y="0.0" type="line"/>
      <point x="879.63518407719812" y="1081.785143521349" type="line"/>
      <point x="698.11500450147321" y="1081.8369968943909" type="line"/>
    </contour>
    <contour>
      <point x="292.91795969411606" y="1082.0109116909634" type="line"/>
      <point x="122.51277759594879" y="1082.01622418035" type="line"/>
      <point x="268.53540331281852" y="0.0" type="line"/>
      <point x="378.10978723662492" y="0.0" type="line"/>
      <point x="384.92119277749021" y="150.95057161006886" type="line"/>
    </contour>
  </outline>
</glyph>
<glyph name="w" format="1">
  <advance width="1291.07"/>
  <unicode hex="0077"/>
  <outline>
    <contour>
      <point x="760.38962382629097" y="1290" type="move" name="top"/>
    </contour>
    <contour>
      <point x="541.16858252534541" y="10" type="move" name="bottom"/>
    </contour>
    <contour>
      <point x="760.38962382629097" y="1290" type="move" name="marktop"/>
    </contour>
    <contour>
      <point x="1444.452063516364" y="1600" type="move" name="top_dd"/>
    </contour>
    <contour>
      <point x="1097.6784620390217" y="-407" type="move" name="bottom_dd"/>
    </contour>
    <contour>
      <point x="1390.889623826291" y="1290" type="move" name="top0315"/>
    </contour>
    <contour>
      <point x="275.15349297282756" y="202.78268936511111" type="line"/>
      <point x="229.26870329302415" y="0.0" type="line"/>
      <point x="341.90535611226727" y="0.0" type="line"/>
      <point x="727.26444758136029" y="894.90014110994321" type="line"/>
      <point x="773.45972548217105" y="1081.8885159682411" type="line"/>
      <point x="656.82415008057285" y="1081.7785896365801" type="line"/>
    </contour>
    <contour>
      <point x="300.2856512373279" y="1082.0016434430222" type="line"/>
      <point x="134.47409009820063" y="1082.0218555055726" type="line"/>
      <point x="202.77574444067068" y="0.0" type="line"/>
      <point x="314.38689493272204" y="0.0" type="line"/>
      <point x="339.99674143657114" y="170.91236487400735" type="line"/>
    </contour>
    <contour>
      <point x="816.65776741437878" y="199.04970937798649" type="line"/>
      <point x="766.42506125335842" y="0.0" type="line"/>
      <point x="882.81187271740941" y="0.0" type="line"/>
      <point x="1327.2002605508249" y="1081.7899905754325" type="line"/>
      <point x="1152.0107571030153" y="1081.8411697163292" type="line"/>
    </contour>
    <contour>
      <point x="793.73325927614258" y="1082.0260617224744" type="line"/>
      <point x="677.93200990833884" y="1081.9634918928002" type="line"/>
      <point x="660.86643153442219" y="918.49715112010358" type="line"/>
      <point x="745.22332881232126" y="0.0" type="line"/>
      <point x="849.30499525866355" y="0.0" type="line"/>
      <point x="869.05958138299468" y="195.71165505744668" type="line"/>
    </contour>
  </outline>
</glyph>
<glyph name="x" format="1">
  <advance width="872.03"/>
  <unicode hex="0078"/>
  <outline>
    <contour>
      <point x="326.7648558939671" y="1082.0004479808952" type="line"/>
      <point x="139.01319734875383" y="1081.9975514265689" type="line"/>
      <point x="336.77365054969454" y="557.3445967523459" type="line"/>
      <point x="-47.929575743089316" y="0.0" type="line"/>
      <point x="160.67573016097123" y="0.0" type="line"/>
      <point x="410.11815447641857" y="404.6660209455005" type="line"/>
      <point x="531.1517456544317" y="0.0" type="line"/>
      <point x="719.8351848454811" y="0.0" type="line"/>
      <point x="516.5127972169042" y="538.7155122475788" type="line"/>
      <point x="891.3055111386728" y="1081.6741809324635" type="line"/>
      <point x="681.8642479900255" y="1081.735017360004" type="line"/>
      <point x="440.9999667397599" y="689.5726192372005" type="line"/>
    </contour>
    <contour>
      <point x="343.6078057592448" y="10" type="move" name="bottom"/>
    </contour>
    <contour>
      <point x="539.5342238707009" y="1280" type="move" name="top"/>
    </contour>
    <contour>
      <point x="1008.430329221619" y="1600" type="move" name="top_dd"/>
    </contour>
    <contour>
      <point x="695.7390684738297" y="-407" type="move" name="bottom_dd"/>
    </contour>
    <contour>
      <point x="958.5742238707008" y="1280" type="move" name="top0315"/>
    </contour>
    <contour>
      <point x="539.5342238707009" y="1280" type="move" name="parent_top"/>
    </contour>
  </outline>
</glyph>
<glyph name="y" format="1">
  <advance width="827.41"/>
  <unicode hex="0079"/>
  <outline>
    <contour>
      <point x="550.86962382629099" y="1290" type="move" name="top"/>
    </contour>
    <contour>
      <point x="467.52119585459627" y="-158" type="move" name="bottom"/>
    </contour>
    <contour>
      <point x="550.86962382629099" y="1290" type="move" name="marktop"/>
    </contour>
    <contour>
      <point x="980.79206351636367" y="1600" type="move" name="top_dd"/>
    </contour>
    <contour>
      <point x="634.01846203902164" y="-407" type="move" name="bottom_dd"/>
    </contour>
    <contour>
      <point x="628.19023142988362" y="654" type="move" name="rhotichook"/>
    </contour>
    <contour>
      <point x="927.22962382629112" y="1290" type="move" name="top0315"/>
    </contour>
    <contour>
      <point x="289.58388573868973" y="123.42187058173097" type="line"/>
      <point x="191.16802028097186" y="-99.101888685095773" type="line" smooth="yes"/>
      <point x="147.77880639162447" y="-201.12906225060237"/>
      <point x="87.5478042950472" y="-283.86246154428721"/>
      <point x="-33.816805255267056" y="-277.93493369893275" type="curve" smooth="yes"/>
      <point x="-46.125989816611863" y="-277.33374497916242"/>
      <point x="-58.221489428636701" y="-274.71531105097108"/>
      <point x="-70.246718753755857" y="-272.24552615440575" type="curve"/>
      <point x="-86.590484488154246" y="-422.3428491608467" type="line"/>
      <point x="-55.095740931195024" y="-430.74946938495054"/>
      <point x="-22.596798714820522" y="-439.35965802015596"/>
      <point x="10.22979661183318" y="-440.03976274549433" type="curve" smooth="yes"/>
      <point x="167.51740271997875" y="-443.2984632926221"/>
      <point x="262.04624727821016" y="-295.73591117860815"/>
      <point x="316.69278494945115" y="-167.75140855316997" type="curve" smooth="yes"/>
      <point x="876.25726446357339" y="1081.7117957658377" type="line"/>
      <point x="687.00072624440247" y="1081.8253238158975" type="line"/>
    </contour>
    <contour>
      <point x="302.87960305628297" y="1082.0139875948159" type="line"/>
      <point x="120.49692181797236" y="1082.0231087522966" type="line"/>
      <point x="247.50559483367437" y="-24.416364767271254" type="line"/>
      <point x="377.12745023569522" y="40.562259065896434" type="line"/>
      <point x="366.52205743253921" y="232.97121037007759" type="line"/>
    </contour>
  </outline>
</glyph>
<glyph name="z" format="1">
  <advance width="872.03"/>
  <unicode hex="007A"/>
  <outline>
    <contour>
      <point x="558.62962382629098" y="1290" type="move" name="top"/>
    </contour>
    <contour>
      <point x="343.28858252534536" y="10" type="move" name="bottom"/>
    </contour>
    <contour>
      <point x="1025.4120635163638" y="1600" type="move" name="top_dd"/>
    </contour>
    <contour>
      <point x="678.63846203902165" y="-407" type="move" name="bottom_dd"/>
    </contour>
    <contour>
      <point x="971.84962382629101" y="1290" type="move" name="top0315"/>
    </contour>
    <contour>
      <point x="717.11130407822088" y="151.91151779224271" type="line"/>
      <point x="80.432455944746565" y="151.92031717575912" type="line"/>
      <point x="53.455497068226563" y="0.0" type="line"/>
      <point x="690.13434520169528" y="0.0" type="line"/>
    </contour>
    <contour>
      <point x="834.05726645950892" y="941.09221694097903" type="line"/>
      <point x="858.92439986042223" y="1081.9051957471727" type="line"/>
      <point x="742.99818501589959" y="1081.6422378978205" type="line"/>
      <point x="13.059439190814331" y="145.76499754598731" type="line"/>
      <point x="-12.582664954478204" y="0.0" type="line"/>
      <point x="99.455242400119928" y="0.0" type="line"/>
    </contour>
    <contour>
      <point x="784.14449253911437" y="1081.9084522374746" type="line"/>
      <point x="178.51040401998569" y="1081.9172383190541" type="line"/>
      <point x="151.35749933571731" y="929.09311246034974" type="line"/>
      <point x="756.99158785484781" y="929.08432637877627" type="line"/>
    </contour>
  </outline>
</glyph>
<glyph name="braceleft" format="1">
  <advance width="609.16"/>
  <unicode hex="007B"/>
  <outline>
    <contour>
      <point x="681.6922989381344" y="1599.2596895222612" type="line"/>
      <point x="458.23534077338019" y="1523.7587621432435"/>
      <point x="349.09736974515715" y="1360.5044030460831"/>
      <point x="318.44527968403168" y="1131.8106083800496" type="curve" smooth="yes"/>
      <point x="290.4706086206462" y="924.93925931846331" type="line" smooth="yes"/>
      <point x="272.68656104328602" y="799.94504929501943"/>
      <point x="218.1577347257724" y="692.85359610518583"/>
      <point x="80.133008067463948" y="685.79592375391553" type="curve"/>
      <point x="68.454183834766724" y="564.18588875117098" type="line"/>
      <point x="297.74919595236759" y="570.75487172513692"/>
      <point x="434.98912851756882" y="698.31406579370071"/>
      <point x="463.17670419499382" y="925.22358580240711" type="curve" smooth="yes"/>
      <point x="490.81954910008926" y="1132.0774544549213" type="line" smooth="yes"/>
      <point x="511.79967427074445" y="1277.6624377893713"/>
      <point x="561.36416578556282" y="1421.8760045766383"/>
      <point x="706.42651092685514" y="1483.2619298968441" type="curve"/>
    </contour>
    <contour>
      <point x="436.37020011171251" y="-251.26102498703418" type="line"/>
      <point x="306.85974618511051" y="-185.99299085165143"/>
      <point x="316.97705790730032" y="-26.959440188140206"/>
      <point x="332.81883009606179" y="98.004170425950107" type="curve" smooth="yes"/>
      <point x="360.00904657834747" y="305.14676830319013" type="line" smooth="yes"/>
      <point x="379.46029649631987" y="505.66780284566869"/>
      <point x="281.37988398321181" y="655.64933678787179"/>
      <point x="72.254219929219431" y="663.82565424464542" type="curve"/>
      <point x="62.429457420077114" y="541.39945618813306" type="line"/>
      <point x="191.88038321332186" y="529.3701570887655"/>
      <point x="201.22382508621632" y="417.12743142012573"/>
      <point x="188.71580692570444" y="306.20543790195518" type="curve" smooth="yes"/>
      <point x="160.98488513364777" y="98.824266479221578" type="line" smooth="yes"/>
      <point x="138.22433195262303" y="-101.12906539271246"/>
      <point x="196.17491018579312" y="-285.12019883300513"/>
      <point x="393.67839339638277" y="-364.83178545238411" type="curve"/>
    </contour>
  </outline>
</glyph>
<glyph name="bar" format="2">
  <advance width="485"/>
  <unicode hex="007C"/>
  <guideline x="0.0" y="901.0" angle="0.0" identifier="9TAp1HRrUa"/>
  <guideline x="0.0" y="555.0" angle="0.0" identifier="S1Jfn09TYr"/>
  <outline>
    <contour>
      <point x="450.0908748223611" y="1455.9513357313895" type="line"/>
      <point x="304.2287274752473" y="1455.9570566905782" type="line"/>
      <point x="34.10561572248396" y="-269.9539123399847" type="line"/>
      <point x="179.96776306959498" y="-269.9596332991882" type="line"/>
    </contour>
  </outline>
</glyph>
<glyph name="braceright" format="1">
  <advance width="609.16"/>
  <unicode hex="007D"/>
  <outline>
    <contour>
      <point x="174.42372422878719" y="1483.5999538989724" type="line"/>
      <point x="303.76582871016547" y="1417.704185762374"/>
      <point x="294.56648159705594" y="1258.1695006322948"/>
      <point x="278.73080108570895" y="1132.7661514578865" type="curve" smooth="yes"/>
      <point x="251.70071939199772" y="924.88554053007795" type="line" smooth="yes"/>
      <point x="233.06647861221452" y="724.78193906758452"/>
      <point x="334.22511389534344" y="585.17352656648472"/>
      <point x="539.54248097229288" y="576.16994085013948" type="curve"/>
      <point x="548.76826249793237" y="689.74468184057946" type="line"/>
      <point x="419.41173783787633" y="701.25952833053088"/>
      <point x="410.04958234848988" y="813.02855966155391"/>
      <point x="422.59828114646018" y="923.82039771874508" type="curve" smooth="yes"/>
      <point x="450.43555617379673" y="1132.1730219774745" type="line" smooth="yes"/>
      <point x="473.14541679032851" y="1333.72527385595"/>
      <point x="413.5851293452921" y="1517.5486153722679"/>
      <point x="213.97130211738727" y="1596.1595314644442" type="curve"/>
    </contour>
    <contour>
      <point x="-70.176096413184183" y="-368.35157646526648" type="line"/>
      <point x="153.90198048526645" y="-293.1543134156679"/>
      <point x="262.51500520659386" y="-129.71377354907594"/>
      <point x="293.12245277386768" y="99.289769513982932" type="curve" smooth="yes"/>
      <point x="320.91335260830965" y="305.0405691753698" type="line" smooth="yes"/>
      <point x="338.68820190292217" y="429.97700511495259"/>
      <point x="393.01985281277479" y="538.4177047857255"/>
      <point x="531.28929738173588" y="545.30902022127202" type="curve"/>
      <point x="541.48772722399247" y="657.07215600086761" type="line"/>
      <point x="314.38255109291345" y="650.64689400211432"/>
      <point x="175.7714511128579" y="532.16575054494513"/>
      <point x="148.0140917803831" y="305.06069122907235" type="curve" smooth="yes"/>
      <point x="120.6724533605238" y="98.935863184300288" type="line" smooth="yes"/>
      <point x="99.747462493575355" y="-46.660895614555486"/>
      <point x="50.573726642778041" y="-190.34056109353327"/>
      <point x="-94.755473187449496" y="-251.31078799021543" type="curve"/>
    </contour>
  </outline>
</glyph>
<glyph name="asciitilde" format="1">
  <advance width="1170.79"/>
  <unicode hex="007E"/>
  <outline>
    <contour>
      <point x="935.60558422185284" y="777.31568397127967" type="line"/>
      <point x="922.32095873852643" y="690.32511077074901"/>
      <point x="883.3849763785496" y="561.66323966091852"/>
      <point x="772.90257165905302" y="563.81997206579626" type="curve" smooth="yes"/>
      <point x="710.496128705552" y="565.03821127893332"/>
      <point x="675.01839918075802" y="620.26629395340444"/>
      <point x="640.18246888345914" y="663.82745789537489" type="curve" smooth="yes"/>
      <point x="582.11289567456834" y="736.44151404385934"/>
      <point x="505.92634083109778" y="801.76122558833254"/>
      <point x="408.57458225163731" y="804.07172097807779" type="curve" smooth="yes"/>
      <point x="211.4087965127174" y="808.75114994384683"/>
      <point x="116.48893015518023" y="603.36308027859593"/>
      <point x="99.527024823335779" y="436.19977497573018" type="curve"/>
      <point x="246.60362136338176" y="438.62113579314899" type="line"/>
      <point x="260.25955569299657" y="523.27881133775213"/>
      <point x="292.70154651661295" y="643.65941403778857"/>
      <point x="400.64491080461141" y="641.239819431157" type="curve" smooth="yes"/>
      <point x="462.05695102201503" y="639.86324346215326"/>
      <point x="499.36846030079175" y="583.96332224120886"/>
      <point x="533.83357720184665" y="541.1803921997182" type="curve" smooth="yes"/>
      <point x="592.61238840138049" y="468.21589958850439"/>
      <point x="667.36387938893381" y="403.72585686707203"/>
      <point x="765.56635119941291" y="401.90853843647494" type="curve" smooth="yes"/>
      <point x="964.28408421004463" y="398.23110148373064"/>
      <point x="1054.6575462088163" y="613.91635004788589"/>
      <point x="1069.8905561510282" y="780.06352570081094" type="curve"/>
    </contour>
  </outline>
</glyph>
<glyph name="exclamdown" format="1">
  <advance width="460.75"/>
  <unicode hex="00A1"/>
  <outline>
    <contour>
      <point x="-22.774037677096715" y="-360.92452114620772" type="line"/>
      <point x="159.1117986501132" y="-360.94817006619866" type="line"/>
      <point x="326.92713878678046" y="683.93441306327816" type="line"/>
      <point x="171.48484832386754" y="683.93099342352241" type="line"/>
    </contour>
    <contour>
      <point x="397.1390511669515" y="997.50282430075265" type="curve" smooth="yes"/>
      <point x="399.27597828713101" y="1055.7431049037712"/>
      <point x="362.34701156338843" y="1103.7499869392022"/>
      <point x="301.3910816345263" y="1102.135699778767" type="curve" smooth="yes"/>
      <point x="241.17236150804237" y="1100.5409360399237"/>
      <point x="203.49241190761589" y="1052.1733782389742"/>
      <point x="201.35101342776858" y="994.4922813346883" type="curve" smooth="yes"/>
      <point x="199.17632323787592" y="935.91443290502878"/>
      <point x="236.4740396449173" y="887.11835629386314"/>
      <point x="297.90878324331408" y="888.86787347003803" type="curve" smooth="yes"/>
      <point x="358.00031060740531" y="890.57913900332187"/>
      <point x="395.04196664702516" y="940.34842266702037"/>
    </contour>
  </outline>
</glyph>
<glyph name="cent" format="1">
  <advance width="953.51"/>
  <unicode hex="00A2"/>
  <outline>
    <contour>
      <point x="700.93435582839345" y="1317.9185741548192" type="line"/>
      <point x="527.915373688513" y="1317.9238715487995" type="line"/>
      <point x="477.24845775361632" y="1030.0825428404248" type="line"/>
      <point x="650.27395720120489" y="1030.0731026633662" type="line"/>
    </contour>
    <contour>
      <point x="479.86784970959741" y="41.918744932944627" type="line"/>
      <point x="306.84624935262366" y="41.925812453222107" type="line"/>
      <point x="256.35242776242728" y="-244.91851525804145" type="line"/>
      <point x="429.37473592139963" y="-244.92560227826937" type="line"/>
    </contour>
    <contour>
      <point x="420.94851999051889" y="130.22826571357703" type="curve" smooth="yes"/>
      <point x="229.30309606850366" y="135.06267276779906"/>
      <point x="245.00831159713525" y="385.39765129128858"/>
      <point x="260.17613898108664" y="518.44918246005" type="curve" smooth="yes"/>
      <point x="265.29310999571476" y="560.185495970067" type="line" smooth="yes"/>
      <point x="285.93424882437199" y="719.96000711309944"/>
      <point x="354.52809856600641" y="958.92325639350486"/>
      <point x="557.43492951628093" y="950.71908022788557" type="curve" smooth="yes"/>
      <point x="685.0463887965733" y="945.55933825279237"/>
      <point x="715.08506267887549" y="814.71225065939223"/>
      <point x="712.89512243176807" y="709.53783437980564" type="curve"/>
      <point x="875.37289219829904" y="709.19969069905346" type="line"/>
      <point x="881.0540882291325" y="906.20021288299245"/>
      <point x="785.77506354402465" y="1095.7347581932333"/>
      <point x="567.76960314521261" y="1102.1342976421067" type="curve" smooth="yes"/>
      <point x="270.57883469448046" y="1110.8583178710599"/>
      <point x="125.34290665254488" y="816.01475903304777"/>
      <point x="94.130134730455424" y="560.32543897659343" type="curve" smooth="yes"/>
      <point x="89.171195065319708" y="517.16025756432975" type="line" smooth="yes"/>
      <point x="64.16449986345981" y="283.33977743420746"/>
      <point x="121.96968842260094" y="-14.572656543782724"/>
      <point x="410.88170694023995" y="-21.000831531755011" type="curve" smooth="yes"/>
      <point x="616.22000446405309" y="-25.569525194925692"/>
      <point x="778.29931553377173" y="148.01782309941771"/>
      <point x="806.59576431740766" y="341.95175664029415" type="curve"/>
      <point x="644.67090958306267" y="340.71593982382132" type="line"/>
      <point x="618.06501533636617" y="234.33878439819716"/>
      <point x="542.84609924338724" y="127.15330308221017"/>
    </contour>
  </outline>
</glyph>
<glyph name="sterling" format="1">
  <advance width="1015.5899999999999"/>
  <unicode hex="00A3"/>
  <outline>
    <contour>
      <point x="845.44892035955183" y="0.0" type="line"/>
      <point x="874.11014738862127" y="156.91011357960079" type="line"/>
      <point x="20.190433779110592" y="156.90940363177927" type="line"/>
      <point x="-7.6610836988970306" y="0.0" type="line"/>
    </contour>
    <contour>
      <point x="651.58837547453174" y="623.08375327036413" type="line"/>
      <point x="679.45321368182283" y="779.90701451473683" type="line"/>
      <point x="124.25581312949014" y="779.91572488478585" type="line"/>
      <point x="96.390974922192626" y="623.09246364041064" type="line"/>
    </contour>
    <contour>
      <point x="461.05553622486889" y="1039.6184557761885" type="line" smooth="yes"/>
      <point x="476.89920501940225" y="1157.6867580447438"/>
      <point x="542.6147858364601" y="1325.6216588688123"/>
      <point x="687.70852939657311" y="1320.5849493879268" type="curve" smooth="yes"/>
      <point x="816.54319547517878" y="1316.1126491482132"/>
      <point x="839.60726839367385" y="1192.6476166323214"/>
      <point x="832.06625645028339" y="1086.9801077983213" type="curve"/>
      <point x="1011.8265649762454" y="1086.4685175143804" type="line"/>
      <point x="1024.3907538153924" y="1287.2241158404941"/>
      <point x="938.26857256787332" y="1470.0004403265307"/>
      <point x="716.1243122455453" y="1476.3002692642526" type="curve" smooth="yes"/>
      <point x="464.02494055181626" y="1483.4496005801877"/>
      <point x="310.56338703230699" y="1269.4740884757882"/>
      <point x="281.99862429535261" y="1038.7727077496593" type="curve" smooth="yes"/>
      <point x="193.28826168272195" y="400.97479833988683" type="line" smooth="yes"/>
      <point x="180.93390586944662" y="323.48242632500273"/>
      <point x="157.00667719473506" y="194.1779334262765"/>
      <point x="77.008380963453973" y="157.63936727202557" type="curve"/>
      <point x="237.44316087233062" y="103.79749316514112" type="line"/>
      <point x="324.83799492435026" y="178.0940822791062"/>
      <point x="359.2252337772822" y="293.95847934695246"/>
      <point x="374.3057357016969" y="404.20939799814067" type="curve" smooth="yes"/>
    </contour>
  </outline>
</glyph>
<glyph name="currency" format="2">
  <advance width="1417"/>
  <unicode hex="00A4"/>
  <guideline x="0.0" y="901.0" angle="0.0" identifier="P6AcXjRvrZ"/>
  <guideline x="0.0" y="555.0" angle="0.0" identifier="WyEwfcGsgi"/>
  <outline>
    <contour>
      <point x="306.089748991491" y="598.9841831154648" type="curve" smooth="yes"/>
      <point x="338.23611077953154" y="838.6273432568685"/>
      <point x="543.2821033026808" y="1069.5710625372462"/>
      <point x="798.0197314904293" y="1062.1210877811195" type="curve" smooth="yes"/>
      <point x="1033.2397317763973" y="1055.2419192941811"/>
      <point x="1150.7209244366231" y="830.9441188985808"/>
      <point x="1121.9935136147683" y="616.8701898047568" type="curve" smooth="yes"/>
      <point x="1089.8813289347142" y="377.5732483269741"/>
      <point x="885.9484842432907" y="144.26341853211252"/>
      <point x="630.8135716606802" y="151.77648765055653" type="curve" smooth="yes"/>
      <point x="395.32116955268026" y="158.7111351905436"/>
      <point x="277.3726321445919" y="384.90519412389847"/>
    </contour>
    <contour>
      <point x="137.23661970541332" y="600.1519673364752" type="curve" smooth="yes"/>
      <point x="102.43110154551256" y="291.00076331045125"/>
      <point x="288.4903725913804" y="-13.676049533922972"/>
      <point x="620.7268273313906" y="-20.752260749536894" type="curve" smooth="yes"/>
      <point x="971.9172386893688" y="-28.232166979610568"/>
      <point x="1254.159822188765" y="281.1022874765521"/>
      <point x="1291.8856418725302" y="615.7079979529727" type="curve" smooth="yes"/>
      <point x="1326.8429308685145" y="925.7584784694914"/>
      <point x="1140.6231320780548" y="1227.6459360445353"/>
      <point x="808.129760431003" y="1234.650333419491" type="curve" smooth="yes"/>
      <point x="457.2452634038453" y="1242.0421633309115"/>
      <point x="174.93090035329072" y="934.961872870701"/>
    </contour>
    <contour>
      <point x="1421.14123774636" y="1119.3204341307194" type="line"/>
      <point x="1309.5519813410756" y="1264.9980938350664" type="line"/>
      <point x="1086.1885079574154" y="1067.6795281707932" type="line"/>
      <point x="1197.757372219253" y="921.9949508165549" type="line"/>
    </contour>
    <contour>
      <point x="351.8500187821589" y="171.28381321672728" type="line"/>
      <point x="240.92077822884994" y="315.01018558320413" type="line"/>
      <point x="17.79078619979181" y="118.71888150817772" type="line"/>
      <point x="128.4866844737208" y="-26.022565736845646" type="line"/>
    </contour>
    <contour>
      <point x="1101.5583203491724" y="-26.733163084950874" type="line"/>
      <point x="1244.8283737060635" y="101.34098663151754" type="line"/>
      <point x="1076.887742720822" y="315.02196844262585" type="line"/>
      <point x="933.4002052526107" y="187.14875556951475" type="line"/>
    </contour>
    <contour>
      <point x="361.62338918939844" y="922.0544201335973" type="line"/>
      <point x="504.01380143665654" y="1049.2784962232474" type="line"/>
      <point x="336.39930113017454" y="1264.0495708987053" type="line"/>
      <point x="194.10718203117494" y="1136.6839342996534" type="line"/>
    </contour>
  </outline>
</glyph>
<glyph name="yen" format="1">
  <advance width="921.5"/>
  <unicode hex="00A5"/>
  <outline>
    <contour>
      <point x="825.24998499263882" y="736.9159721340958" type="line"/>
      <point x="143.94815131578923" y="736.92412230082107" type="line"/>
      <point x="121.65985622624966" y="612.08422524982086" type="line"/>
      <point x="802.96168990309684" y="612.07607508309695" type="line"/>
    </contour>
    <contour>
      <point x="774.88636255097003" y="445.90538063680879" type="line"/>
      <point x="93.590415824652823" y="445.91277138158023" type="line"/>
      <point x="71.36398270718847" y="322.09473173595171" type="line"/>
      <point x="752.65992943350602" y="322.08734099118112" type="line"/>
    </contour>
    <contour>
      <point x="413.31673422062033" y="665.96779309409487" type="line"/>
      <point x="438.71739588815103" y="603.21745663726574" type="line"/>
      <point x="547.66098594835421" y="604.31152583136657" type="line"/>
      <point x="1046.2996834380735" y="1455.6820146351834" type="line"/>
      <point x="839.4770017876499" y="1455.7516309949631" type="line"/>
    </contour>
    <contour>
      <point x="370.95854521767399" y="1456.8039008885173" type="line"/>
      <point x="181.85913091954092" y="1456.0276811260246" type="line"/>
      <point x="382.91011816553407" y="604.09703340919384" type="line"/>
      <point x="498.73329930373745" y="605.21064711155896" type="line"/>
      <point x="539.76724521190715" y="657.36364173436903" type="line"/>
    </contour>
    <contour>
      <point x="577.48294635069226" y="773.93102371501175" type="line"/>
      <point x="397.66746299098844" y="773.9391164783998" type="line"/>
      <point x="263.01690311118023" y="0.0" type="line"/>
      <point x="442.83238647091548" y="0.0" type="line"/>
    </contour>
  </outline>
</glyph>
<glyph name="brokenbar" format="1">
  <advance width="477.24"/>
  <unicode hex="00A6"/>
  <outline>
    <contour>
      <point x="172.954123625023" y="-269.94951814468357" type="line"/>
      <point x="310.71799213819946" y="521.9404464132366" type="line"/>
      <point x="129.93689658937944" y="521.9491844277654" type="line"/>
      <point x="-7.826971923796933" y="-269.940780130155" type="line"/>
    </contour>
    <contour>
      <point x="472.53302866974946" y="1455.9396494773532" type="line"/>
      <point x="291.74972355488256" y="1455.94838798769" type="line"/>
      <point x="159.88359292360997" y="698.0574980375693" type="line"/>
      <point x="340.66689803847737" y="698.0487595272322" type="line"/>
    </contour>
  </outline>
</glyph>
<glyph name="section" format="1">
  <advance width="1067.97"/>
  <unicode hex="00A7"/>
  <outline>
    <contour>
      <point x="509.9496545074021" y="106.276902771051" type="line"/>
      <point x="721.77414117091405" y="110.57055152824221"/>
      <point x="915.58620835629029" y="205.99846626385838"/>
      <point x="932.93711608600756" y="438.61820548872669" type="curve" smooth="yes"/>
      <point x="950.17673003085326" y="669.7458538318117"/>
      <point x="811.77502345595235" y="776.44097653808728"/>
      <point x="613.77772782641739" y="854.70514780226927" type="curve" smooth="yes"/>
      <point x="487.81101286917931" y="904.49714380733519"/>
      <point x="372.13980417707643" y="951.38762551545847"/>
      <point x="392.04936502430189" y="1105.5202678353951" type="curve" smooth="yes"/>
      <point x="409.97912896514492" y="1244.3260362589604"/>
      <point x="522.87624209091132" y="1328.4127504904836"/>
      <point x="660.46566708032719" y="1324.770622016347" type="curve" smooth="yes"/>
      <point x="815.783282102258" y="1320.6592107778024"/>
      <point x="858.83571677556938" y="1178.1732858085018"/>
      <point x="848.92086019399505" y="1045.8602040809892" type="curve"/>
      <point x="1021.4409182051297" y="1045.6553015439215" type="line"/>
      <point x="1038.2200405084766" y="1286.1514772907581"/>
      <point x="926.95915572856143" y="1471.7803117986468"/>
      <point x="670.35115128363987" y="1477.2835886728369" type="curve" smooth="yes"/>
      <point x="440.19741687200138" y="1482.2195209202969"/>
      <point x="237.87102917642071" y="1342.9996803419681"/>
      <point x="219.30974798012932" y="1103.3882044550621" type="curve" smooth="yes"/>
      <point x="201.14081075376214" y="868.84157924816486"/>
      <point x="342.31759510663767" y="772.30857915725528"/>
      <point x="538.8476353045512" y="691.22645161375385" type="curve" smooth="yes"/>
      <point x="656.28654008576461" y="642.77484469172691"/>
      <point x="777.90526752947665" y="581.14108673433373"/>
      <point x="757.63828647480193" y="436.19670426709695" type="curve" smooth="yes"/>
      <point x="739.95229897417346" y="309.71094254036103"/>
      <point x="646.80889567497184" y="231.00488437920495"/>
      <point x="521.62757451557547" y="224.22576778069072" type="curve"/>
    </contour>
    <contour>
      <point x="492.65716246609782" y="875.74821344439397" type="line"/>
      <point x="284.72773239394689" y="871.11162467229394"/>
      <point x="101.31689128344755" y="768.38168711416358"/>
      <point x="84.338790738641634" y="543.48380517326302" type="curve" smooth="yes"/>
      <point x="66.775275541916244" y="310.83131517556552"/>
      <point x="204.02982853577581" y="206.89072749855552"/>
      <point x="401.29101641091938" y="126.34827776639308" type="curve" smooth="yes"/>
      <point x="516.98530087905431" y="79.109886923024163"/>
      <point x="645.06482079533862" y="21.857946753799069"/>
      <point x="625.96085692952647" y="-123.09653269324858" type="curve" smooth="yes"/>
      <point x="607.93626123418017" y="-259.86112796858413"/>
      <point x="491.99235991879698" y="-345.69314743953095"/>
      <point x="357.15937063598358" y="-343.20208846491812" type="curve" smooth="yes"/>
      <point x="193.15305102999378" y="-340.17204799395603"/>
      <point x="135.07199061385697" y="-209.00115250332152"/>
      <point x="146.44234311199665" y="-61.93177649817256" type="curve"/>
      <point x="-26.412900778064113" y="-63.537522917287681" type="line"/>
      <point x="-42.856187203449252" y="-314.15936417305642"/>
      <point x="90.133719166559956" y="-490.15224847427714"/>
      <point x="348.243424354929" y="-495.48501713579293" type="curve" smooth="yes"/>
      <point x="581.80112874110057" y="-500.31052032908497"/>
      <point x="778.86058865120015" y="-364.11983620066928"/>
      <point x="797.4876166459253" y="-121.36634979075721" type="curve" smooth="yes"/>
      <point x="815.37423911963776" y="111.7379310865348"/>
      <point x="673.70987194026736" y="210.87865447516484"/>
      <point x="476.19656650307536" y="289.7835084994403" type="curve" smooth="yes"/>
      <point x="349.2982314707304" y="340.4782937418189"/>
      <point x="239.34015920345803" y="391.72152281571249"/>
      <point x="260.0761360285091" y="544.90849956295085" type="curve" smooth="yes"/>
      <point x="276.72325976989549" y="667.88908441774129"/>
      <point x="355.62287019776653" y="748.03849063927612"/>
      <point x="480.44874131380436" y="754.8018617860514" type="curve"/>
    </contour>
  </outline>
</glyph>
<glyph name="dieresis" format="1">
  <advance width="831.29"/>
  <unicode hex="00A8"/>
  <outline>
    <contour>
      <point x="517.81222716291711" y="1290" type="move" name="_top"/>
    </contour>
    <contour>
      <point x="562.5269216495218" y="1577" type="move" name="mkmktop_acc"/>
    </contour>
    <contour>
      <point x="218.19959648503504" y="1368.5882913535063" type="curve" smooth="yes"/>
      <point x="217.71117261083629" y="1307.1376696730053"/>
      <point x="263.57892449154679" y="1264.868272950564"/>
      <point x="324.33626931690083" y="1266.245303899896" type="curve" smooth="yes"/>
      <point x="385.77028169953661" y="1267.6376711377288"/>
      <point x="430.82492776209187" y="1311.5941019014247"/>
      <point x="431.54234224731999" y="1373.3596868558532" type="curve" smooth="yes"/>
      <point x="432.26813357808066" y="1435.8464738142102"/>
      <point x="387.16060547626421" y="1480.2795742868332"/>
      <point x="324.65357650324643" y="1478.7610226489912" type="curve" smooth="yes"/>
      <point x="262.36419265437024" y="1477.247758502255"/>
      <point x="218.69079443340749" y="1430.3879307449881"/>
    </contour>
    <contour>
      <point x="635.95834437559006" y="1366.5857935711124" type="curve" smooth="yes"/>
      <point x="635.46826411050949" y="1304.8534059408416"/>
      <point x="680.97886187766551" y="1262.7885969465701"/>
      <point x="742.09567263650843" y="1264.2500424508626" type="curve" smooth="yes"/>
      <point x="803.15313882347959" y="1265.7100688880164"/>
      <point x="848.58141065583004" y="1309.8918463367354"/>
      <point x="849.30083693465224" y="1371.356617614035" type="curve" smooth="yes"/>
      <point x="850.02893008678723" y="1433.5618502861189"/>
      <point x="804.55510855847649" y="1478.1956721731522"/>
      <point x="742.41302748311841" y="1476.7652766236554" type="curve" smooth="yes"/>
      <point x="679.73662270393606" y="1475.3225819326635"/>
      <point x="636.45137109421864" y="1428.6893277778195"/>
    </contour>
  </outline>
</glyph>
